<?xml version="1.0" encoding="UTF-8"?>
<!DOCTYPE svg PUBLIC "-//W3C//DTD SVG 1.1//EN" "http://www.w3.org/Graphics/SVG/1.1/DTD/svg11.dtd">
<!-- Creator: CorelDRAW -->
<svg xmlns="http://www.w3.org/2000/svg" xml:space="preserve" width="14.456mm" height="19.4312mm" version="1.1" style="shape-rendering:geometricPrecision; text-rendering:geometricPrecision; image-rendering:optimizeQuality; fill-rule:evenodd; clip-rule:evenodd"
viewBox="0 0 58.32 78.39"
 xmlns:xlink="http://www.w3.org/1999/xlink"
 xmlns:xodm="http://www.corel.com/coreldraw/odm/2003">
 <defs>
  <style type="text/css">
   <![CDATA[
    .fil0 {fill:#B3DFE4}
    .fil1 {fill:#FEDC5E}
    .fil2 {fill:#FFBBBE}
   ]]>
  </style>
 </defs>
 <g id="Camada_x0020_1">
  <metadata id="CorelCorpID_0Corel-Layer"/>
  <g id="_3078865799104">
   <path class="fil0" d="M46.3 26.89c-2.76,0.93 -1.05,3.86 -3.09,9.43 -1.15,3.15 -3.13,6 -4.92,7.67 -4.93,4.59 -9.47,5.35 -16.82,8.15 -3.39,1.29 -9.61,4.11 -11.95,6.65 -1.75,1.91 -1.5,1.38 -3.06,3.39 -1.89,2.43 -3.01,4.84 -3.92,8.48 -0.33,1.31 -1.02,3.89 -0.91,5.16 0.16,1.81 1.89,3.12 3.88,2.34 3.53,-1.38 -0.49,-8.96 8.84,-16.19 6.95,-5.39 18.32,-6.61 25.48,-11.9 3.15,-2.32 3.8,-2.91 6.18,-6.47 2.29,-3.42 4.55,-10.05 4.08,-14.35 -0.18,-1.69 -1.82,-3.02 -3.79,-2.36z"/>
   <path class="fil1" d="M45.03 0.3c-5.97,1.33 -9.73,7.01 -8.41,12.86 1.69,7.49 10.25,11.03 16.73,6.86 9.97,-6.42 3.77,-22.4 -8.32,-19.71z"/>
   <path class="fil2" d="M7.13 34.57c-4.3,0.82 -8.16,5.26 -6.89,10.69 2.62,11.16 19.81,7.79 17.38,-4.01 -0.9,-4.39 -5.01,-7.74 -10.49,-6.69z"/>
  </g>
 </g>
</svg>
