<?xml version="1.0" encoding="UTF-8"?>
<!DOCTYPE svg PUBLIC "-//W3C//DTD SVG 1.1//EN" "http://www.w3.org/Graphics/SVG/1.1/DTD/svg11.dtd">
<!-- Creator: CorelDRAW -->
<svg xmlns="http://www.w3.org/2000/svg" xml:space="preserve" width="28.1295mm" height="35.2919mm" version="1.1" style="shape-rendering:geometricPrecision; text-rendering:geometricPrecision; image-rendering:optimizeQuality; fill-rule:evenodd; clip-rule:evenodd"
viewBox="0 0 555.82 697.34"
 xmlns:xlink="http://www.w3.org/1999/xlink"
 xmlns:xodm="http://www.corel.com/coreldraw/odm/2003">
 <defs>
  <style type="text/css">
   <![CDATA[
    .fil2 {fill:#010727}
    .fil3 {fill:#0B2647}
    .fil12 {fill:#2A475E}
    .fil7 {fill:#44677D}
    .fil8 {fill:#6D95A3}
    .fil1 {fill:#85380D}
    .fil6 {fill:#A7C1C9}
    .fil9 {fill:#B47A4C}
    .fil0 {fill:#C7DDE2}
    .fil5 {fill:#D99466}
    .fil10 {fill:#FBC49A}
    .fil11 {fill:#FDE8C6}
    .fil4 {fill:#FEFAED}
   ]]>
  </style>
 </defs>
 <g id="Camada_x0020_1">
  <metadata id="CorelCorpID_0Corel-Layer"/>
  <g id="_1967476916976">
   <path class="fil0" d="M247.09 392.71c-4.69,0.25 -6.34,1.26 -11.81,0.33 -2.77,0.04 -2.35,0.72 -4.81,0.99 -2.3,0.25 -3.64,0.12 -5.12,1.03l-0.58 0.14 -42.08 26.94c-5.26,3.6 -8.96,5.33 -14.76,8.38l-0.22 1.66 -1.55 2.18c5.43,-0.36 6.45,-1.98 10.53,-4.28l17.9 -11.25c8.57,-5.17 18.24,-11.73 27.09,-16.69 2.34,-1.31 6.27,-4.17 9.12,-5.45 2.73,-1.23 10.12,-1.77 12.75,0.5 5.09,0.07 25.52,0.57 28.5,-0.83 -5.29,-1.47 -11.65,0.13 -17.19,0.14 0.63,-0.59 0.03,-0.35 1.11,-0.82 2.38,-1.04 24.96,-1.04 27.25,-0.87 -3.75,-2.67 -8.06,0.27 -14,-1.18 3.35,-0.13 7.06,0.21 9.69,-0.63l0.78 -3.45 -1.82 -0.61c-1.19,1.56 0.22,0.49 -1.84,0.99l-13.43 0.19c-3.78,-0.03 -8.7,-2.73 -10.85,-4.6l-0.08 6.44 -4.59 0.78z"/>
   <path class="fil0" d="M454.54 571.23c1.34,0.43 0.49,0.49 1.17,0.11 2.18,-1.2 0.63,0.07 1.17,-1.72l-2.49 -0.02 0.15 1.62z"/>
   <path class="fil1" d="M365.16 283.39c3.11,0.34 0.72,0.23 1.43,-0.61 -5.27,-3.43 -9.5,-6.37 -9.41,-15.15 0.17,-18.05 18.55,-30.97 31.94,-42.01l14.38 -10.1c21.15,-13.28 40.82,-11.6 59.82,2.49 7.52,5.58 2.55,4.38 13.89,3.53 22.91,-1.72 36.13,14.42 38.98,35.42 0.96,7.07 3.77,1.97 12.14,12.59 8.25,10.46 8.23,26.8 2.49,38.93 -2.06,4.36 -7.82,12.26 -12.43,13.04 -1.84,-4.68 -5.7,-9.26 -11.56,-9.91 -8.82,-0.98 -10.82,4.6 -15.73,5.58 -2.85,-3.43 -5.55,-5.82 -6.07,-11.66 -1.49,-16.89 -2.42,-2.3 -14.84,-22.66 -2.22,-3.64 -2.96,-5.84 -4.3,-9.76 -1.16,-3.39 -0.47,-2.7 -1.39,-1.91 0.84,5.69 4.54,12.08 7.21,15.93 1.68,2.42 3,4.72 5.28,6.37 1.91,1.38 4.91,3.32 6.79,5.04 0.78,6.72 -1.01,8.47 2.76,14.59 4.96,8.05 7.08,3.98 9.7,2.1 5.92,-4.24 14.34,-4.02 18.98,2.45 2.18,3.03 2.17,5.02 3.86,5.97 0.95,-1.06 1.59,-1.18 3.12,-2.25 1.81,-1.28 1.77,-1.58 3.36,-3.07 11.89,-11.21 16.51,-38.46 -0.19,-53.96 -2.93,-2.72 -4.16,-2.83 -7.65,-5.16 -0.91,-17.32 -11,-34.01 -28.16,-38.37 -7.66,-1.94 -12.54,-0.57 -19.93,0.39 -2.23,-1.22 -4.92,-3.98 -7.68,-5.98 -8.26,-5.98 -19.62,-10.26 -30.81,-10.2 -22.93,0.1 -39.19,17.47 -53.14,28.1 -5.06,3.85 -9.8,8.53 -13.95,13.47 -7.93,9.43 -14.09,30.22 1.09,36.81z"/>
   <path class="fil1" d="M388.75 293.09c0.4,0.17 -0.34,0.38 1.57,0.37l2.86 -0.88c5.64,-2.3 12.14,-0.72 8.8,-4.44 -1.77,-1.98 -6.22,-0.85 -8.6,-0.02 -2.94,1.03 -5.6,1.7 -4.63,4.96z"/>
   <path class="fil1" d="M441.84 347.26c-0.8,5.74 -10.08,8.12 -15.33,8.44 -6.28,0.38 -15.53,-2.65 -15.1,-8.09 5.07,0.54 5.39,5.13 15.1,5.14 9.75,0.02 10.79,-4.85 15.33,-5.48zm-31.29 -0.49c-1.13,6.19 8.81,10.07 15.92,9.78 3.91,-0.16 7.6,-1.22 10.39,-2.79 1.21,-0.68 3.47,-2.27 4.12,-2.84 1.26,-1.1 1.94,-2.19 1.82,-4.54 -3.64,-0.87 -3.52,1.59 -6.58,3.29 -5.21,2.88 -13.27,3.32 -18.71,0.46 -2.9,-1.53 -3.59,-3.98 -6.97,-3.36z"/>
   <path class="fil1" d="M207.91 195.46c-0.98,0.83 5.65,2.61 6.34,2.71 1.89,0.27 3.36,0.16 5.24,-0.06 0.47,-0.05 1.64,-0.25 2.04,-0.25 1.67,0 0.69,-0.08 1.56,0.35 -4.59,5.96 -23.98,-0.41 -24.65,-8.28l2.62 0.57c-1.25,-1.46 -0.93,-1.08 -2.34,-1.92 -1.24,1.2 -1.89,1.53 -0.71,3.61 1.4,2.46 6.9,6.07 9.64,7.32 4.12,1.88 16.51,3.53 16.83,-2.47 -2.05,-0.79 -5.81,0.58 -8.5,0.49 -3.54,-0.12 -5.29,-1.45 -8.08,-2.08z"/>
   <path class="fil2" d="M82.26 234.77l0.61 -0.3c-0.66,-0.75 0.13,-0.09 -1,-0.81 -2.4,-1.52 -5,-2.11 -9.5,-5.57 -20.35,-15.62 -24.74,-36.76 -11.51,-59.65 9.75,-16.87 23.08,-23.5 29.51,-39.89 6.92,-17.65 5.16,-38.83 23.61,-62.67 13.09,-16.92 32.57,-28.99 54.41,-31.73 10.35,-1.29 22.32,-0.33 31.71,2.18 14.36,3.84 15.92,8.13 23.45,11.5 7.22,3.24 13.69,3.17 24.03,10.34 14.65,10.15 24.37,26.26 23.7,45.02 -0.16,4.57 -1.77,10.33 -3.56,13.87l-6.37 9.88c5.43,-2.29 11,-14.17 11.28,-23.77 0.3,-10.21 -2.6,-20.81 -7.05,-28.04 -7.42,-12.06 -15.59,-18.8 -28.37,-24.12 -4.51,-1.88 -8.79,-2.73 -13.09,-4.4 -3.84,-1.49 -8.55,-7.69 -23.34,-11.64 -8.85,-2.37 -22.03,-3.57 -31.44,-2.32 -18.35,2.45 -35.29,9.71 -47.58,22.37 -6.61,6.81 -10.7,11.45 -15.35,19.64 -16.26,28.65 -8.51,41.3 -23.43,64.04 -2.65,4.04 -8.66,10.17 -12.17,14.06 -1.48,1.64 -2.6,2.91 -4.08,4.68 -37.57,44.79 6.85,77.67 15.54,77.33z"/>
   <path class="fil2" d="M40.86 542.62l14.47 3.28c-0.09,4.63 -2.25,12.29 -3.08,16.9 -6.01,33.47 -15.19,69.98 -22.12,103.8 -1.05,5.11 -1.87,13.35 -6.38,14.7 -10,2.99 -2.65,-19.93 -0.99,-30.84 5.39,-35.33 11.99,-72.72 18.1,-107.83zm16.03 2.77c-2.84,-1.04 -5.87,-1.57 -8.98,-2.31 -2.76,-0.66 -6.07,-2 -8.07,-2.4l-18.32 109.25c-1.07,6.23 -2.22,12.11 -3.29,18.23 -1.02,5.79 -3.21,14.82 4.69,14.57 5.73,-0.18 6.7,-7.33 7.89,-13.03 4.67,-22.31 24.78,-110.88 26.08,-124.31z"/>
   <path class="fil2" d="M118.66 553.37c0.81,-0.44 10.11,0.13 11.54,0.64 1.68,4.95 -5.22,96.24 -5.65,116.56 -0.09,4.44 0.96,13.44 -3.85,14.39 -2.03,0.4 -5.27,-0.53 -6.08,-2.36 -0.94,-2.11 -0.31,-5.95 -0.24,-8.53 0.29,-11.13 2.72,-116.28 3.89,-119.87l0.4 -0.84zm13.26 3.51l0.16 -4.13 -15.69 -0.53 -2.88 103.85c-0.23,5.8 -0.45,11.67 -0.5,17.43 -0.05,6.11 -1.35,11.62 5.19,12.61 6.75,1.02 7.13,-3.93 7.35,-9.68 1.05,-27.89 3.62,-57.54 4.55,-85.13 0.39,-11.42 1.7,-23.06 1.82,-34.41z"/>
   <path class="fil2" d="M272.04 396.35c-2.98,1.4 -23.41,0.9 -28.5,0.83 -7.9,0.02 -10.36,-0.49 -16.14,3.16l-58.58 36.48c-3.96,2.52 -21.52,12.5 -22.9,14.5 -1.34,1.35 1.57,0.92 -1.32,1.24 3.81,-0.68 14.17,-7.97 18.38,-10.47 5.97,-3.54 12.11,-7.4 18.04,-11.11l35.84 -22.46c3.02,-1.96 6.04,-3.61 9.13,-5.47 3.16,-1.9 5.71,-4.04 10.36,-4.21 9.48,-0.33 82.06,-2.32 85.41,-1.37 1.79,5.17 -1.91,5.37 -12.43,12.44 -2.65,1.78 -5.43,3.41 -8.31,5.09 -4.79,2.8 -3.63,-0.98 -11.05,3.02 -9.45,5.1 -15.6,4.61 -20.06,6.73 -4.78,2.28 -2.54,5.38 -6.63,6.87 -0.04,0.01 -9.01,2.3 -6.41,6.27 1.78,-6.5 7.33,-3.38 9.42,-6.81 1.45,-2.38 -0.24,-2.81 3.27,-4.94 3.19,-1.94 11.1,-2.25 18.21,-5.68 9.4,-4.53 2.49,-3.83 11.1,-2.5 1.73,-0.97 24.23,-14.61 24.97,-16.11 0.67,-7.17 -2.58,-6.01 -8.73,-5.96 -8.66,0.07 -39.85,1.39 -43.07,0.44z"/>
   <path class="fil2" d="M234.07 611.88c0.01,3.92 -0.9,9.47 -1.54,13.47l-1 10.3c0,2.4 -0.5,1.89 0.98,3.09 15.63,3.89 26.95,4.08 43.57,3.26 4.25,-0.12 8.55,-0.22 12.51,-1.44 2.21,-4.2 4.92,-19.1 6.08,-24.83l15.66 -78.27c3.4,-18.32 6.44,-51.17 -4.6,-67.42l-7.23 -8.5c-3.26,-2.96 -14.2,-10.62 -20.2,-11.1l-1.62 0.16c3.67,1.64 7.12,2.69 10.9,4.91 9.81,5.74 17.74,11.9 21.87,24.85 5.26,16.48 2.26,39.42 -0.29,56.46 -3.82,25.5 -10.33,52.86 -15.54,78.41 -0.44,2.18 -4.37,23.49 -6.58,24.6 -11.91,1.79 -45.2,3.42 -54.05,-2.48 -0.54,-3.51 0.6,-10.79 1.22,-14.3 0.94,-5.33 0.87,-9.09 1.02,-14.4l-1.14 3.23z"/>
   <path class="fil2" d="M477.96 584.9l6.88 94.72 0.63 1.58 0.26 2.86c1.97,-0.8 0.76,0.89 1.02,-2.36 0.2,-2.44 -7.63,-84.43 -7.24,-95.66l13.36 -0.63c0.35,5.08 4.41,94.21 3.17,98.09 -1.46,4.54 -7.19,5.18 -8.79,0.76 -1.19,1.07 -0.39,-0.27 -0.74,1.61 2.09,3.98 7.48,3.14 9.74,0.21 2.33,-3.03 1.2,-9.04 1.1,-13.22l-2.29 -73.86c-0.18,-4.56 -0.98,-10.44 -0.73,-14.78l-16.38 0.68z"/>
   <path class="fil2" d="M525.62 582.66c4.32,-0.91 9.4,-2.57 12.93,-3.15 6.25,24.82 9.96,61.58 14.59,89 0.72,4.24 1.28,10.72 -4.15,10.35 -4.47,-0.3 -4.48,-5.59 -5.36,-9.36 -1.02,-4.36 -1.68,-8.11 -2.65,-12.5l-15.36 -74.33zm-1.74 0.72c2.98,9.62 13.05,61.45 16.18,75.7 0.93,4.21 1.71,8.26 2.64,12.5 1.07,4.85 1.58,8.9 6.85,8.8 8.51,-0.17 4.43,-16.48 3.25,-22.93 -3.05,-16.68 -5.16,-35.69 -8.25,-53.59 -1.1,-6.37 -4.56,-20.96 -4.64,-26.03 -4.39,0.96 -10.52,3.89 -16.01,3.72l-0.02 1.84z"/>
   <path class="fil2" d="M256.36 690.26c-3.59,1.39 -1.24,3.11 -9.35,4.47 -11.39,1.91 -26.45,1.4 -37.74,0.03 -4.89,-0.59 -44.5,-6.02 -45.88,-7.08l-2.19 -8.94c-0.97,-6.88 -0.15,-11.24 2.36,-17.42 2.23,-5.49 1.99,-4.41 3.79,-4.55l0.54 -0.01c-1.3,-2.06 -0.33,-1.35 -2.25,-1.89 -9.95,13.57 -4.94,32.43 -3.32,33.87 4.41,1.89 17.21,2.84 22.89,3.86 18.04,3.27 31.39,4.89 50.01,4.57 7.29,-0.12 19.55,-0.45 21.14,-6.9z"/>
   <path class="fil2" d="M191.8 224.98c6.8,3.08 23.47,11.9 29.17,17.24l4.08 3.21c17.33,-1.07 32.46,-8.93 39.01,-25.36 3.42,-8.59 4.84,-17.81 3.33,-27.89 -1.18,-7.91 -4.72,-19.03 -9.54,-22.89 -1,0.96 -1.11,-0.79 -0.1,1.63 0.04,0.09 1.07,1.52 1.23,1.75 0.79,1.17 1.36,2.28 2.11,3.72 11.91,22.95 5.51,56.18 -24.32,65.91 -10.03,3.28 -11.77,2.27 -16.92,-1.86 -2.68,-2.15 -25.29,-17.22 -28.05,-15.45z"/>
   <path class="fil2" d="M203.84 370.79l0.21 -1.7c-1.25,-0.5 -8.93,-7.43 -10.64,-8.91 -7.18,-6.2 -13.87,-9.11 -6.59,-14.43 2.79,0.5 9.2,5.92 11.15,7.52 0.92,0.75 1.49,1.49 2.47,2.23l8.1 5.55 0.11 -0.79 -4.63 -3.88 -8.34 -6.67c-5.66,-4.55 -5.67,-5.35 -10.23,-5.14 -1.61,2.12 -2.92,2.52 -3.57,6.43 0.25,2.05 11.38,11.43 13.51,13 2.12,1.56 5.73,5.54 8.45,6.78z"/>
   <path class="fil2" d="M144.2 449.85c1.52,-2.85 6.91,-6.24 10.12,-8.3 2.95,-1.89 8.9,-6.06 11.83,-7.19l1.55 -2.18c-2.23,0.17 -1.73,0.4 -3.59,1.68 -4.54,3.14 -22.62,13.47 -19.91,16z"/>
   <path class="fil3" d="M62.61 518.54c2.26,0.84 6.34,3.83 9.49,5.45 9.14,4.69 25.99,7.31 36.1,8.2 17.84,1.56 40.49,2.42 58.04,0.19 -0.32,4.19 -0.63,21.7 -1.83,23.78l-3.89 81.08c2.79,2.55 4.35,2.5 7.63,4.44 6.78,0.98 13.08,2.47 20.41,3.31 7.38,0.84 15.12,0.11 22.64,0.21 13.84,-1.5 11.01,-0.81 15.28,-13.11 1.7,-4.89 6.44,-17.4 6.79,-22.09l-0.15 -1.13c-0.77,1.98 -1.81,3.2 -2.56,5.36l-5.19 15.74c-0.53,1.64 -1.35,4.17 -1.89,5.74 -0.49,1.42 -1.25,3.77 -1.91,4.99 -3.2,5.9 -47,5.17 -59.42,-4.52 -0.02,-14.44 5.86,-100.86 5.15,-104.58l-45.78 0.53c-5.02,-0.35 -10.18,-0.95 -14.85,-1.26 -7.86,-0.53 -18.82,-2.82 -26.55,-4.98 -3.07,-0.86 -8.34,-2.96 -11.01,-4.66 -2.01,-1.28 -3.13,-2.21 -4.91,-3.27 -3.81,-2.28 -1.7,-2.72 -4.24,-3.45l2.66 4.04z"/>
   <path class="fil3" d="M85.03 233.38c10.04,-4.93 26.73,-13.99 39.97,-15.09 2.64,-1.83 4.68,-1.51 8.29,-6.51 7.25,-10.03 3.95,-38.28 2.79,-39.25 -5.36,-1.83 -7.07,-1.43 -11.68,-4.63 -8.81,-6.13 -13.06,-22.74 -5.49,-34.06 1.84,-2.75 5,-6.05 9.29,-7.01 4.48,-1.01 9.56,0.89 12.05,3.1 2.76,2.46 5.89,12.79 20.94,8.24 -0.11,-0.13 -0.31,-0.22 -0.42,-0.26l-0.9 -0.4c-1.7,-0.41 -6.52,1.58 -12.17,-1.73 -3.95,-2.32 -8.2,-14.49 -21.96,-9.81 -9.68,3.29 -16.66,20.37 -9.58,34.35 6.11,12.06 15.18,12.06 18.71,14.02 1.2,16.68 4.84,37.28 -11.44,42.56 -18.78,6.1 -18.46,4.63 -35.66,13.41 -0.45,0.23 -1.82,0.8 -2.35,1.23 -0.54,0.44 -0.49,0.37 -0.65,0.82 -0.44,1.33 -1.93,-0.56 0.28,1.04z"/>
   <path class="fil3" d="M228.24 665.29c0.95,0.96 5.19,3.45 6.46,4.09l0.15 -0.67c-0.04,-0.19 0.34,-0.55 -1.7,-1.92 -1.02,-0.69 -2.5,-1.68 -3.45,-2.11 0.2,-2.87 1.59,-5.03 1.9,-7.72 1.62,0.42 5.91,3.73 9.47,5.48 11.13,5.44 22.04,9.94 34.96,9.93 21.28,-0.01 15.01,-4.83 25.12,0.03 8.59,4.13 14.4,7.25 14.01,15.68 -10.58,7.64 -39.69,2.48 -52.65,1.06l-5.42 -0.29c-1.78,0.65 -1.1,-0.46 -0.36,0.73 9.81,4.06 54.53,6.83 60.15,-0.92 1.23,-7.47 -3.48,-11.3 -7.72,-13.9 -2.66,-1.63 -11.72,-6.71 -14.34,-7.07 -5.06,6.52 -27.9,3.18 -35.72,0.58 -10.23,-3.39 -16.49,-5.9 -24.93,-11.81 -2.3,-1.61 -1.04,-1.55 -3.4,-2.25 -0.81,4.52 -2.7,5.63 -2.56,11.08z"/>
   <path class="fil3" d="M188.44 219.48c-1.97,-0.16 -0.41,-0.65 -1.45,0.62 1.64,0.93 9.16,2.79 12.05,2.91 16.66,0.75 31.89,-7.59 40.79,-20.24 4.67,-6.63 13.45,-26.03 12.77,-32.44 -4.09,-1.41 -6.63,0.49 -11.24,-1.69 -13.97,-6.61 -7.68,-21.82 -13.72,-22.21 -3.66,-0.24 -2.06,0.39 -2.7,1.03l4.18 0.43c1.81,11.44 2.44,24.42 22.23,23.11 0.08,4.19 -8.36,24.68 -12.74,30.59 -4.53,6.12 -8.59,9.59 -14.85,13.72 -15.43,10.19 -30.1,4.18 -35.32,4.14z"/>
   <path class="fil3" d="M242.4 133.79c2.89,-1.98 6.46,-3.93 10.3,-3.19l1.86 0.71c5.93,-0.36 9.49,9.1 8.94,16.51 -0.58,7.83 -4.97,14.3 -10.24,16.72 -2.26,1.33 -5.71,1.98 -8.87,1.11 -3.18,-0.88 -4.74,-2.75 -6.81,-4.82 -1.03,0.5 -1.94,-1.82 -0.35,1.97 1.36,3.23 20.16,12.89 27.4,-11.24 2.03,-6.76 0.54,-14.49 -4.46,-19.7 -4.49,-4.68 -15.14,-2.45 -17.61,-0.27 -3.53,3.1 -0.23,2.14 -0.17,2.21z"/>
   <path class="fil3" d="M190.07 131.3c3,-1.32 6.25,-4.92 11.93,-4.59 5.04,0.29 8.65,3.24 10.75,5.94 5.95,7.66 2.86,17.76 -1.52,24.64 0.39,0.49 0.4,1.68 2.15,-0.69 3.5,-4.75 4.83,-12.64 3.37,-18.45 -0.89,-3.54 -1.28,-4.04 -3.02,-6.47 -5.28,-7.38 -15.58,-8.54 -22.44,-2.48 -2.42,2.14 -1.85,1.57 -1.23,2.09z"/>
   <path class="fil3" d="M450.04 291.89c4.97,0.72 5.68,0.03 9.39,2.85 0.76,0.57 2.46,2.09 3.8,1.92 8.44,-1.07 -14.89,-16.1 -13.19,-4.76z"/>
   <path class="fil3" d="M448.7 310.63c7.9,-4 9.2,10.92 3.31,12.55 -8.62,2.39 -8.82,-9.77 -3.31,-12.55zm-5.12 8.3c0.93,8.56 14.45,9.34 13.41,-4.12 -0.7,-9.08 -14.78,-8.42 -13.41,4.12z"/>
   <path class="fil3" d="M395.35 303.58c-2.27,0.37 -2.85,1.16 -3.89,3.64 -5.5,13.16 12.47,16.56 12.74,2.41 0.1,-4.91 -2.76,-6.95 -7.45,-7.07 1.66,2.3 6.11,1.25 5.99,8.22 -0.09,5.19 -3.16,6.65 -8.32,5.9 -3.41,-1.79 -3.8,-10.44 2.33,-12.32 -1.05,-1.29 1.4,-2.58 -1.41,-0.77z"/>
   <path class="fil3" d="M249.22 146.07c4.42,4.46 0.66,10.49 -2.81,9.55 -3.68,-1 -2.43,-9.06 2.81,-9.55zm0.68 10.92c1.81,-1.88 2.92,-4.65 2.87,-8.29 -2.15,-5.64 -6.96,-5.33 -9.18,-0.38 -2.36,5.25 0.24,10.96 6.32,8.67z"/>
   <path class="fil3" d="M204.9 152.79c-1.18,-1.9 -3.59,-1.51 -2.56,-6.12 0.6,-2.69 2.01,-4.48 4.31,-5.15 1.44,0.82 1.72,1.38 2.83,2.46 0.53,1.12 0.21,8.15 -4.57,8.8zm5.4 -2.39c4.18,-7.91 -5.08,-14.49 -8.6,-6.12 -3.5,8.33 4.57,13.76 8.6,6.12z"/>
   <path class="fil3" d="M204.05 369.09l-0.21 1.7c0.4,0.63 0.21,0.55 0.38,1.04 3.76,0.23 5.88,-3.67 12.3,-4.42 -0.43,-2.01 -1.66,-2.83 -3.5,-4.09 -1.61,-1.1 -2.56,-2.18 -4.36,-3.05l-0.11 0.79 4.97 4.53c-1.41,1.02 -3.14,1.5 -4.41,2.35 -1.25,0.83 -2.66,2.47 -5.06,1.15z"/>
   <path class="fil3" d="M160.21 391.3c0.83,-1.35 1.97,-2.19 3.12,-3.13l-0.44 -0.95 -10.94 -1.08c-0.54,0.59 -2.61,0.2 0.96,1.09l8.03 1.42c-0.2,0.21 -0.96,0.91 -1.1,1.32 -0.81,2.29 -0.69,0.68 0.37,1.33z"/>
   <path class="fil4" d="M128.1 234.48l7.51 35.26c7.7,35.6 14.72,79.04 14.77,115.08l1.56 1.31 10.94 1.08 0.44 0.95c10.17,1.27 16.08,0.9 23.74,-4.29 1.52,-1.03 2.55,-1.71 4.12,-2.87l8.38 -6.24c1.72,-1.15 3.4,-1.76 4.64,-2.95 -0.17,-0.49 0.02,-0.41 -0.38,-1.04 -2.72,-1.23 -6.33,-5.21 -8.45,-6.78 -2.13,-1.57 -13.25,-10.95 -13.51,-13 0.65,-3.92 1.96,-4.31 3.57,-6.43 4.56,-0.21 4.58,0.58 10.23,5.14l8.34 6.67c1.51,-1.41 0.55,-5 0.37,-8.32 -0.16,-2.86 -0.22,-5.22 -0.48,-8.15 -0.45,-5.01 -0.84,-10.21 -1.35,-15.43 -1.69,-17.61 -9.51,-71.76 -14.24,-87.12 -1.09,1.98 -1.33,6.73 -3.13,9.35 -5.66,8.23 -20.41,8.72 -29,6.7 -7.15,-1.68 -17.86,-8.57 -20.15,-11.42 -1.23,-1.52 -0.75,-1.86 -2.53,-3.32 -4.59,-3.76 -2.08,-3.16 -5.74,-6.53l0.33 2.33z"/>
   <path class="fil4" d="M448.88 643.64l-1.58 0.71 0.19 3.18 3.15 24.52c6.96,2.48 31.2,-2.17 32.59,2.86 0.24,0.88 0.18,1.82 0.25,2.73 0.07,0.95 0.02,1.92 0.41,2.59 0.88,1.47 0.49,0.91 0.95,-0.59l-6.88 -94.72c-7.79,0.56 -16.89,-1.02 -23.58,-0.13 -0.36,10.75 0.04,51.26 -2.7,58.5l-2.8 0.38z"/>
   <path class="fil4" d="M211.2 645.2c3.01,4.43 1.34,8.42 5.86,12.63 1.25,1.17 2.86,3.23 4.81,4.47 1.34,0.85 4.91,2.94 6.37,2.99 -0.14,-5.45 1.74,-6.56 2.56,-11.08 1.21,-3 1.19,-11.13 1.72,-15.47 -1.48,-1.2 -0.97,-0.69 -0.98,-3.09l1 -10.3c0.64,-4.01 1.55,-9.55 1.54,-13.47 -0.21,-2.63 -0.11,-1.31 -0.8,-1.88 -0.35,4.69 -5.09,17.2 -6.79,22.09 -4.28,12.3 -1.44,11.61 -15.28,13.11z"/>
   <path class="fil4" d="M166.15 434.36c-2.93,1.13 -8.88,5.3 -11.83,7.19 -3.21,2.06 -8.6,5.45 -10.12,8.3 0.37,2.98 -0.91,1.48 1.72,1.47 1.39,-2 18.95,-11.98 22.9,-14.5l58.58 -36.48c5.78,-3.65 8.23,-3.14 16.14,-3.16 -2.63,-2.28 -10.02,-1.74 -12.75,-0.5 -2.85,1.29 -6.78,4.14 -9.12,5.45 -8.85,4.96 -18.52,11.52 -27.09,16.69l-17.9 11.25c-4.08,2.3 -5.09,3.92 -10.53,4.28z"/>
   <path class="fil4" d="M254.39 132.64c1.91,4.08 0.41,9.86 0.82,14.29l-1.04 5.19 -0.92 11.43 0.01 1c5.27,-2.42 9.66,-8.9 10.24,-16.72 0.55,-7.42 -3.01,-16.87 -8.94,-16.51 -1.12,0.2 -0.58,0.94 -0.81,-0.17l0.64 1.5z"/>
   <path class="fil4" d="M395.37 645.14c0.67,3.16 0.95,9.39 0.3,12.61l1.26 0.4 5.5 -0.3c0.9,-2.77 0.48,-7.64 0.32,-10.97 -1.24,-1.57 -0.91,-2.9 -0.23,-4.41l-5.8 -1.12c-2.49,0.12 -0.91,-0.12 -1.78,0.66l0.43 3.13z"/>
   <path class="fil5" d="M426.97 381.43l-4.26 0.25c-11.63,0.53 -26.36,14.6 -32.33,23.61 -8.3,12.54 -8.57,16.19 -13.27,28.75 -1.54,4.12 -3.47,6.89 -4.83,10.27 0.72,0.73 -0.41,-0.72 -0.16,1.28 0.43,3.42 6.57,4.54 9.37,5.9 5.3,2.59 16.8,8.42 22.86,8.06 0.87,-5 -0.19,-21.58 0.23,-28.68 0.26,-4.52 -0.28,-5.01 3.31,-5.35 2.25,19.31 -1.2,42.71 1.11,61.95 4.29,2.29 6.31,1.45 10.84,4.9 4.61,3.5 3.35,2.8 7.55,8.51 -0.06,-2.06 -0.58,-1.61 1.42,-1.49 -0.61,-1.05 0.71,-0.81 -0.58,-0.84 13.47,0 29.95,-0.69 39.92,-9.06 0.09,-0.08 0.24,-0.18 0.33,-0.26l0.91 -0.83c3.22,-3.27 3.71,-2.49 5.93,-5.16l3.19 -3.83c0.07,-0.1 0.15,-0.25 0.22,-0.36l0.62 -1.14c0.07,-0.12 0.14,-0.27 0.21,-0.38 1.77,-3.09 3.36,-4.29 3.4,-8.72 -5.64,-1.81 -3.83,-12.72 -2.95,-19.27 0.51,-3.76 1.06,-7.41 1.52,-11 0.45,-3.55 1.31,-7.03 1.56,-10.25 2.56,0.39 3.23,0.19 3.58,6.68 0.6,11.07 -0.77,16.25 -0.61,21.38 0.31,10.51 -5.32,10.58 10.04,13.93 6.36,1.39 7.28,0.62 12.6,1.07 4.03,0.34 9.15,0.23 12.7,-0.46 1.15,-0.23 9.65,-2.67 10.65,-3.26l0.15 3.79c2.32,-16.68 -1.03,-29.32 -3.35,-45.11 -0.57,-0.66 -5,-13.5 -6.57,-16.53 -3.4,-6.55 -5.77,-9.71 -9.42,-14.53 -2.05,-2.7 -9.55,-8.83 -12.82,-11.08 -4.76,-3.26 -9.63,-6.14 -16.19,-7.73 -0.35,2.36 -0.55,1.15 -1.81,5.58 -0.9,3.17 -6.33,11.99 -7.95,13.08 -7.1,4.76 -2.88,4.11 -7.38,6.61 -7.97,4.43 -19.51,7.29 -28.12,2.55l-4.17 -2.87c-4.06,-3.29 -9.25,-12.9 -7.46,-19.97z"/>
   <path class="fil5" d="M186.35 223.35l0.05 -4.74c-2.57,-2.38 -14.58,-5.49 -23.53,-15.1 -1.62,-1.74 -7.19,-7.61 -8.79,-8.15 -0.77,7.05 9.09,15.98 11.97,18.41 4.69,3.96 12.36,8.73 20.31,9.58z"/>
   <path class="fil5" d="M402.75 646.88c9.23,4.48 34.95,4.99 44.74,0.65l-0.19 -3.18c-8.24,3.41 -35.5,0.98 -44.78,-1.88 -0.68,1.51 -1.01,2.83 0.23,4.41z"/>
   <path class="fil5" d="M429.36 381.26c0.29,2.28 0.69,4.43 1.98,5.55 3.55,0.34 3.44,2.07 10.29,0.93 7.96,-1.32 10.83,-3.44 16.21,-8.33 1.82,-1.65 0.73,-1.62 3.08,-3.34 1.93,-1.41 2.08,-0.99 2.5,-3.89 -5.28,0.45 -1.68,3.81 -14.9,7.12 -3.15,0.79 -5.87,1.17 -9.16,1.45 -2.53,0.21 -7.84,0.57 -9.99,0.51z"/>
   <path class="fil5" d="M283.12 442.66c2.05,-1.57 3.79,-4.39 6.48,-6.35 3.93,-2.86 3.95,-2.91 4.06,-8.88 1.64,-1.39 4.35,-2.78 4.92,-4.83l-0.08 -2.52c-1.92,5.14 -5.82,7.31 -12.17,9.29 -10.26,3.2 -8.88,2.07 -16.69,3.25l-2.06 0.6c0.15,0.12 0.34,0.25 0.49,0.32l1.56 0.72c0.37,0.1 1.33,0.18 1.73,0.19 7.38,0.2 18.84,-4.88 21.5,-5.54 -0.75,7.48 -7.58,8.58 -14.9,10.21 -3.25,0.72 -6.84,2.05 -10.11,2.15 -4.36,0.12 -6.62,-2.22 -10.01,-2.26 3.12,8.18 19.07,4.06 24.62,2.27 0.75,0.71 0.6,-1.14 0.67,1.37z"/>
   <path class="fil5" d="M229.87 172.64c3.27,7.6 -4.19,4.9 -5.77,7.67 -3.26,5.72 16.33,5.71 10.78,-8.5 -1.27,-3.26 -2.35,-3.83 -4.14,-6.36 -2.85,-4.01 -0.92,-4.97 -3.09,-7.37 -7.03,2.02 0.8,11.24 2.23,14.57z"/>
   <path class="fil5" d="M235.28 393.04c5.47,0.93 7.12,-0.08 11.81,-0.33 -1.37,-1.37 -3.9,-0.99 -5.1,-1.37 -1.94,-0.61 -0.14,0.07 -1.68,-1.09l-7.98 -6.63c-2.84,-2.43 -11.88,-8.8 -15.02,-7.36 -0.37,3.03 1.43,3.66 3.44,5.01l9.84 7.63c1.35,1.51 0.37,0.85 1.99,2.06 1.46,1.08 1.28,0.44 2.71,2.08z"/>
   <path class="fil5" d="M415.85 329.43c3.34,-3.26 3.09,-1.98 6.77,-3.69 -0.39,-6.61 -11.57,-2.48 -12.48,2.62 -1.15,6.47 4.08,10.79 9.82,10.86 -0.7,-4.72 -3.58,-5.48 -4.11,-9.78z"/>
   <path class="fil5" d="M395.37 645.14l-0.43 -3.13c0.87,-0.78 -0.72,-0.54 1.78,-0.66l0 -0.05 -2.29 -0.33c-2.7,0.08 -4.74,1.17 -8.08,1.3 -3.05,0.12 -6.34,0.07 -9.42,0.08 -6.72,0.01 -11.86,-0.56 -18.38,-1.45 -0.08,2.81 1.54,2.14 7.27,3.57 14.47,3.63 19.96,-0.92 29.55,0.66z"/>
   <path class="fil5" d="M378.37 508.73c0.56,0.85 1.69,1.37 2.74,3.16 0.91,1.56 1.31,3.15 1.83,5.21 1.38,2.93 2.33,4.86 4.28,6.74 2.02,1.96 3.28,3.48 5.61,5.45 3.59,3.04 10.17,6.43 15.89,4.75 1.16,-2.56 0.46,-0.54 -0.3,-1.34 -1.05,0 -2.99,0.11 -3.94,-0.08 -1.45,-0.31 -0.26,-0.02 -1.18,-0.46l-1.08 -0.64c-2.7,-1.26 -3.35,-0.9 -6.16,-2.53 -2.31,-1.34 -7.81,-5.86 -7.99,-8.04 -1.47,-3.42 -2.3,-2.76 -3.85,-5.18 -2.03,-3.16 0.07,-4.79 -1.17,-7.55l-0.05 3.15c-0.18,-0.16 -0.38,-0.34 -0.53,-0.49l-3.38 -3.38c-0.13,-0.1 -0.58,-0.41 -0.69,-0.51 -0.07,-0.06 -0.24,-0.19 -0.29,-0.25 0,0 -1.3,-1.26 -0.24,-0.5 1.19,0.85 0.52,0.82 0.51,2.49z"/>
   <path class="fil5" d="M256.22 447.16c4.18,4.54 15.44,1.94 22.06,2.55 2,-2.52 4.08,-3.48 4.84,-7.06 -3.54,3.05 -0.24,4.06 -13.5,3.86l-11.37 -1.2c-1.62,0.48 -0.84,0.52 -1.22,0.87 -0.1,0.1 -0.16,1.53 -0.55,0.64 -0.04,-0.1 -0.17,0.24 -0.27,0.34z"/>
   <path class="fil5" d="M130.27 135.24c0.44,3.98 5.22,2.6 6.34,11.09 0.03,0.22 0.3,2.49 0.32,2.53 0.57,1.68 0.1,1.15 1.49,2.02 5.98,-2.6 -1.48,-20.24 -8.15,-15.64z"/>
   <path class="fil5" d="M497.06 338.06c2.88,-0.82 1.06,-0.11 2.91,-2.86 1.98,-2.94 6.23,-5.16 7.25,-8.44 -4.21,-0.71 -4.11,1.47 -7.39,3.67 -1.68,1.13 -2.06,0.91 -3,2.9 -1.93,4.13 0.22,4.7 0.23,4.72z"/>
   <path class="fil5" d="M224.77 395.2l0.58 -0.14c0.4,-2.41 -0.72,-2.24 -2.6,-3.61 -1.6,-1.17 -1.78,-1.58 -3.76,-0.74 0.32,2.64 3.03,4.67 5.79,4.5z"/>
   <path class="fil6" d="M39.84 540.68c2,0.4 5.31,1.74 8.07,2.4 3.1,0.74 6.13,1.27 8.98,2.31 4.02,-0.01 9.94,1.55 14.06,2.06 5.07,0.64 10.02,1.26 15.08,1.98 7.66,1.09 23.3,3.16 30.35,2.78l15.69 0.53 -0.16 4.13c0.91,-1.47 0.92,-2.7 1.25,-4.52 6.1,0.46 26.82,1.39 31.11,-0.4l0.15 4.2c1.2,-2.08 1.52,-19.59 1.83,-23.78 -17.55,2.24 -40.21,1.37 -58.04,-0.19 -10.11,-0.88 -26.96,-3.51 -36.1,-8.2 -3.16,-1.62 -7.24,-4.61 -9.49,-5.45 -3.98,-0.19 -8.26,-0.19 -12.26,0.08 -4.04,0.27 -8.65,1.46 -11.04,-2 1.86,-3.31 4.56,-2.71 8.69,-3.22 2.32,-0.29 8.12,-0.72 10.11,0.05 -0.35,-2.08 -3.77,-6.51 -5.07,-10.03 -1.68,-4.55 -2.31,-7.22 -2.8,-11.99l-0.3 -6.29c-4.03,-0.36 -6.77,-1.54 -9.81,-3.02 0.1,-3.49 0.87,-4.74 1.29,-7.56 2.49,-16.38 2.17,-36.23 5.53,-50.87l0.55 -3.28c-2.1,-1.87 -2.08,-0.55 -6.05,-5.09 -4.85,-5.54 -8.01,-15.58 -8.8,-23.17 -2.7,-26.03 3.97,-68.81 10.61,-94.94 1.36,-5.36 3.79,-11.39 4.8,-16.39 -2.06,1.01 -0.45,-0.2 -4.09,0.03l-14.46 1.87c-13.39,2.29 -21.09,4.67 -26.68,16.8 -2.54,5.51 -3.15,13.24 -2.72,19.45 1.81,26.41 5.34,53.35 7.37,79.42 1.03,13.23 2,26.53 3.56,39.58 1.98,16.54 4.62,68.03 8.09,79.41 1.63,5.33 1.93,6.6 4.79,11.03l5.88 6.48c0.79,0.68 0.31,0.24 1.04,0.74 6.01,4.13 8.07,3.3 8.98,5.07z"/>
   <path class="fil6" d="M532.21 471.42c-2.44,3.2 -3.02,2.09 -5.73,4.32 2.18,5.31 2.49,16.89 2.92,23.4 0.29,4.33 0.49,7.92 -0.1,12.25 -0.62,4.56 -2.57,5.25 -6.04,6.99 0.89,10.62 -1.18,22.18 -3.43,31.52l-0.89 2.33c3.52,0.28 6.98,0.34 10.56,0.55 5.56,0.32 7.81,0.26 9.78,1.76 0.5,0.33 1.62,0.25 0.73,2.08 -0.81,1.66 0.9,0.66 -2.02,1.09 -1.15,0.17 -5.03,-0.05 -6.52,-0.04 -16.56,0.13 -12.13,-3.73 -22.02,2.31 -16.26,9.93 -33.98,9.28 -52.57,9.65 -0.54,1.8 1.01,0.52 -1.17,1.72 -0.68,0.37 0.17,0.32 -1.17,-0.11 0.09,4.06 0.97,9.79 -0.16,13.53 6.69,-0.88 15.79,0.7 23.58,0.13l16.38 -0.68c2.29,-1.38 10.83,-1.05 13.93,-1.17 4.98,-0.19 9.82,-1.25 14.46,-1.9l1.16 2.22 0.02 -1.84c5.49,0.18 11.62,-2.76 16.01,-3.72l3.61 -1.86c3.61,-2.27 6.03,-6.37 7.83,-10.35 2.64,-5.8 3.58,-14.06 3.94,-20.99l0.34 -47.82c-0.62,-15 3.27,-50.31 -7.68,-61.36 -5.08,-5.13 -11.5,-8.42 -19.1,-9.13 2.32,15.79 5.68,28.42 3.35,45.11z"/>
   <path class="fil6" d="M279.69 389.53l-0.78 3.45c-2.63,0.84 -6.34,0.5 -9.69,0.63 5.93,1.45 10.25,-1.49 14,1.18l16.8 -0.36c-0.38,-4.2 -3.18,-5.19 -7.68,-5.35 -3.62,-0.14 -9.23,-0.18 -12.65,0.44z"/>
   <path class="fil7" d="M152.34 407.7c0.81,0.99 0.42,-1.01 0.57,1.61 0.07,1.24 -0.2,1.41 -0.39,2.44l-0.24 13.88c0.45,1.61 0.1,1.01 1.34,1.65 -0.16,-3.55 0.59,-5.96 0.66,-6.14l0.5 -0.94c0.18,-5.71 -0.49,-9.98 1.2,-15.51 0.96,-3.13 3.02,-11.06 4.22,-13.39 -1.06,-0.65 -1.18,0.96 -0.37,-1.33 0.14,-0.41 0.9,-1.11 1.1,-1.32l-8.03 -1.42c-3.58,-0.89 -1.51,-0.5 -0.96,-1.09l-1.56 -1.31c-0.05,-36.05 -7.08,-79.48 -14.77,-115.08l-7.51 -35.26c-0.17,0.13 -0.27,0.22 -0.32,0.54 -0.08,0.65 -0.99,0.4 -0.29,4.18 1.56,8.48 4.73,19.44 6.94,31.09 5.72,30.23 8.74,42.03 12.09,74.24 0.66,6.36 1.6,13.23 1.9,19.88 0.29,6.49 0.25,15.01 1.08,20.86 -11.55,-1.73 -41.88,-6.07 -49.93,-10.36l2.4 -60.65c0.2,-4.8 0.91,-17.22 -2.04,-19.8 -4.26,-0.13 -3.26,2.96 -3.52,6.96l-2.26 51.56c-0.02,5.26 -0.04,15.57 -0.86,20.48 -1.73,-0.29 -3.36,-1.3 -4.9,-0.31 -8.85,5.66 28.01,12.52 28.37,12.61 6.8,1.66 12.87,2.85 19.94,4 6.83,1.11 14.75,1.29 21.45,2.61 0.1,3.11 -5.19,10.1 -5.8,15.32z"/>
   <path class="fil7" d="M394.43 640.98l2.29 0.33 2.95 0.14 -4.53 -54.27c-1.51,-11.41 -4.62,-45.58 5.54,-50.24 0.84,-0.38 11.11,-1.56 12.4,-1.48 13.71,0.84 9.07,10.07 34.73,0.31 10.25,-3.89 21.05,-3.35 34.77,-9.04l10.16 -4.74c-0.56,-2.66 -0.76,-2.14 -2.33,-3.58 -2.18,0.34 -9.43,5.03 -17.41,6.74 -9.52,2.04 -21.21,2.87 -29.6,7.17 -12.74,6.54 -20.36,0.43 -28.14,-2.02 -4.27,0.4 -2.82,2.51 -6.54,3.74 -5.73,1.68 -12.3,-1.72 -15.89,-4.75 -2.33,-1.97 -3.59,-3.49 -5.61,-5.45 -1.94,-1.89 -2.9,-3.81 -4.28,-6.74 -1.33,-2.6 -0.04,-0.2 -1.63,-1.49 0.2,6.4 2.97,7.9 5.83,11.21 5.92,6.86 3.58,4.1 8.73,7.3 -6.22,6.82 -7.28,11.73 -7.65,22.14 -0.43,12.12 1.09,29.99 2.3,42.59l2.76 28.01c0.34,2.42 1.38,11.68 1.15,14.12z"/>
   <path class="fil7" d="M232.21 369.24c3.44,1.23 8.21,4.93 10.55,6.91 1.87,1.58 3.04,2.86 4.4,4.34 1.66,1.8 2.7,3.55 4.6,5.01 2.15,1.86 7.07,4.57 10.85,4.6l13.43 -0.19c2.05,-0.5 0.65,0.57 1.84,-0.99 -0.95,-0.7 -7.84,-13.04 -8.92,-15.05 -7.52,-14.07 -11.16,-40.94 -16.1,-57.95 -5.22,-17.97 -11.9,-47.91 -22.74,-62.99 -1.71,-2.38 -3.97,-5.83 -5.96,-6.75 -0.71,1.04 -1.18,-0.55 0.25,1.83 0.06,0.1 6.14,7.79 8.78,12.23 4.61,7.78 10.25,26.84 12.95,36.03 1.85,6.31 3.25,12.65 5.28,19.16 4.04,12.95 6.33,26.45 9.59,39.45 5.67,22.62 12.95,27.84 14.74,34.35 -4.1,-0.11 -11.27,0.42 -14.86,-0.19 -6.7,-1.15 -5.68,-6.36 -6.31,-7.78 -1.7,-3.83 -6.12,-3.15 -9.34,-5.28l-8.39 -5.72c-0.27,-3.29 0.79,-8.46 0.93,-12.24l-1.58 -34.99c-0.67,-4.97 -4.46,-38.31 -7.48,-42.26 -5.1,0.58 -2.75,5.87 -2.03,9.77 2.17,11.7 5.31,44.13 5.74,55.8 0.19,5.14 1.79,19.89 -0.2,22.91z"/>
   <path class="fil7" d="M48.07 280.81c-1.02,5 -3.44,11.03 -4.8,16.39 -6.64,26.13 -13.31,68.91 -10.61,94.94 0.79,7.59 3.95,17.64 8.8,23.17 3.97,4.54 3.95,3.22 6.05,5.09l-0.55 3.28 0.03 4.11c1.2,-0.1 20.87,10.44 31.23,11.36 1.98,-1.27 20.93,2.63 25.92,3.21 4.49,0.52 9.41,0.89 14.02,1.09 4.7,0.21 10.42,1.14 12.25,-1.46 -0.55,-1.77 -1.4,-1.37 -2.83,-2.5 3.5,0.14 10.71,0.66 13.53,-0.55 -17.17,-0.58 -24.49,-0.01 -42.61,-2.7 -12.33,-1.83 -23.73,-4.42 -35.6,-9.23 -12.72,-5.16 -20.24,-8.31 -25.43,-19.91 -4.78,-10.68 -5.96,-25.92 -4.63,-39.13 2.65,-26.33 5.92,-53.96 13.14,-77.37 3.22,-10.43 12.17,-30.85 19.36,-37.8 2.06,-1.99 3.5,-3.49 5.58,-5.46 1.18,-1.11 1.66,-1.93 2.79,-3 1.07,-1.01 1.8,-1.34 2.88,-2.35 1.65,-1.55 1.69,-1.33 3.32,-2.58 3.58,-2.75 1.46,-2.6 1.44,-2.62 -2.49,0.75 -13.81,10.67 -15.59,12.96 -12.87,16.55 -9.56,14.65 -17.68,31.05z"/>
   <path class="fil7" d="M448.88 643.64l2.8 -0.38c2.74,-7.24 2.34,-47.74 2.7,-58.5 1.13,-3.74 0.25,-9.47 0.16,-13.53l-0.15 -1.62 2.49 0.02c18.59,-0.37 36.31,0.29 52.57,-9.65 9.89,-6.04 5.46,-2.19 22.02,-2.31 1.49,-0.01 5.37,0.21 6.52,0.04 2.92,-0.43 1.21,0.57 2.02,-1.09 0.89,-1.83 -0.23,-1.75 -0.73,-2.08 -2.07,2.15 0.14,-0.65 -0.41,0.91 -1.37,3.89 1.09,-0.97 -0.4,1.33 -5.03,0.19 -18.76,0.11 -22.15,-1.66 0.78,-2.06 1.13,-0.74 1.71,-3.43 -2.01,-0.42 -0.35,0.13 -2.31,-0.84 -2.39,1.34 -2.26,2.62 -5.19,4.31 -6.9,3.95 -12.99,5.72 -20.97,7.61 -7.28,1.72 -28.63,3.86 -35.65,1.7 -1.95,-2.87 -0.15,-4.32 -3.88,-5.1 -0.82,4.37 -0.3,21.24 2.43,26.26 0.52,0.94 0.39,-0.03 0.65,2.12 0.09,0.72 0.12,2.13 0.16,2.92l-0.91 33.83c-0.18,3.26 -0.41,8.49 -0.78,11.2 -0.69,5.03 0.36,6.13 -3.98,7.59l1.28 0.36z"/>
   <path class="fil7" d="M493.82 522.65c0.42,0.59 0.25,1.16 2.44,1.9 7.9,2.67 23.4,-2.26 25.93,-2.38 0.21,5.84 -0.34,15.82 -1.48,21.59 -0.28,1.41 -0.57,2.09 -0.86,3.29 -0,0.01 -0.27,1.28 -0.28,1.34l0.26 1.52c2.26,-9.34 4.32,-20.9 3.43,-31.52 -8.68,4.84 -17.91,6.42 -29.44,4.26z"/>
   <path class="fil8" d="M85.03 233.38l-2.16 1.09 -0.61 0.3 -0.92 2.03c0.02,0.02 2.14,-0.13 -1.44,2.62 -1.63,1.25 -1.68,1.03 -3.32,2.58 -1.08,1.01 -1.81,1.34 -2.88,2.35 -1.13,1.07 -1.61,1.89 -2.79,3 -2.08,1.97 -3.52,3.48 -5.58,5.46 -7.2,6.95 -16.15,27.37 -19.36,37.8 -7.22,23.4 -10.49,51.04 -13.14,77.37 -1.33,13.21 -0.15,28.45 4.63,39.13 5.2,11.6 12.71,14.75 25.43,19.91 11.87,4.81 23.27,7.41 35.6,9.23 18.12,2.69 25.44,2.12 42.61,2.7l10.9 -0.93c-0.44,-5.49 -2.04,-8.97 -1.92,-15.3 0.12,-6.15 1.54,-9.89 2.27,-15.02 0.6,-5.22 5.9,-12.21 5.8,-15.32 -6.7,-1.32 -14.62,-1.5 -21.45,-2.61 -7.06,-1.15 -13.14,-2.34 -19.94,-4 -0.35,-0.09 -37.22,-6.95 -28.37,-12.61 1.55,-0.99 3.18,0.02 4.9,0.31 0.82,-4.91 0.84,-15.22 0.86,-20.48l2.26 -51.56c0.25,-4 -0.74,-7.09 3.52,-6.96 2.95,2.58 2.23,15.01 2.04,19.8l-2.4 60.65c8.05,4.29 38.38,8.63 49.93,10.36 -0.83,-5.85 -0.79,-14.37 -1.08,-20.86 -0.3,-6.65 -1.24,-13.52 -1.9,-19.88 -3.35,-32.21 -6.36,-44.01 -12.09,-74.24 -2.21,-11.65 -5.37,-22.6 -6.94,-31.09 -0.7,-3.79 0.21,-3.53 0.29,-4.18 0.04,-0.33 0.15,-0.41 0.32,-0.54l-0.33 -2.33c-1,-3.08 -2.82,-12 -2.77,-13.87 -13.24,1.11 -29.93,10.16 -39.97,15.09z"/>
   <path class="fil8" d="M396.72 641.3l0 0.05 5.8 1.12c9.28,2.86 36.53,5.29 44.78,1.88l1.58 -0.71 -1.28 -0.36c4.34,-1.46 3.29,-2.56 3.98,-7.59 0.37,-2.71 0.6,-7.94 0.78,-11.2l0.91 -33.83c-0.04,-0.79 -0.07,-2.2 -0.16,-2.92 -0.26,-2.15 -0.13,-1.17 -0.65,-2.12 -2.74,-5.02 -3.25,-21.89 -2.43,-26.26 3.74,0.78 1.93,2.23 3.88,5.1 7.02,2.16 28.37,0.02 35.65,-1.7 7.98,-1.89 14.08,-3.66 20.97,-7.61 2.94,-1.69 2.8,-2.97 5.19,-4.31 1.95,0.97 0.3,0.42 2.31,0.84 -0.58,2.69 -0.93,1.37 -1.71,3.43 3.38,1.77 17.11,1.85 22.15,1.66 1.49,-2.3 -0.97,2.56 0.4,-1.33 0.55,-1.55 -1.66,1.25 0.41,-0.91 -1.97,-1.49 -4.22,-1.43 -9.78,-1.76 -3.58,-0.21 -7.04,-0.27 -10.56,-0.55l0.89 -2.33 -0.26 -1.52c0,-0.06 0.27,-1.33 0.28,-1.34 0.3,-1.2 0.58,-1.89 0.86,-3.29 1.14,-5.77 1.68,-15.75 1.48,-21.59 -2.53,0.13 -18.03,5.05 -25.93,2.38 -2.19,-0.74 -2.01,-1.31 -2.44,-1.9l-0.6 -0.82 -0.47 0.17 -10.16 4.74c-13.73,5.69 -24.53,5.15 -34.77,9.04 -25.66,9.75 -21.03,0.53 -34.73,-0.31 -1.28,-0.08 -11.56,1.09 -12.4,1.48 -10.16,4.65 -7.05,38.83 -5.54,50.24l4.53 54.27 -2.95 -0.14z"/>
   <path class="fil8" d="M188.32 237.37c4.73,15.36 12.55,69.51 14.24,87.12 0.5,5.22 0.9,10.42 1.35,15.43 0.26,2.93 0.32,5.29 0.48,8.15 0.19,3.32 1.15,6.91 -0.37,8.32l4.63 3.88c1.81,0.87 2.76,1.95 4.36,3.05 1.85,1.26 3.07,2.08 3.5,4.09 5.69,0.73 9.94,0.71 15.69,1.83 1.99,-3.02 0.39,-17.77 0.2,-22.91 -0.43,-11.67 -3.57,-44.1 -5.74,-55.8 -0.72,-3.89 -3.07,-9.19 2.03,-9.77 3.03,3.95 6.82,37.29 7.48,42.26l1.58 34.99c-0.14,3.78 -1.2,8.95 -0.93,12.24l8.39 5.72c3.22,2.13 7.64,1.45 9.34,5.28 0.63,1.41 -0.39,6.63 6.31,7.78 3.59,0.62 10.76,0.08 14.86,0.19 -1.79,-6.5 -9.07,-11.73 -14.74,-34.35 -3.26,-13 -5.54,-26.5 -9.59,-39.45 -2.03,-6.51 -3.43,-12.86 -5.28,-19.16 -2.7,-9.19 -8.34,-28.25 -12.95,-36.03 -2.63,-4.44 -8.72,-12.13 -8.78,-12.23 -1.43,-2.38 -0.96,-0.79 -0.25,-1.83l0.9 -0.76 -4.08 -3.21c-5.71,-5.34 -22.37,-14.16 -29.17,-17.24l-5.44 -1.42c0.05,5.42 1.03,8.69 1.96,13.82z"/>
   <path class="fil8" d="M358.05 640.86l0.5 0.05c6.52,0.9 11.65,1.46 18.38,1.45 3.07,-0 6.37,0.05 9.42,-0.08 3.34,-0.14 5.38,-1.23 8.08,-1.3 0.22,-2.43 -0.82,-11.69 -1.15,-14.12l-2.76 -28.01c-1.21,-12.6 -2.73,-30.47 -2.3,-42.59 0.37,-10.41 1.44,-15.32 7.65,-22.14 -5.15,-3.2 -2.81,-0.44 -8.73,-7.3 -2.86,-3.32 -5.63,-4.81 -5.83,-11.21 1.59,1.29 0.3,-1.11 1.63,1.49 -0.52,-2.06 -0.92,-3.64 -1.83,-5.21 -1.05,-1.79 -2.18,-2.32 -2.74,-3.16l-1.05 0c-0.33,1.14 -9.9,5.02 -13.52,6.95 -3.88,2.07 -8.57,6.01 -11.21,9.9 -7.85,11.57 -7.64,18.49 -7.78,34.2 -0.18,20.83 0.75,39.06 3.01,59.67 0.59,5.37 1.78,14.42 1.7,19.48l8.52 1.93z"/>
   <path class="fil8" d="M50.25 491.42c-0.24,-3.01 -0.59,-3.27 0.47,-6.22 10.3,-1.23 11.56,0.32 25.5,-4.03 13.21,-4.11 31.61,-15.5 41.8,-25.78 2.3,-2.32 2.89,-0.98 7.93,-7.23 1.45,-1.8 2.25,-2.27 3.64,-3.72 -19.18,-0.82 -19.6,-0.13 -38.96,-3.09 -3.83,-0.59 -8.88,-2.01 -12.4,-2.21 -10.36,-0.91 -30.03,-11.46 -31.23,-11.36l-0.03 -4.11c-3.36,14.64 -3.04,34.49 -5.53,50.87 -0.43,2.82 -1.2,4.07 -1.29,7.56 3.04,1.48 5.78,2.66 9.81,3.02l0.3 6.29z"/>
   <path class="fil8" d="M62.61 518.54l-2.66 -4.04c-1.68,-0.51 0.05,0.83 -1.84,-1.06 -1.99,-0.76 -7.8,-0.33 -10.11,-0.05 -4.12,0.52 -6.83,-0.08 -8.69,3.22 2.39,3.46 7,2.27 11.04,2 4,-0.27 8.28,-0.27 12.26,-0.08z"/>
   <path class="fil9" d="M365.16 283.39c3.54,2.57 2.97,6.48 5.09,10.68 0.84,1.67 1.88,3.24 2.85,4.77 2.2,3.45 3.01,0.88 3.41,4.84 2.15,-0.92 1.43,0.23 1.97,-3.37 0.1,-0.66 0.11,-2.45 0.14,-3.19 0.08,-2.23 0.46,-4.47 0.57,-6.75 0.35,-7.28 0.47,-4.9 5.1,-8.36 5.02,-3.75 11.08,-9.26 14.14,-14.49 0.11,0.13 0.22,0.32 0.28,0.42l0.46 0.87c0.76,2.02 -0.09,6.45 4.9,9.06 6.7,3.51 18.37,0.55 24.95,-2.97 1.65,-0.88 3.75,-1.94 4.94,-2.71 2.01,-1.3 1.63,-1.85 3.95,-3.04 0.53,2.13 -0.39,12.18 12.35,7.74 7.49,-2.61 7.8,-5.24 13.34,-9.04 -0.03,2.07 -0.25,1.68 0.94,3.33 0.91,-0.78 0.23,-1.47 1.39,1.91 1.34,3.93 2.08,6.13 4.3,9.76 12.41,20.36 13.34,5.78 14.84,22.66 0.52,5.84 3.22,8.23 6.07,11.66 4.92,-0.98 6.92,-6.56 15.73,-5.58 5.85,0.65 9.71,5.23 11.56,9.91 4.61,-0.78 10.36,-8.67 12.43,-13.04 5.75,-12.13 5.76,-28.47 -2.49,-38.93 -8.37,-10.62 -11.18,-5.52 -12.14,-12.59 -2.86,-21 -16.07,-37.15 -38.98,-35.42 -11.34,0.85 -6.38,2.05 -13.89,-3.53 -19,-14.09 -38.67,-15.77 -59.82,-2.49l-14.38 10.1c-13.39,11.04 -31.77,23.96 -31.94,42.01 -0.08,8.78 4.14,11.73 9.41,15.15 -0.71,0.85 1.69,0.96 -1.43,0.61z"/>
   <path class="fil9" d="M428.83 499.38c8.32,7.06 33.77,1.26 42.62,-7.77 7.18,-7.33 8.47,-7.01 13.48,-17.44 0.77,-1.6 0.07,-0.69 1.05,-1.85 6.9,1.88 5.39,2.37 16.01,4.44 8.55,1.67 11.63,-0 19.38,-0.2 -3.84,10.66 -6.76,25.91 -17.67,31.5l-5.44 3.94c-1.32,1.12 -1.02,1.23 -2.38,2.25 -2.3,1.72 -3.19,1.82 -5.46,4.16 1.57,1.44 1.77,0.93 2.33,3.58l0.47 -0.17c6.47,-1.62 16.93,-11.86 21.09,-18.33 4.02,-6.27 7.26,-13.24 8.94,-20.83 1.21,-5.43 0.71,-5.84 3.23,-6.91 2.71,-2.23 3.29,-1.12 5.73,-4.32l-0.15 -3.79c-1,0.59 -9.5,3.03 -10.65,3.26 -3.55,0.69 -8.67,0.8 -12.7,0.46 -5.32,-0.45 -6.24,0.32 -12.6,-1.07 -15.36,-3.35 -9.73,-3.42 -10.04,-13.93 -0.15,-5.12 1.22,-10.3 0.61,-21.38 -0.36,-6.5 -1.03,-6.3 -3.58,-6.68 -0.25,3.21 -1.1,6.69 -1.56,10.25 -0.46,3.59 -1.01,7.24 -1.52,11 -0.88,6.55 -2.7,17.46 2.95,19.27 -0.04,4.43 -1.62,5.63 -3.4,8.72 -0.07,0.11 -0.14,0.27 -0.21,0.38l-0.62 1.14c-0.07,0.11 -0.15,0.25 -0.22,0.36l-3.19 3.83c-2.22,2.67 -2.71,1.89 -5.93,5.16l-0.91 0.83c-0.09,0.08 -0.23,0.18 -0.33,0.26 -9.97,8.38 -26.45,9.06 -39.92,9.06 1.29,0.02 -0.03,-0.21 0.58,0.84z"/>
   <path class="fil9" d="M396.93 658.15c-1.77,0.88 -5.1,1.56 -7.46,2.77 -2.19,1.12 -5.04,3 -6.09,4.44 -2.99,4.1 -4.58,8.64 -6.04,14.99 -8.48,1.88 -24.05,1 -32.79,-0.71 -1.47,-0.29 -3.23,-0.7 -4.64,-1.2 -3.07,-1.11 -1.78,-1.7 -4.11,-1.16l-0.39 4.31c13.29,8.72 40.77,3.14 42.91,3.92 1.01,0.37 2.88,2.25 5.06,3.11 9.64,3.81 28.75,2.17 39.55,1.92 7.9,-0.18 21.9,-0.22 27.89,-4.69l0.18 -5.38c-3.26,1.25 -0.74,2.56 -6.67,3.3l-27.72 1.85c-11.28,0.39 -25.56,1.84 -34.54,-3.15 -0.35,-4.52 1.91,-9.06 3.8,-12.3 1.99,-3.41 4.02,-5.6 8.66,-6.4 18.29,-3.14 22.57,5.81 25.13,2.77 2.83,-5.98 -12.12,-7.74 -17.23,-8.69l-5.5 0.3z"/>
   <path class="fil9" d="M372.28 444.31c-0.57,0.23 -0.78,0.29 -1.55,1.35 -1.07,1.47 -0.74,0.87 -1.29,2.74 1.84,3.4 3.69,3.25 4.74,5.42 15.05,9.13 26.59,9.9 29.53,11.56l0.56 22.2c-1.4,-0.08 -4.52,-0.51 -5.92,-0.42 -2.45,0.16 -2.9,1.89 -1.35,3.5 3.19,3.28 14.22,-2.45 24.14,9.15 1.22,1.43 1.91,2.97 1.71,4.97 -6.37,-0.67 -15.28,-6.17 -17.96,-3.22 -3.29,3.63 10.61,8.28 13.03,9.16 7.98,2.89 13.48,-2.39 9.47,-9.82 -4.21,-5.71 -2.95,-5.01 -7.55,-8.51 -4.53,-3.44 -6.55,-2.61 -10.84,-4.9 -2.32,-19.23 1.14,-42.64 -1.11,-61.95 -3.59,0.34 -3.04,0.83 -3.31,5.35 -0.42,7.11 0.64,23.69 -0.23,28.68 -6.06,0.36 -17.57,-5.47 -22.86,-8.06 -2.8,-1.36 -8.94,-2.48 -9.37,-5.9 -0.25,-2 0.87,-0.55 0.16,-1.28z"/>
   <path class="fil9" d="M431.33 386.81c-1.29,-1.11 -1.68,-3.27 -1.98,-5.55 -1.44,-0.3 -1.3,-0.64 -2.39,0.17 -1.78,7.08 3.4,16.68 7.46,19.97l4.17 2.87c8.6,4.74 20.15,1.89 28.12,-2.55 4.5,-2.5 0.28,-1.85 7.38,-6.61 1.62,-1.09 7.05,-9.91 7.95,-13.08 1.26,-4.44 1.45,-3.23 1.81,-5.58 -2.12,-1.47 0.04,-0.75 -2.15,-1.44 -1.29,-0.41 -2.41,-0.13 -3.5,-0.08 -1.19,6.13 -3.38,11.96 -6.74,15.81 -7.86,9.01 -21.03,14.04 -31.13,8.77 -3.62,-1.89 -7.97,-7.47 -9.01,-12.71z"/>
   <path class="fil9" d="M388.07 520.96c0.18,2.18 5.68,6.7 7.99,8.04 2.81,1.64 3.47,1.27 6.16,2.53l1.08 0.64c0.92,0.44 -0.27,0.15 1.18,0.46 0.95,0.2 2.88,0.08 3.94,0.08 0.76,0.8 1.47,-1.23 0.3,1.34 3.72,-1.23 2.26,-3.35 6.54,-3.74 0.48,-0.98 0.73,-1.65 1.8,-2.71 1.26,-1.25 0.76,-0.7 2.5,-1.54 10.74,-5.19 -2.14,-9.97 -6.26,-12.59l-2.07 -1.34c-0.11,-0.07 -0.25,-0.17 -0.36,-0.24 -0.11,-0.07 -0.25,-0.17 -0.36,-0.25 -4.01,-2.77 -4.85,-5.29 -8.51,-5.91 -2.1,1.74 -3.06,3.34 -1.12,5.54 1.69,1.92 9.46,6.48 12.1,8.3 1.65,1.13 1.13,0.22 2.18,2.46 -9.58,0.69 -16.67,-6.06 -20.4,-4.96l-0.56 3.38c1.85,1.24 4.3,2.55 7.08,3.95 4.47,2.25 6.32,1.69 7.44,3.87l-3.8 0.82c-11.38,-0.46 -14.57,-6.58 -16.85,-8.15z"/>
   <path class="fil9" d="M476.87 371.09c1.62,-3.06 1.34,-0.69 4.01,-4.18 1.29,-1.69 2.39,-2.97 3.93,-4.84l7.72 -9.68c-1.01,-2.22 -0.82,-1.1 -3.39,-2.24 -1.98,-0.88 -1.07,-1.05 -2.83,-1.42l-1.19 1.46c-0.65,1.01 -0.12,0.26 -0.8,1.56 -3.84,7.35 -9.89,12.64 -9.17,16.46 0.56,2.98 0.11,1.98 1.72,2.89z"/>
   <path class="fil9" d="M348.95 654.39c0.64,1.72 -1.32,1.23 6.39,1.3 2.27,0.02 4.41,0.22 6.55,0.78 4.19,1.09 8.18,3.3 12.06,1.88 0.17,-3.67 -3.85,-4.62 -6.87,-5.41 -2.71,-0.71 -7.55,-1.72 -10.28,-1.55 -4.98,0.23 -4.68,1.82 -7.85,3.01z"/>
   <path class="fil9" d="M441.84 347.26c-4.54,0.63 -5.58,5.5 -15.33,5.48 -9.7,-0.01 -10.03,-4.6 -15.1,-5.14 -0.43,5.45 8.83,8.47 15.1,8.09 5.25,-0.32 14.53,-2.7 15.33,-8.44z"/>
   <path class="fil9" d="M207.91 195.46c-1.18,-1.66 -5.35,-4 -6.84,-4.95l-2.62 -0.57c0.66,7.87 20.05,14.24 24.65,8.28 -0.87,-0.43 0.11,-0.35 -1.56,-0.35 -0.39,-0 -1.57,0.19 -2.04,0.25 -1.88,0.22 -3.35,0.32 -5.24,0.06 -0.69,-0.1 -7.32,-1.88 -6.34,-2.71z"/>
   <path class="fil9" d="M377.32 508.73l1.05 0c0.02,-1.67 0.69,-1.64 -0.51,-2.49 -1.06,-0.76 0.24,0.5 0.24,0.5 0.06,0.06 0.22,0.18 0.29,0.25 0.11,0.1 0.56,0.41 0.69,0.51l3.38 3.38c0.15,0.15 0.35,0.33 0.53,0.49l0.05 -3.15 -7.15 -5.21c-2.65,-2.27 -1.02,-1.92 -2.06,-0.39 1.45,2.09 2.08,3.76 3.49,6.1z"/>
   <path class="fil10" d="M410.55 346.77c3.38,-0.62 4.06,1.83 6.97,3.36 5.44,2.86 13.5,2.42 18.71,-0.46 3.06,-1.7 2.95,-4.15 6.58,-3.29 0.12,2.35 -0.56,3.44 -1.82,4.54 -0.66,0.57 -2.91,2.16 -4.12,2.84 -2.79,1.56 -6.48,2.62 -10.39,2.79 -7.11,0.29 -17.05,-3.59 -15.92,-9.78zm86.51 -8.71c-0.01,-0.02 -2.16,-0.59 -0.23,-4.72 0.93,-1.99 1.32,-1.77 3,-2.9 3.28,-2.21 3.19,-4.38 7.39,-3.67 -1.02,3.27 -5.28,5.49 -7.25,8.44 -1.85,2.76 -0.03,2.05 -2.91,2.86zm-81.21 -8.62c0.52,4.3 3.41,5.07 4.11,9.78 -5.75,-0.07 -10.97,-4.38 -9.82,-10.86 0.91,-5.1 12.09,-9.23 12.48,-2.62 -3.67,1.72 -3.43,0.43 -6.77,3.69zm27.72 -10.5c-1.37,-12.54 12.72,-13.2 13.41,-4.12 1.04,13.45 -12.48,12.67 -13.41,4.12zm-48.23 -15.36c0.42,-0.93 -0.67,-0.6 1.41,-1.02 4.69,0.12 7.54,2.17 7.45,7.07 -0.28,14.15 -18.24,10.75 -12.74,-2.41 1.04,-2.48 1.61,-3.27 3.89,-3.64zm54.69 -11.69c-1.7,-11.34 21.63,3.69 13.19,4.76 -1.34,0.17 -3.04,-1.34 -3.8,-1.92 -3.72,-2.82 -4.43,-2.12 -9.39,-2.85zm-61.28 1.21c-0.97,-3.27 1.69,-3.93 4.63,-4.96 2.38,-0.83 6.83,-1.96 8.6,0.02 3.33,3.72 -3.17,2.14 -8.8,4.44l-2.86 0.88c-1.91,0 -1.18,-0.21 -1.57,-0.37zm-12.24 10.58c0.41,12.54 -8.65,30.34 6.99,52.4 7.25,10.22 16,15.74 27.78,21.34 4.87,2.32 6.66,1.84 9.96,2.49 3.01,0.59 2.08,-0.56 1.47,1.78l4.26 -0.25c1.09,-0.81 0.94,-0.47 2.39,-0.17 2.15,0.06 7.46,-0.3 9.99,-0.51 3.29,-0.28 6.01,-0.66 9.16,-1.45 13.23,-3.32 9.62,-6.68 14.9,-7.12 -0.42,2.9 -0.57,2.48 -2.5,3.89 -2.35,1.72 -1.26,1.69 -3.08,3.34 -5.38,4.89 -8.25,7.01 -16.21,8.33 -6.85,1.13 -6.74,-0.59 -10.29,-0.93 1.04,5.24 5.38,10.82 9.01,12.71 10.09,5.27 23.27,0.23 31.13,-8.77 3.36,-3.85 5.56,-9.69 6.74,-15.81 -1.36,1 -0.5,0.43 -1.03,-1.03 -0.36,-0.99 -0.36,-1.83 -0.31,-2.82 -1.62,-0.91 -1.17,0.09 -1.72,-2.89 -0.72,-3.82 5.33,-9.11 9.17,-16.46 0.68,-1.3 0.15,-0.55 0.8,-1.56l1.19 -1.46c1.76,0.37 0.85,0.54 2.83,1.42 2.57,1.14 2.37,0.02 3.39,2.24 1.26,-0.59 10.76,3.1 19.89,-6.42 1.5,-1.56 2.2,-1.84 3.42,-3.62 5.79,-8.43 1.29,-14.69 3.28,-18.71 -1.7,-0.95 -1.69,-2.94 -3.86,-5.97 -4.65,-6.48 -13.06,-6.69 -18.98,-2.45 -2.62,1.88 -4.74,5.95 -9.7,-2.1 -3.77,-6.11 -1.98,-7.87 -2.76,-14.59 -1.88,-1.72 -4.88,-3.66 -6.79,-5.04 -2.28,-1.65 -3.6,-3.95 -5.28,-6.37 -2.67,-3.85 -6.38,-10.24 -7.21,-15.93 -1.18,-1.65 -0.97,-1.25 -0.94,-3.33 -5.54,3.8 -5.84,6.43 -13.34,9.04 -12.74,4.44 -11.82,-5.61 -12.35,-7.74 -2.32,1.18 -1.94,1.73 -3.95,3.04 -1.19,0.77 -3.29,1.83 -4.94,2.71 -6.58,3.52 -18.26,6.48 -24.95,2.97 -4.99,-2.61 -4.14,-7.03 -4.9,-9.06l-0.46 -0.87c-0.06,-0.11 -0.17,-0.3 -0.28,-0.42 -3.05,5.23 -9.11,10.75 -14.14,14.49 -4.63,3.45 -4.75,1.07 -5.1,8.36 -0.11,2.28 -0.48,4.52 -0.57,6.75 -0.03,0.74 -0.04,2.53 -0.14,3.19 -0.54,3.6 0.19,2.45 -1.97,3.37z"/>
   <path class="fil10" d="M201.07 190.51c1.49,0.95 5.66,3.29 6.84,4.95 2.79,0.64 4.54,1.97 8.08,2.08 2.69,0.09 6.46,-1.28 8.5,-0.49 -0.33,6.01 -12.71,4.35 -16.83,2.47 -2.74,-1.25 -8.24,-4.87 -9.64,-7.32 -1.19,-2.09 -0.53,-2.42 0.71,-3.61 1.41,0.84 1.09,0.47 2.34,1.92zm26.57 -32.44c2.18,2.4 0.25,3.36 3.09,7.37 1.79,2.53 2.87,3.1 4.14,6.36 5.56,14.21 -14.04,14.22 -10.78,8.5 1.58,-2.77 9.04,-0.07 5.77,-7.67 -1.43,-3.33 -9.26,-12.55 -2.23,-14.57zm-91.03 -11.74c-1.12,-8.49 -5.9,-7.11 -6.34,-11.09 6.67,-4.6 14.13,13.04 8.15,15.64 -1.39,-0.87 -0.91,-0.34 -1.49,-2.02 -0.01,-0.04 -0.29,-2.31 -0.32,-2.53zm-11.61 71.95c-0.06,1.87 1.77,10.79 2.77,13.87 3.66,3.37 1.15,2.78 5.74,6.53 1.78,1.46 1.3,1.8 2.53,3.32 2.3,2.85 13,9.74 20.15,11.42 8.59,2.02 23.34,1.53 29,-6.7 1.8,-2.61 2.04,-7.37 3.13,-9.35 -0.93,-5.12 -1.92,-8.4 -1.96,-13.82l-0.01 -0.2c-7.95,-0.85 -15.62,-5.62 -20.31,-9.58 -2.88,-2.43 -12.74,-11.36 -11.97,-18.41 1.6,0.55 7.17,6.41 8.79,8.15 8.95,9.61 20.96,12.72 23.53,15.1 2.55,0.22 1.4,0.24 2.05,0.87 5.22,0.05 19.89,6.06 35.32,-4.14 6.26,-4.14 10.32,-7.6 14.85,-13.72 4.38,-5.92 12.83,-26.4 12.74,-30.59 -19.79,1.32 -20.42,-11.67 -22.23,-23.11l-4.18 -0.43 -3.6 0.14c-3.1,7.2 -3.41,10.46 -7.9,15.41 -2.97,3.28 -9.25,6.8 -16.02,6.39 -6.62,-0.4 -11.86,-4.04 -14.63,-8.02 -4.37,-6.27 -3.29,-10.85 -3.82,-18.83l-17.79 -4.43c-15.05,4.55 -18.18,-5.78 -20.94,-8.24 -2.49,-2.21 -7.57,-4.11 -12.05,-3.1 -4.29,0.97 -7.45,4.26 -9.29,7.01 -7.57,11.32 -3.33,27.94 5.49,34.06 4.61,3.2 6.32,2.8 11.68,4.63 1.17,0.97 4.46,29.22 -2.79,39.25 -3.62,5 -5.66,4.68 -8.29,6.51z"/>
   <path class="fil10" d="M373.83 502.63c1.04,-1.53 -0.59,-1.88 2.06,0.39l7.15 5.21c1.24,2.76 -0.86,4.39 1.17,7.55 1.55,2.41 2.38,1.75 3.85,5.18 2.28,1.57 5.47,7.69 16.85,8.15l3.8 -0.82c-1.13,-2.19 -2.97,-1.62 -7.44,-3.87 -2.78,-1.4 -5.23,-2.71 -7.08,-3.95l0.56 -3.38c3.74,-1.1 10.82,5.65 20.4,4.96 -1.05,-2.24 -0.53,-1.33 -2.18,-2.46 -2.65,-1.82 -10.42,-6.38 -12.1,-8.3 -1.93,-2.2 -0.98,-3.8 1.12,-5.54 3.66,0.62 4.51,3.14 8.51,5.91 0.11,0.07 0.25,0.17 0.36,0.25 0.11,0.07 0.25,0.17 0.36,0.24l2.07 1.34c4.12,2.62 17,7.4 6.26,12.59 -1.74,0.84 -1.24,0.28 -2.5,1.54 -1.07,1.06 -1.32,1.73 -1.8,2.71 7.78,2.45 15.4,8.56 28.14,2.02 8.39,-4.31 20.08,-5.13 29.6,-7.17 7.99,-1.71 15.23,-6.4 17.41,-6.74 2.27,-2.34 3.16,-2.44 5.46,-4.16 1.37,-1.02 1.06,-1.13 2.38,-2.25l5.44 -3.94c10.91,-5.59 13.83,-20.84 17.67,-31.5 -7.75,0.2 -10.83,1.87 -19.38,0.2 -10.62,-2.07 -9.11,-2.56 -16.01,-4.44 -0.98,1.16 -0.28,0.25 -1.05,1.85 -5.01,10.43 -6.3,10.11 -13.48,17.44 -8.85,9.03 -34.3,14.83 -42.62,7.77 -2.01,-0.12 -1.49,-0.57 -1.42,1.49 4.01,7.42 -1.49,12.71 -9.47,9.82 -2.42,-0.88 -16.32,-5.53 -13.03,-9.16 2.68,-2.95 11.59,2.55 17.96,3.22 0.2,-1.99 -0.49,-3.54 -1.71,-4.97 -9.92,-11.6 -20.95,-5.87 -24.14,-9.15 -1.55,-1.6 -1.1,-3.34 1.35,-3.5 1.4,-0.09 4.52,0.35 5.92,0.42l-0.56 -22.2c-2.94,-1.65 -14.48,-2.42 -29.53,-11.56 0.48,2.84 -1.65,8.17 -2.72,11.39 -3.07,9.25 -4,16.5 -1.94,26.1 0.58,2.69 2.36,9.2 4.3,11.33z"/>
   <path class="fil10" d="M204.22 371.83c-1.24,1.19 -2.91,1.8 -4.64,2.95l-8.38 6.24c-1.57,1.16 -2.6,1.84 -4.12,2.87 -7.67,5.19 -13.57,5.56 -23.74,4.29 -1.16,0.93 -2.29,1.78 -3.12,3.13 -1.21,2.34 -3.26,10.26 -4.22,13.39 -1.69,5.52 -1.02,9.8 -1.2,15.51l0.26 8.09 9.03 0.91c3.73,0.13 3.13,0.41 3.85,1.31 5.81,-3.05 9.5,-4.78 14.76,-8.38l42.08 -26.94c-2.76,0.16 -5.47,-1.86 -5.79,-4.5 1.98,-0.84 2.16,-0.42 3.76,0.74 1.88,1.37 3.01,1.2 2.6,3.61 1.48,-0.9 2.83,-0.77 5.12,-1.03 2.46,-0.27 2.04,-0.95 4.81,-0.99 -1.42,-1.64 -1.24,-0.99 -2.71,-2.08 -1.62,-1.21 -0.64,-0.55 -1.99,-2.06l-9.84 -7.63c-2.01,-1.35 -3.81,-1.99 -3.44,-5.01 3.15,-1.44 12.19,4.93 15.02,7.36l7.98 6.63c1.55,1.16 -0.26,0.48 1.68,1.09 1.19,0.38 3.73,-0.01 5.1,1.37l4.59 -0.78 0.08 -6.44c-1.9,-1.46 -2.95,-3.2 -4.6,-5.01 -1.36,-1.47 -2.53,-2.76 -4.4,-4.34 -2.33,-1.98 -7.1,-5.68 -10.55,-6.91 -5.75,-1.13 -10,-1.1 -15.69,-1.83 -6.42,0.75 -8.55,4.65 -12.3,4.42z"/>
   <path class="fil10" d="M402.43 657.84c5.11,0.95 20.06,2.72 17.23,8.69 -2.55,3.04 -6.83,-5.9 -25.13,-2.77 -4.64,0.8 -6.67,2.98 -8.66,6.4 -1.89,3.25 -4.15,7.78 -3.8,12.3 8.98,4.98 23.26,3.54 34.54,3.15l27.72 -1.85c5.94,-0.74 3.42,-2.06 6.67,-3.3l-0.37 -8.42 -3.15 -24.52c-9.78,4.34 -35.51,3.83 -44.74,-0.65 0.16,3.33 0.58,8.2 -0.32,10.97z"/>
   <path class="fil10" d="M356.8 651.38c2.73,-0.17 7.57,0.84 10.28,1.55 3.02,0.79 7.04,1.73 6.87,5.41 -3.88,1.43 -7.87,-0.78 -12.06,-1.88 -2.15,-0.56 -4.28,-0.76 -6.55,-0.78 -7.7,-0.07 -5.74,0.42 -6.39,-1.3 -2.98,1.38 -6.55,5.57 -8.36,8.48 -3.32,5.32 -2.46,6.1 -4.22,11.85l-0.57 2.55c2.33,-0.53 1.04,0.06 4.11,1.16 1.41,0.51 3.17,0.91 4.64,1.2 8.74,1.7 24.31,2.58 32.79,0.71 1.46,-6.34 3.05,-10.89 6.04,-14.99 1.05,-1.43 3.9,-3.32 6.09,-4.44 2.36,-1.21 5.69,-1.89 7.46,-2.77l-1.26 -0.4c0.65,-3.22 0.37,-9.45 -0.3,-12.61 -9.59,-1.58 -15.08,2.97 -29.55,-0.66 -5.73,-1.44 -7.34,-0.76 -7.27,-3.57l-0.5 -0.05c-0.83,2.79 0.9,5.12 0.34,9.31l-1.59 1.21z"/>
   <path class="fil10" d="M165.64 654.87c1.92,0.54 0.95,-0.17 2.25,1.89 9.06,4.62 10.86,9.37 30.21,14.15 9.84,2.43 16.75,4.78 28.28,2.47 3.42,-0.69 5.34,-1.95 9.18,-2.14 -0.66,-1.61 -0.1,-0.65 -0.86,-1.86 -1.27,-0.64 -5.51,-3.13 -6.46,-4.09 -1.46,-0.05 -5.03,-2.14 -6.37,-2.99 -1.95,-1.23 -3.56,-3.3 -4.81,-4.47 -4.52,-4.22 -2.85,-8.2 -5.86,-12.63 -7.52,-0.1 -15.26,0.63 -22.64,-0.21 -7.33,-0.84 -13.62,-2.33 -20.41,-3.31 0.61,1.89 0.01,0.43 -0.88,2.26 -0.57,1.16 -0.59,1.89 -0.7,3.29 -0.22,2.75 -0.11,5.81 -0.94,7.64z"/>
   <path class="fil10" d="M230.8 654.21c2.36,0.7 1.1,0.64 3.4,2.25 8.44,5.91 14.7,8.42 24.93,11.81 7.82,2.59 30.66,5.94 35.72,-0.58 -13.01,-8.6 -16.39,-7.21 -18.76,-25.69 -16.61,0.82 -27.93,0.63 -43.57,-3.26 -0.53,4.33 -0.51,12.47 -1.72,15.47z"/>
   <path class="fil10" d="M223.54 142.39l1.94 -0.04c1.95,-1.06 1.89,0.24 3.83,-1.93 1.25,-1.4 1.24,-2.25 2.09,-3.79 2.23,-4.07 7.36,-8.98 11.19,-10.82 2.9,-1.39 5.42,-1.97 8.02,-3.16 -0.03,-1.19 0.26,-4.49 -0.49,-5.22l-0.98 -1.17c-0.13,-0.39 -0.1,-2.02 -0.15,-2.59 -0.2,-2.28 -0.61,-2.71 -1.17,-4.32 -2.39,-6.85 -5.9,-12.08 -9.53,-17.98 -3.8,-6.19 -4.65,-0.2 -5.97,3.23 -0.82,2.15 -6.39,9.67 -7.87,11.21 -0.58,0.6 -0.04,0.09 -0.87,0.89l-10.11 7.35c-5.79,3.28 -8.02,2.89 -9.45,6.03l2.36 1c4.81,1.64 6.75,1.82 10.69,6.06 2.75,2.96 6.23,10.63 4.75,14l1.7 1.25z"/>
   <path class="fil10" d="M210.3 150.4c-4.03,7.63 -12.1,2.21 -8.6,-6.12 3.52,-8.37 12.78,-1.79 8.6,6.12zm-20.23 -19.1c-1.57,3.32 -5.2,6.36 -5.97,12.18 -0.66,5.02 0.18,11.32 3.08,14.71 2.78,3.24 5.67,6.15 12.48,5.67 6.45,-0.46 9,-3.89 11.57,-6.58 4.38,-6.88 7.47,-16.98 1.52,-24.64 -2.1,-2.7 -5.71,-5.66 -10.75,-5.94 -5.68,-0.32 -8.93,3.28 -11.93,4.59z"/>
   <path class="fil5" d="M493.22 521.82l0.6 0.82c11.53,2.15 20.77,0.58 29.44,-4.26 3.47,-1.74 5.42,-2.43 6.04,-6.99 0.59,-4.34 0.39,-7.93 0.1,-12.25 -0.43,-6.51 -0.74,-18.09 -2.92,-23.4 -2.52,1.07 -2.02,1.48 -3.23,6.91 -1.69,7.59 -4.92,14.57 -8.94,20.83 -4.16,6.48 -14.62,16.72 -21.09,18.33z"/>
   <path class="fil10" d="M256.88 437.9c0.42,4.85 1.94,4.17 -1.83,7.45 0.68,1.82 -0.34,0.33 1.17,1.82 0.1,-0.1 0.23,-0.43 0.27,-0.34 0.39,0.9 0.45,-0.54 0.55,-0.64 0.38,-0.36 -0.41,-0.39 1.22,-0.87l11.37 1.2c13.26,0.21 9.96,-0.8 13.5,-3.86 -0.06,-2.51 0.08,-0.65 -0.67,-1.37 -5.55,1.79 -21.5,5.91 -24.62,-2.27 3.39,0.05 5.65,2.39 10.01,2.26 3.27,-0.09 6.86,-1.42 10.11,-2.15 7.32,-1.62 14.15,-2.73 14.9,-10.21 -2.66,0.65 -14.12,5.74 -21.5,5.54 -0.4,-0.01 -1.36,-0.09 -1.73,-0.19l-1.56 -0.72c-0.15,-0.08 -0.34,-0.2 -0.49,-0.32l2.06 -0.6c7.81,-1.18 6.43,-0.05 16.69,-3.25 6.35,-1.98 10.25,-4.15 12.17,-9.29l0.08 2.52c1.2,-1.63 0.55,-2.48 0.3,-4.63 -8.61,-1.33 -1.7,-2.03 -11.1,2.5 -7.11,3.43 -15.02,3.74 -18.21,5.68 -3.51,2.13 -1.82,2.56 -3.27,4.94 -2.08,3.43 -7.63,0.31 -9.42,6.81z"/>
   <path class="fil10" d="M253.25 163.55l0.92 -11.43c-0.1,-0.12 -0.16,-0.31 -0.2,-0.4l-0.99 -2.46c-0.04,-0.31 -0.11,-0.39 -0.21,-0.57 0.05,3.65 -1.05,6.41 -2.87,8.29 -0.47,3.81 -5.13,1.64 -6.51,-0.16 -0.07,-0.09 -0.17,-0.23 -0.23,-0.33l-1.19 -3.54c-0.58,-3.23 0.96,-8.58 6.31,-9.26 5.83,-0.73 5.25,3.2 5.34,4.69 0.15,-0.15 0.38,-0.3 0.49,-0.4l1.11 -1.07c-0.41,-4.44 1.09,-10.21 -0.82,-14.29 -5.45,-2.07 -10.88,1.4 -13.18,3.89 -11.17,12.1 -3.21,34.03 12.04,27.02z"/>
   <path class="fil10" d="M187.28 126.51c-0.27,0.1 -1.17,0.21 -1.57,0.56 0.57,-3.48 -1.07,-1.47 1.69,-2.67 -2.66,0.53 -5.62,1.63 -8.3,1.98 -10.2,1.35 -8.01,-3.34 -14.75,6.81l16.16 4.21c0.97,-3.06 5.28,-9.24 6.77,-10.89z"/>
   <path class="fil11" d="M451 680.46l-0.18 5.38c-5.99,4.47 -20,4.51 -27.89,4.69 -10.8,0.25 -29.91,1.89 -39.55,-1.92 -2.18,-0.86 -4.05,-2.74 -5.06,-3.11 -2.14,-0.78 -29.62,4.8 -42.91,-3.92l0.39 -4.31 0.57 -2.55c-1.15,1.78 -0.01,-2.08 -0.86,1.13 -1.97,-1.88 -18.13,-1.57 -22.03,-1.04 0.55,2.88 2.23,2.04 4.05,6.22 1.03,2.37 1.45,7.66 -0.28,9.78 -4.88,5.97 -32.25,4.68 -39.89,4.06 -6.87,-0.55 -12.58,-2.12 -19.39,-2.64 -1.65,1.41 -3.89,2.86 -5.06,4.02 2.72,1.68 31.73,0.8 37.72,0.71 12.98,-0.19 26.21,0.78 39.07,0.2 22.43,-1.01 54.53,0.32 78.73,-0.14 40.52,-0.78 75.19,0.07 115.47,-3.78 5.86,-0.56 11.32,-1.61 17,-2.74 5.24,-1.05 12.09,-2 11.93,-7.52 -2.18,-0.86 -3.81,-0.7 -6,-1.41 -2.82,-0.92 -2.81,-2.5 -4.2,-4.03 -3.09,-3.41 -20.16,-2.47 -28.7,-3.32l-11.19 -1.12c-2.54,-0.18 -1.83,-0.67 -3.05,0.74 -2.96,3.09 2.43,11.19 -4.43,15.37 -2.14,1.3 -8.37,2.26 -10.27,-3.18 -1.81,-5.16 0.33,-4.63 0.5,-4.81l-0.63 -1.58c-0.46,1.5 -0.07,2.07 -0.95,0.59 -0.39,-0.66 -0.34,-1.63 -0.41,-2.59 -0.07,-0.91 -0,-1.85 -0.25,-2.73 -1.39,-5.03 -25.63,-0.38 -32.59,-2.86l0.37 8.42z"/>
   <path class="fil11" d="M111.17 672.58c-3.2,-1.14 -76.57,2.15 -78.82,3.23 -2.27,1.26 -1.63,3.07 -3.15,5.11 -0.84,1.12 -3.36,2.71 -5.23,3.01 -6.77,1.06 -7.08,-3.92 -9.77,-6.27 -3.8,0.15 -6.38,3.08 -5.81,7.55 13.9,10.05 68.35,10.42 88.62,11.08 9.83,0.32 96.34,0.94 98.34,-0.05 -3.24,-1.96 -27.32,-3.55 -34.19,-6.46 -1.34,-1.18 -2.7,-11.95 -2.98,-15.15 -0.24,-2.72 -0.51,-2.91 -3.36,-3.08 -6.65,-0.37 -17.86,-0.06 -24.63,0.34 -4.01,0.24 -1.93,0.8 -3.39,8.56 -1.82,9.67 -10.83,8.73 -14.22,3.71 -2.2,-3.26 -0.67,-7.19 -1.41,-11.57z"/>
   <path class="fil11" d="M187.4 124.4c-2.76,1.2 -1.11,-0.81 -1.69,2.67 0.4,-0.36 1.3,-0.46 1.57,-0.56 2.37,-1 11.39,-9.12 22.97,-3.11 6.16,3.2 10.68,9.62 10.95,19.16l2.34 -0.17 -1.7 -1.25c1.48,-3.37 -2,-11.04 -4.75,-14 -3.94,-4.24 -5.88,-4.42 -10.69,-6.06l-2.36 -1c1.43,-3.14 3.66,-2.75 9.45,-6.03l10.11 -7.35c0.84,-0.8 0.29,-0.29 0.87,-0.89 1.48,-1.54 7.05,-9.06 7.87,-11.21 1.31,-3.44 2.16,-9.43 5.97,-3.23 3.63,5.9 7.14,11.13 9.53,17.98 0.56,1.61 0.98,2.04 1.17,4.32 0.05,0.57 0.02,2.2 0.15,2.59l0.98 1.17c0.74,0.74 0.46,4.03 0.49,5.22 -2.6,1.19 -5.12,1.77 -8.02,3.16 -3.83,1.84 -8.96,6.75 -11.19,10.82 -0.84,1.54 -0.84,2.39 -2.09,3.79 -1.94,2.17 -1.88,0.87 -3.83,1.93l4.48 0.55c2.03,-4.1 2.67,-8.23 7.57,-12.36 5.44,-4.58 6.45,-4.44 14.62,-5.76 0.71,-5.65 -4.8,-21.65 -8.38,-26.73 -1.3,-1.85 -1.61,-2.73 -2.97,-4.58l-6.16 -8.5c-1.17,2.16 -1.68,5.39 -2.71,7.8 -10.26,23.88 -39.26,26.63 -44.53,31.63z"/>
   <path class="fil11" d="M242.4 133.79c-2.64,2.19 -5.94,5.87 -7.28,11.16 -2.08,8.2 0.4,9.8 2.46,15.88 2.07,2.07 3.63,3.94 6.81,4.82 3.16,0.87 6.61,0.22 8.87,-1.11l-0.01 -1c-15.26,7.01 -23.21,-14.92 -12.04,-27.02 2.3,-2.49 7.73,-5.96 13.18,-3.89l-0.64 -1.5c0.23,1.11 -0.31,0.37 0.81,0.17l-1.86 -0.71c-3.84,-0.74 -7.42,1.21 -10.3,3.19z"/>
   <path class="fil11" d="M249.9 156.99c-6.08,2.29 -8.67,-3.42 -6.32,-8.67 2.22,-4.96 7.04,-5.26 9.18,0.38 0.1,0.18 0.17,0.25 0.21,0.57l0.99 2.46c0.04,0.1 0.11,0.29 0.2,0.4l1.04 -5.19 -1.11 1.07c-0.11,0.09 -0.34,0.25 -0.49,0.4 -0.09,-1.49 0.49,-5.42 -5.34,-4.69 -5.35,0.67 -6.89,6.03 -6.31,9.26l1.19 3.54c0.06,0.1 0.16,0.24 0.23,0.33 1.38,1.8 6.04,3.97 6.51,0.16z"/>
   <path class="fil12" d="M145.92 451.32c-2.63,0.01 -1.35,1.51 -1.72,-1.47 -2.71,-2.53 15.36,-12.86 19.91,-16 1.86,-1.28 1.36,-1.51 3.59,-1.68l0.22 -1.66c-0.72,-0.9 -0.12,-1.18 -3.85,-1.31l-9.03 -0.91 -0.26 -8.09 -0.5 0.94c-0.07,0.18 -0.82,2.59 -0.66,6.14 -1.24,-0.64 -0.89,-0.04 -1.34,-1.65l0.24 -13.88c0.19,-1.03 0.46,-1.2 0.39,-2.44 -0.15,-2.62 0.23,-0.63 -0.57,-1.61 -0.73,5.12 -2.15,8.87 -2.27,15.02 -0.12,6.32 1.49,9.81 1.92,15.3l-10.9 0.93c-2.82,1.21 -10.03,0.69 -13.53,0.55 1.43,1.12 2.28,0.72 2.83,2.5 -1.83,2.6 -7.55,1.67 -12.25,1.46 -4.6,-0.2 -9.53,-0.57 -14.02,-1.09 -4.98,-0.57 -23.94,-4.48 -25.92,-3.21 3.53,0.2 8.58,1.62 12.4,2.21 19.35,2.97 19.78,2.28 38.96,3.09 -1.38,1.44 -2.18,1.92 -3.64,3.72 -5.03,6.25 -5.63,4.91 -7.93,7.23 -10.19,10.28 -28.59,21.66 -41.8,25.78 -13.94,4.35 -15.2,2.8 -25.5,4.03 -1.06,2.95 -0.71,3.21 -0.47,6.22 0.48,4.77 1.12,7.45 2.8,11.99 1.3,3.51 4.72,7.95 5.07,10.03 1.89,1.89 0.16,0.55 1.84,1.06 2.54,0.74 0.42,1.17 4.24,3.45 1.78,1.06 2.9,1.99 4.91,3.27 2.67,1.7 7.94,3.8 11.01,4.66 7.73,2.17 18.7,4.45 26.55,4.98 4.68,0.32 9.83,0.92 14.85,1.26l45.78 -0.53c0.71,3.72 -5.17,90.14 -5.15,104.58 12.43,9.7 56.23,10.43 59.42,4.52 0.66,-1.22 1.42,-3.57 1.91,-4.99 0.54,-1.57 1.37,-4.1 1.89,-5.74l5.19 -15.74c0.75,-2.15 1.79,-3.38 2.56,-5.36l0.15 1.13c0.69,0.57 0.59,-0.76 0.8,1.88l1.14 -3.23c-0.15,5.31 -0.08,9.07 -1.02,14.4 -0.62,3.51 -1.76,10.79 -1.22,14.3 8.86,5.9 42.14,4.27 54.05,2.48 2.21,-1.11 6.13,-22.42 6.58,-24.6 5.2,-25.55 11.72,-52.91 15.54,-78.41 2.55,-17.04 5.55,-39.98 0.29,-56.46 -4.13,-12.95 -12.06,-19.11 -21.87,-24.85 -3.78,-2.22 -7.23,-3.27 -10.9,-4.91l1.62 -0.16 0 -0.72c-6.62,-0.62 -17.89,1.98 -22.06,-2.55 -1.51,-1.49 -0.49,0.01 -1.17,-1.82 3.77,-3.28 2.25,-2.6 1.83,-7.45 -2.6,-3.97 6.38,-6.26 6.41,-6.27 4.09,-1.48 1.85,-4.59 6.63,-6.87 4.46,-2.13 10.61,-1.64 20.06,-6.73 7.42,-4 6.26,-0.22 11.05,-3.02 2.88,-1.69 5.66,-3.32 8.31,-5.09 10.52,-7.07 14.21,-7.27 12.43,-12.44 -3.36,-0.95 -75.93,1.04 -85.41,1.37 -4.65,0.16 -7.21,2.31 -10.36,4.21 -3.09,1.86 -6.11,3.51 -9.13,5.47l-35.84 22.46c-5.93,3.71 -12.08,7.57 -18.04,11.11 -4.2,2.5 -14.57,9.79 -18.38,10.47 2.89,-0.32 -0.02,0.11 1.32,-1.24z"/>
   <path class="fil12" d="M237.58 160.84c-2.06,-6.08 -4.54,-7.68 -2.46,-15.88 1.34,-5.3 4.63,-8.97 7.28,-11.16 -0.06,-0.07 -3.37,0.9 0.17,-2.21 2.48,-2.18 13.12,-4.41 17.61,0.27 5,5.21 6.49,12.94 4.46,19.7 -7.24,24.13 -26.04,14.47 -27.4,11.24 -1.59,-3.78 -0.68,-1.46 0.35,-1.97zm-26.36 -3.54c-2.56,2.68 -5.11,6.12 -11.57,6.58 -6.81,0.49 -9.7,-2.43 -12.48,-5.67 -2.91,-3.39 -3.75,-9.69 -3.08,-14.71 0.77,-5.82 4.4,-8.86 5.97,-12.18 -0.62,-0.52 -1.2,0.05 1.23,-2.09 6.86,-6.06 17.16,-4.9 22.44,2.48 1.74,2.43 2.13,2.93 3.02,6.47 1.45,5.81 0.13,13.71 -3.37,18.45 -1.75,2.37 -1.76,1.17 -2.15,0.69zm-23.94 -30.79c-1.48,1.65 -5.8,7.83 -6.77,10.89l-16.16 -4.21c6.74,-10.15 4.55,-5.46 14.75,-6.81 2.68,-0.36 5.64,-1.46 8.3,-1.98 5.27,-5 34.27,-7.76 44.53,-31.63 1.04,-2.41 1.55,-5.64 2.71,-7.8l6.16 8.5c1.37,1.85 1.67,2.73 2.97,4.58 3.58,5.08 9.09,21.08 8.38,26.73 -8.17,1.32 -9.19,1.19 -14.62,5.76 -4.91,4.13 -5.55,8.27 -7.57,12.36l-4.48 -0.55 -1.94 0.04 -2.34 0.17c-0.27,-9.55 -4.79,-15.96 -10.95,-19.16 -11.57,-6.01 -20.6,2.11 -22.97,3.11zm-104.41 107.96l2.16 -1.09c-2.22,-1.6 -0.72,0.28 -0.28,-1.04 0.15,-0.46 0.11,-0.39 0.65,-0.82 0.53,-0.43 1.9,-1 2.35,-1.23 17.2,-8.78 16.88,-7.31 35.66,-13.41 16.28,-5.29 12.64,-25.88 11.44,-42.56 -3.53,-1.97 -12.6,-1.97 -18.71,-14.02 -7.08,-13.97 -0.09,-31.05 9.58,-34.35 13.76,-4.68 18.01,7.49 21.96,9.81 5.65,3.31 10.48,1.32 12.17,1.73l0.9 0.4c0.11,0.05 0.32,0.13 0.42,0.26l17.79 4.43c0.53,7.98 -0.55,12.56 3.82,18.83 2.77,3.97 8.01,7.62 14.63,8.02 6.78,0.41 13.05,-3.11 16.02,-6.39 4.49,-4.95 4.8,-8.21 7.9,-15.41l3.6 -0.14c0.64,-0.64 -0.96,-1.27 2.7,-1.03 6.04,0.39 -0.25,15.59 13.72,22.21 4.61,2.18 7.14,0.27 11.24,1.69 0.68,6.4 -8.11,25.8 -12.77,32.44 -8.9,12.64 -24.13,20.98 -40.79,20.24 -2.89,-0.13 -10.41,-1.98 -12.05,-2.91 1.04,-1.27 -0.51,-0.79 1.45,-0.62 -0.65,-0.63 0.5,-0.65 -2.05,-0.87l-0.05 4.74 0.01 0.2 5.44 1.42c2.76,-1.77 25.37,13.3 28.05,15.45 5.16,4.13 6.89,5.14 16.92,1.86 29.83,-9.73 36.22,-42.96 24.32,-65.91 -0.74,-1.44 -1.31,-2.55 -2.11,-3.72 -0.16,-0.23 -1.19,-1.66 -1.23,-1.75 -1.01,-2.42 -0.9,-0.67 0.1,-1.63 0.02,-2.97 7.84,-3.11 10.81,-18.72 1.35,-7.08 0.1,-12.79 -3.43,-18.47 -1.84,-2.96 -0.95,-1.99 -4.26,-3.84 0.34,-0.8 0.03,-0.43 0.39,-1.3l6.37 -9.88c1.79,-3.53 3.4,-9.29 3.56,-13.87 0.67,-18.77 -9.05,-34.87 -23.7,-45.02 -10.34,-7.17 -16.82,-7.1 -24.03,-10.34 -7.53,-3.38 -9.1,-7.66 -23.45,-11.5 -9.38,-2.51 -21.36,-3.48 -31.71,-2.18 -21.84,2.74 -41.32,14.81 -54.41,31.73 -18.45,23.85 -16.69,45.03 -23.61,62.67 -6.43,16.39 -19.76,23.03 -29.51,39.89 -13.23,22.89 -8.84,44.03 11.51,59.65 4.51,3.46 7.11,4.06 9.5,5.57 1.14,0.72 0.34,0.06 1,0.81z"/>
   <path class="fil12" d="M256.36 690.26l0.39 -0.68c-0.75,-1.19 -1.42,-0.08 0.36,-0.73l5.42 0.29c12.96,1.41 42.06,6.57 52.65,-1.06 0.38,-8.44 -5.42,-11.56 -14.01,-15.68 -10.12,-4.85 -3.84,-0.04 -25.12,-0.03 -12.93,0.01 -23.83,-4.49 -34.96,-9.93 -3.57,-1.74 -7.85,-5.06 -9.47,-5.48 -0.31,2.69 -1.7,4.85 -1.9,7.72 0.95,0.43 2.43,1.42 3.45,2.11 2.05,1.37 1.66,1.73 1.7,1.92l-0.15 0.67c0.76,1.21 0.2,0.25 0.86,1.86 -3.83,0.19 -5.76,1.45 -9.18,2.14 -11.53,2.32 -18.44,-0.03 -28.28,-2.47 -19.35,-4.78 -21.15,-9.53 -30.21,-14.15l-0.54 0.01c-1.8,0.14 -1.56,-0.93 -3.79,4.55 -2.52,6.18 -3.33,10.54 -2.36,17.42l2.19 8.94c1.38,1.06 40.98,6.48 45.88,7.08 11.29,1.37 26.35,1.88 37.74,-0.03 8.11,-1.36 5.76,-3.08 9.35,-4.47z"/>
   <path class="fil12" d="M40.86 542.62c-6.11,35.12 -12.71,72.5 -18.1,107.83 -1.67,10.91 -9.01,33.84 0.99,30.84 4.51,-1.35 5.34,-9.59 6.38,-14.7 6.93,-33.81 16.12,-70.33 22.12,-103.8 0.83,-4.61 2.99,-12.27 3.08,-16.9l-14.47 -3.28z"/>
   <path class="fil12" d="M118.26 554.21c-1.17,3.59 -3.59,108.73 -3.89,119.87 -0.07,2.58 -0.7,6.42 0.24,8.53 0.81,1.82 4.05,2.76 6.08,2.36 4.81,-0.95 3.76,-9.95 3.85,-14.39 0.42,-20.32 7.33,-111.61 5.65,-116.56 -1.43,-0.51 -10.73,-1.08 -11.54,-0.64l-0.4 0.84z"/>
   <path class="fil12" d="M485.73 684.07l0.79 1.81c0.35,-1.88 -0.45,-0.54 0.74,-1.61 1.59,4.42 7.33,3.78 8.79,-0.76 1.24,-3.88 -2.81,-93.01 -3.17,-98.09l-13.36 0.63c-0.4,11.23 7.43,93.22 7.24,95.66 -0.26,3.25 0.94,1.56 -1.02,2.36z"/>
   <path class="fil12" d="M540.98 657c0.97,4.39 1.63,8.14 2.65,12.5 0.88,3.77 0.89,9.05 5.36,9.36 5.44,0.37 4.87,-6.11 4.15,-10.35 -4.63,-27.41 -8.34,-64.18 -14.59,-89 -3.53,0.59 -8.61,2.25 -12.93,3.15l15.36 74.33z"/>
   <ellipse class="fil6" cx="427.43" cy="81.11" rx="95.58" ry="81.11"/>
   <path class="fil12" d="M204.05 369.09c2.4,1.31 3.81,-0.32 5.06,-1.15 1.27,-0.85 3,-1.33 4.41,-2.35l-4.97 -4.53 -8.1 -5.55c-0.98,-0.74 -1.55,-1.48 -2.47,-2.23 -1.95,-1.59 -8.36,-7.02 -11.15,-7.52 -7.28,5.32 -0.59,8.23 6.59,14.43 1.72,1.48 9.39,8.41 10.64,8.91z"/>
   <path class="fil12" d="M448.7 310.63c-5.51,2.78 -5.31,14.95 3.31,12.55 5.89,-1.63 4.59,-16.55 -3.31,-12.55z"/>
   <g>
    <path class="fil0" d="M413.19 24.81c8.86,-1.37 17.56,-0.9 25.65,1.86 5.65,1.93 13.69,6.74 16.97,11.61 4.23,6.28 0.88,3.48 8.53,6.04 3.58,1.19 6.63,2.85 9.25,4.75 11.9,8.66 17.24,27.45 11.68,41.71 -3.8,9.74 -12.78,17.87 -21.21,21.94 -5.81,2.8 -9.77,11.13 -24.98,17.61 -18.84,8.02 -51.75,4.17 -63.45,-14.79 -5.44,-8.82 -4.83,-12.56 -4.88,-23.48 -0.01,-3.01 -2.24,-7.83 -2.59,-12.23 -2.17,-27.24 17.15,-50.71 45.04,-55.02zm0.71 -1.67c-9.24,1.68 -14.89,3.88 -21.69,7.81 -4.55,2.63 -8.66,6.23 -12.35,9.81 -4.54,4.4 -10.8,16.11 -12.43,24.32 -2.96,14.87 0.79,17.75 1.55,26.39 1.01,11.43 -0.87,13.85 4.9,24.06 12.58,22.25 52.78,26.02 74.38,11.74 5.46,-3.61 14.05,-11.85 16.22,-12.92 2.23,-1.1 3.18,-1.45 4.92,-2.6 1.69,-1.12 2.75,-2.15 4.39,-3.26 4.27,-2.89 9.99,-9.89 12.69,-16.51 7.33,-17.97 -0.71,-40.59 -19.92,-48.59 -7.45,-3.1 -4.22,1.21 -9.45,-5.83 -7.53,-10.11 -24.7,-17.78 -43.19,-14.42z"/>
    <path class="fil0" d="M376.93 70.34c-2.15,-3.63 5.67,-17.34 7.87,-20 0.91,-1.1 1.21,-1.18 2.03,-2.03 0.62,-0.64 0.98,-1.16 1.59,-1.89 12.7,-15.08 45.77,-19.44 57.79,-5.7 -1.71,0.77 -7.69,1.73 -10.33,2.42 -6.29,1.64 -4.27,1.85 -10.83,0.19 -7.66,-1.94 -15.7,0.04 -21.86,2.68 -10.19,4.37 -12.11,7.95 -18.52,13.6 -3.02,2.67 -5.36,9.75 -7.74,10.74zm-1.71 7.72c4.42,-8.22 2.96,-8.63 10.79,-18.31 7.63,-9.44 26.24,-18.89 40.66,-14.5 7.68,2.34 6.92,-2.19 23.01,-2.97 -1.56,-4.82 -14.48,-10.59 -22.25,-11.08 -19.52,-1.23 -35.31,5.95 -45.86,21.21 -2.68,3.87 -9.75,20.66 -6.36,25.67z"/>
    <path class="fil0" d="M407.05 61.49c-0.94,-0.98 1.64,-2.59 -2.24,0.02 -0.04,0.03 -1.58,1.49 -1.87,1.8 -2.38,2.62 -6.14,9.83 -7.28,13.81 -2.73,9.53 0.17,16.16 0.11,25.66 -5.94,0.01 -12.25,-6.17 -14.42,-9.28 -5,-7.14 9.87,-33.04 26.7,-39.21 -0.87,-0.74 1.16,-1.12 -1.5,-0.5 -3.87,0.18 -12.64,7.59 -14.82,9.93 -2.87,3.08 -7.66,9.99 -9.77,15.32 -3.07,7.75 -5.86,11.46 -0.07,17.42 3.55,3.65 8.3,7.83 15.41,9.05 -0.29,-5.24 0.01,-7.68 -0.92,-13.02 -1.39,-7.96 0.4,-16.33 4.37,-23.22 2.42,-4.19 3.48,-4.78 6.29,-7.77z"/>
    <path class="fil0" d="M465.17 54.34c5.75,-0.03 13.15,12.22 14.06,19.78 1.09,9.02 -1.11,13.73 -5.21,20.05 -1.03,1.6 -2.12,3.52 -4.18,4.09 -0.34,-4.07 0.31,-8.25 -0.51,-12.28 -0.9,-4.45 -2.79,-5.84 -3.95,-8.91 -1.19,-3.14 0.6,-7.02 0.62,-11.23 0.02,-4.64 -0.46,-7.37 -0.83,-11.5zm9.45 5.35c-2.11,-2.97 -6.83,-7.27 -11.95,-8.89 0.4,4.5 2.11,8.31 2.07,13.87 -0.03,4.02 -2.58,10.32 -0.86,13.33 2.14,3.72 3.92,5.18 4.67,11.18 0.84,6.73 -0.43,8.15 -1.42,13.88 3.65,-2.09 7.46,-6.93 10.16,-11.49 2.99,-5.03 3.97,-10.33 3.48,-16.66 -0.47,-5.96 -3.45,-11.43 -6.15,-15.23z"/>
    <path class="fil0" d="M433.85 111.42c0.88,-2.27 -0.56,-0.51 1.88,-2.05 0.51,-0.32 1.21,-0.57 1.88,-0.93 5.87,-3.09 5.48,-3.2 10.5,-7.57 4.04,-3.52 5.43,-5.03 8.59,-9.5l2.18 -3.08c0.04,-0.2 0.18,-0.23 0.28,-0.33l1.19 2.44c0.2,0.86 0.25,1.96 0.24,2.84 -0.08,4.8 -2.6,10.94 -5.25,14.3 -3.24,4.12 -15.31,4.54 -21.49,3.88zm-5.52 -0.9c-0.11,0.11 -0.77,0.82 -0.91,1.1 -0.63,1.32 -0.36,-0.12 0.02,1.12 5.94,-0.7 22.79,2.3 28.65,-3.9 4.47,-4.74 8.8,-17.22 3.65,-24.46l-1.87 2.35c-2.29,4.32 -7.64,10.84 -11.29,13.77 -3.08,2.47 -13.01,9.99 -18.26,10.03z"/>
    <path class="fil0" d="M432.34 73.39c0.7,12.54 -18.3,32.21 -23.96,25.15 -7,-8.73 8.85,-25.96 23.96,-25.15zm1.86 -2.06c-12.87,0.93 -23.55,5.78 -27.7,17.09 -2.08,5.67 -2.05,7.86 1.5,11.65 3.62,3.86 4.56,2.25 9.01,-0.57 10.2,-6.47 16.29,-14.79 17.19,-28.18z"/>
    <path class="fil0" d="M431.09 99.18c0.64,-1.25 3.02,-3.95 3.9,-5.03 1.58,-1.94 2.74,-3.6 3.78,-5.55 3.94,-7.39 2.36,-10.85 4.06,-14.64 3.78,-0.32 7.41,2.17 9.82,4.13 -1.19,6.08 -13.62,19.45 -21.56,21.09zm-9.6 6.05c7.33,-1.62 14.81,-5.88 20.32,-10.68 3.22,-2.8 11.74,-11.13 12.65,-17.65 -3.84,-1.72 -7.9,-4.77 -13.29,-5.19 -0.5,8.71 -1.66,13.98 -5.96,20.31 -2.3,3.38 -6.8,8.2 -9.78,10.07l-3.56 2.73c-0.07,-0.11 -0.25,0.27 -0.37,0.41z"/>
    <path class="fil0" d="M433.62 121.68c0.85,0.36 0.65,0.36 1.12,0.73 -1.59,3.14 -15.33,3.86 -17.72,3.16 -3.6,-1.06 -9.04,-7.94 -8.88,-11.48 2.71,-0.54 8.42,3.8 12.46,5.07 6.09,1.91 11,1.66 13.03,2.53zm9.92 -1.97c-8.35,0.07 -13.02,0.87 -21.39,-1.61 -9.84,-2.92 -9.89,-6.65 -16.56,-5.52 2.51,6.8 6.42,14.89 15.03,14.68 4.43,-0.11 8.41,-0.93 12.56,-2.36 2.1,-0.73 7.51,-2.7 9.3,-4.11 1.11,-0.88 0.23,-0.1 1.06,-1.08z"/>
    <path class="fil0" d="M437.79 53.15c3.19,-1.87 10.88,-2.63 15.41,-2.19 2.61,3.38 2.49,11.67 2.72,16.91 -3.45,-0.54 -3.9,-1.78 -6.9,-2.88 -1.97,-0.73 -4.98,-1.03 -7.18,-1.76l-4.04 -10.08zm-0.52 -1.98l-2 1.19c0.62,1.75 -0.08,0.02 0.6,1.21l2.33 4.11c0.91,2.11 1.25,4.32 2.13,6.39l4.2 1.21c3.53,0.61 9.71,2.74 11.7,5.1 0.12,-0.09 0.35,-0.33 0.4,-0.22l0.97 -0.79c-0.67,-3.31 -0.16,-7.69 -0.61,-11.4 -0.37,-3.06 -1.29,-6.19 -2.32,-8.59 -7,-0.74 -13.03,1.98 -17.4,1.78z"/>
    <path class="fil0" d="M406.97 75.83c0.67,-0.95 1.59,-1.86 2.69,-2.91 1.3,-1.25 1.92,-1.09 3.02,-2.34 -0.78,-3.04 2.98,-6.04 5.52,-7.74 5.48,-3.66 11.13,-9.68 12.8,-0.1 -1.57,0.73 -4.33,0.99 -6.36,1.61 -7.21,2.23 -5.49,1.88 -4.36,2.56 3.42,-0.1 7.9,-2.02 12.68,-2.28 -0.16,-3.76 -2.51,-6.39 -3.44,-9.3 -3.85,0.03 -11.69,6.15 -14.15,8.13 -3.31,2.66 -7.75,7.11 -9.95,12.29 0.69,0.44 -0.5,0.68 1.56,0.08z"/>
    <path class="fil0" d="M383.67 115.1c1.79,2.23 5.48,4.94 8.88,6.86 3.37,1.9 7.57,2.57 10.63,4.11l1.55 -0.05 -0.33 -1.38c-3.25,-2.72 -4.39,-7.93 -6.19,-11.85 -2.13,-0.8 -5.25,-1.35 -7.64,-2.27 -2.4,-0.93 -4.54,-2.66 -6.59,-3.16 -1.41,1.01 -1.6,0.31 0.77,1.99 3.24,2.31 5.22,2.61 9.08,3.8 4.22,1.31 6.59,7.45 6.97,9.85 -3.8,0.06 -11.07,-4.4 -12.98,-6.24 -5.51,-5.31 -3.76,-2.01 -4.13,-1.65z"/>
    <path class="fil0" d="M411.34 51.67c0.9,1.05 2.45,1.44 3.82,2.12 1.97,-0.42 3.34,-1.45 4.86,-2.79l-2.52 -0.25 -6.16 0.92z"/>
    <path class="fil0" d="M377.57 103.83l0.71 2.58c1.77,-0.28 1.56,0.98 1.57,-0.39 1.51,-0.08 0.25,0.13 0.82,-0.98 -0.78,-1.82 -1.32,-2.19 -2.87,-3.41l-0.61 0.37 0.39 1.83z"/>
    <path class="fil3" d="M413.34 26.11c12.44,-1.69 23.94,-0.66 34.2,6.49 12.55,8.73 4.56,9.3 15.31,12.75 6,1.93 9.07,3.72 13.12,7.77 0.64,0.64 1.21,1.12 1.77,1.7 1.32,1.36 0.53,0.51 1.46,2.03 6.16,10.1 9.88,21.19 4.86,33.35 -4.16,10.07 -10.91,16.32 -20.58,21.33 -5.83,3.02 -8.01,9.76 -24.5,17.48 -13.09,6.13 -33.92,4.69 -47.02,-1.21 -6.23,-2.81 -8.55,-5.68 -12.91,-9.84 -7.66,-7.29 -6.89,-19 -7.15,-25.89 -0.12,-3.13 -1.94,-7.99 -2.36,-11.69 -1.52,-13.16 3.25,-27.57 11.71,-37.03 1.53,-1.72 1.16,-0.58 2.71,-2.5l8.62 -7.13c5.56,-3.33 13.23,-6.57 20.75,-7.59zm-0.15 -1.29c-27.89,4.31 -47.2,27.78 -45.04,55.02 0.35,4.4 2.58,9.22 2.59,12.23 0.05,10.92 -0.56,14.67 4.88,23.48 11.7,18.95 44.61,22.81 63.45,14.79 15.21,-6.47 19.17,-14.81 24.98,-17.61 8.43,-4.06 17.41,-12.2 21.21,-21.94 5.56,-14.26 0.22,-33.05 -11.68,-41.71 -2.61,-1.9 -5.66,-3.56 -9.25,-4.75 -7.65,-2.55 -4.3,0.24 -8.53,-6.04 -3.28,-4.87 -11.31,-9.68 -16.97,-11.61 -8.09,-2.77 -16.79,-3.23 -25.65,-1.86z"/>
    <path class="fil3" d="M420.02 51c-1.52,1.34 -2.89,2.38 -4.86,2.79 -0.72,1.45 -3,3.05 -4.27,4.03 -1.98,1.53 -2.09,2.45 -3.85,3.67 -2.81,2.99 -3.87,3.58 -6.29,7.77 -3.97,6.89 -5.76,15.25 -4.37,23.22 0.93,5.35 0.63,7.78 0.92,13.02 -7.11,-1.21 -11.86,-5.4 -15.41,-9.05 -5.8,-5.96 -3.01,-9.67 0.07,-17.42 2.11,-5.33 6.9,-12.23 9.77,-15.32 2.18,-2.34 10.95,-9.75 14.82,-9.93 0.44,-0.4 0.42,-0.43 1.15,-0.86 0.5,-0.3 0.66,-0.37 1.24,-0.59 0.69,-0.26 1.64,-0.47 2.41,-0.67l6.16 -0.92c-1.22,-1.27 0.26,-0.61 -2.11,-1.08 -1.41,-0.28 -3.07,0.4 -4.62,0.9 -12.09,3.86 -21.81,12.38 -27.84,23.64 -6.75,12.61 -7.96,19.15 2.32,27.08 1.18,0.91 0.47,0.5 2.03,1.45 2.95,1.8 6.63,3.62 10.16,3.46 3.31,-9.98 -5.79,-29.03 9.33,-42.6 2.88,-2.58 4.7,-5.33 8.76,-8.11 2.71,-1.86 3.49,-2.65 5.24,-4.4l-0.76 -0.08z"/>
    <path class="fil3" d="M428.33 110.52c5.25,-0.04 15.17,-7.55 18.26,-10.03 3.64,-2.92 9,-9.45 11.29,-13.77l1.87 -2.35c5.15,7.24 0.81,19.73 -3.65,24.46 -5.85,6.2 -22.71,3.2 -28.65,3.9l-0.51 -0.05c7.6,3.11 24.96,2.1 29.9,-3.12 5.05,-5.35 9.28,-18.74 3.5,-25.86 -2.76,0.14 -2.5,1.17 -3.79,3.34 -2.93,4.92 -6.9,8.57 -10.54,12.26 -5.38,5.45 -13.46,8.28 -18.58,11.05l0.92 0.16z"/>
    <path class="fil3" d="M434.2 71.33c-0.89,13.39 -6.99,21.71 -17.19,28.18 -4.44,2.82 -5.39,4.43 -9.01,0.57 -3.56,-3.8 -3.58,-5.98 -1.5,-11.65 4.15,-11.31 14.83,-16.16 27.7,-17.09zm0.31 6.75c1.59,-7.7 1.25,-8.94 -6.8,-6.98 -4.1,1 -8.42,2.65 -11.73,4.61 -3.28,1.93 -6.96,4.77 -8.59,7.76 -1.4,2.57 -3.68,8.86 -3.27,12 0.37,2.85 5.13,7.92 7.53,7.72 5.16,-0.42 20.11,-11.83 22.86,-25.11z"/>
    <path class="fil3" d="M437.27 51.18c4.37,0.2 10.4,-2.53 17.4,-1.78 1.03,2.4 1.95,5.52 2.32,8.59 0.45,3.71 -0.06,8.09 0.61,11.4l0.35 1.11c1.66,-6.93 1.07,-17.58 -3.47,-22.06 -3.33,-0.66 -6.74,-0.03 -10.06,0.31 -1.41,0.14 -2.96,0.53 -4.37,0.81 -0.38,0.08 -2.3,0.46 -2.49,0.55 -2.32,1.02 -1.22,0.21 -0.3,1.07z"/>
    <path class="fil3" d="M380.66 105.05c2.12,0.72 2.03,0.39 3.31,2.31 2.05,0.5 4.19,2.23 6.59,3.16 2.39,0.93 5.51,1.47 7.64,2.27 1.8,3.92 2.94,9.12 6.19,11.85 0.58,-0.63 1.81,1.58 -0.24,-1.93 -6.03,-10.34 -2.03,-9.99 -9.96,-12.37 -10.61,-3.18 -11.13,-7.42 -16.41,-8.71 1.55,1.23 2.1,1.59 2.87,3.41z"/>
    <path class="fil3" d="M403.17 126.07c-3.06,-1.55 -7.26,-2.21 -10.63,-4.11 -3.4,-1.92 -7.09,-4.63 -8.88,-6.86 -1.98,-1.88 -3.79,-5.12 -5.39,-8.68l-0.71 -2.58c-0.79,0.8 -0.38,-0.32 -0.59,1.18 -0.65,4.67 13.53,22.14 27.17,21.84 -1.53,0.42 -0.22,0.15 -0.97,-0.78z"/>
    <path class="fil3" d="M420.28 66.91c-1.64,1.49 -5.41,2.95 -7.6,3.66 -1.09,1.25 -1.72,1.09 -3.02,2.34 -1.1,1.06 -2.02,1.96 -2.69,2.91 0.57,1.19 1.33,-0.58 4.89,-3.04 2.57,-1.78 3.5,-2.04 6.47,-3.39 3.67,-1.66 11.65,-4.01 15.36,-4.49 0.08,-2.42 -0.15,-3.94 -1.06,-5.77 -0.51,-1.04 -1.01,-1.64 -1.53,-2.6 -0.07,-0.13 -0.57,-1.14 -0.57,-1.15 -1.1,-1.17 0.13,-1.02 -1.02,-0.05 0.93,2.91 3.28,5.54 3.44,9.3 -4.78,0.26 -9.25,2.17 -12.68,2.28z"/>
    <path class="fil6" d="M413.9 23.14c18.49,-3.36 35.67,4.31 43.19,14.42 5.23,7.03 2.01,2.72 9.45,5.83 19.21,8.01 27.25,30.62 19.92,48.59 -2.7,6.62 -8.42,13.62 -12.69,16.51 -1.64,1.11 -2.7,2.14 -4.39,3.26 -1.74,1.15 -2.69,1.5 -4.92,2.6 -2.17,1.07 -10.76,9.31 -16.22,12.92 -21.59,14.27 -61.8,10.51 -74.38,-11.74 -5.78,-10.21 -3.89,-12.63 -4.9,-24.06 -0.76,-8.64 -4.51,-11.52 -1.55,-26.39 1.63,-8.21 7.89,-19.91 12.43,-24.32 3.69,-3.58 7.8,-7.18 12.35,-9.81 6.8,-3.94 12.45,-6.14 21.69,-7.81zm-52.61 124.34c0,0 0,0 0,0z"/>
    <path class="fil6" d="M376.93 70.34c2.38,-0.99 4.72,-8.07 7.74,-10.74 6.4,-5.65 8.33,-9.23 18.52,-13.6 6.16,-2.64 14.2,-4.62 21.86,-2.68 6.56,1.66 4.54,1.45 10.83,-0.19 2.64,-0.69 8.62,-1.66 10.33,-2.42 -12.02,-13.74 -45.09,-9.38 -57.79,5.7 -0.61,0.73 -0.97,1.25 -1.59,1.89 -0.82,0.86 -1.11,0.93 -2.03,2.03 -2.2,2.66 -10.03,16.37 -7.87,20z"/>
    <path class="fil6" d="M406.54 53.79c2.66,-0.62 0.63,-0.24 1.5,0.5 -16.83,6.17 -31.69,32.07 -26.7,39.21 2.17,3.11 8.48,9.29 14.42,9.28 0.06,-9.5 -2.84,-16.13 -0.11,-25.66 1.14,-3.99 4.9,-11.19 7.28,-13.81 0.28,-0.31 1.82,-1.77 1.87,-1.8 3.88,-2.61 1.3,-0.99 2.24,-0.02 1.75,-1.22 1.87,-2.14 3.85,-3.67 1.26,-0.98 3.55,-2.57 4.27,-4.03 -1.37,-0.68 -2.92,-1.07 -3.82,-2.12 -0.77,0.2 -1.72,0.4 -2.41,0.67 -0.59,0.23 -0.74,0.29 -1.24,0.59 -0.73,0.43 -0.71,0.46 -1.15,0.86z"/>
    <path class="fil6" d="M479.23 74.12c-0.91,-7.56 -8.31,-19.8 -14.06,-19.78 0.36,4.13 0.85,6.86 0.83,11.5 -0.02,4.2 -1.81,8.09 -0.62,11.23 1.16,3.07 3.05,4.46 3.95,8.91 0.82,4.03 0.18,8.21 0.51,12.28 2.06,-0.57 3.15,-2.49 4.18,-4.09 4.09,-6.33 6.3,-11.03 5.21,-20.05z"/>
    <path class="fil6" d="M432.34 73.39c-15.11,-0.81 -30.96,16.41 -23.96,25.15 5.66,7.06 24.66,-12.61 23.96,-25.15z"/>
    <path class="fil6" d="M433.85 111.42c6.17,0.66 18.24,0.23 21.49,-3.88 2.65,-3.36 5.16,-9.5 5.25,-14.3 0.01,-0.88 -0.04,-1.98 -0.24,-2.84l-1.19 -2.44c-0.1,0.1 -0.24,0.14 -0.28,0.33l-2.18 3.08c-3.15,4.47 -4.55,5.99 -8.59,9.5 -5.02,4.37 -4.63,4.48 -10.5,7.57 -0.67,0.35 -1.37,0.61 -1.88,0.93 -2.44,1.54 -1,-0.22 -1.88,2.05z"/>
    <path class="fil6" d="M437.79 53.15l4.04 10.08c2.21,0.73 5.21,1.03 7.18,1.76 3,1.11 3.45,2.35 6.9,2.88 -0.23,-5.24 -0.11,-13.53 -2.72,-16.91 -4.53,-0.44 -12.22,0.32 -15.41,2.19z"/>
    <path class="fil6" d="M431.09 99.18c7.94,-1.63 20.37,-15.01 21.56,-21.09 -2.41,-1.97 -6.04,-4.45 -9.82,-4.13 -1.7,3.78 -0.12,7.24 -4.06,14.64 -1.04,1.95 -2.2,3.61 -3.78,5.55 -0.88,1.08 -3.25,3.78 -3.9,5.03z"/>
    <path class="fil6" d="M434.74 122.41c-0.47,-0.37 -0.26,-0.36 -1.12,-0.73 -2.03,-0.86 -6.94,-0.61 -13.03,-2.53 -4.04,-1.27 -9.75,-5.61 -12.46,-5.07 -0.17,3.54 5.27,10.42 8.88,11.48 2.39,0.7 16.13,-0.02 17.72,-3.16z"/>
    <path class="fil6" d="M378.28 106.42c1.6,3.57 3.4,6.81 5.39,8.68 0.38,-0.36 -1.37,-3.66 4.13,1.65 1.92,1.85 9.18,6.31 12.98,6.24 -0.38,-2.39 -2.75,-8.54 -6.97,-9.85 -3.86,-1.2 -5.83,-1.49 -9.08,-3.8 -2.37,-1.68 -2.18,-0.98 -0.77,-1.99 -1.28,-1.91 -1.19,-1.59 -3.31,-2.31 -0.57,1.11 0.69,0.9 -0.82,0.98 -0.01,1.37 0.21,0.11 -1.57,0.39z"/>
    <path class="fil6" d="M412.68 70.58c2.19,-0.71 5.96,-2.17 7.6,-3.66 -1.13,-0.68 -2.86,-0.33 4.36,-2.56 2.03,-0.63 4.79,-0.89 6.36,-1.61 -1.67,-9.58 -7.31,-3.56 -12.8,0.1 -2.54,1.7 -6.31,4.7 -5.52,7.74z"/>
    <path class="fil12" d="M405.59 112.58c6.67,-1.13 6.72,2.6 16.56,5.52 8.37,2.48 13.05,1.68 21.39,1.61 -0.83,0.98 0.05,0.2 -1.06,1.08 -1.79,1.42 -7.2,3.39 -9.3,4.11 -4.15,1.43 -8.13,2.25 -12.56,2.36 -8.61,0.21 -12.52,-7.88 -15.03,-14.68zm-27.8 -10.94c5.27,1.29 5.79,5.53 16.41,8.71 7.93,2.38 3.93,2.03 9.96,12.37 2.05,3.51 0.82,1.3 0.24,1.93l0.33 1.38 -1.55 0.05c0.76,0.93 -0.55,1.2 0.97,0.78 -13.64,0.3 -27.81,-17.17 -27.17,-21.84 0.21,-1.49 -0.21,-0.38 0.59,-1.18l-0.39 -1.83 0.61 -0.37zm49.65 11.11c-0.38,-1.24 -0.65,0.2 -0.02,-1.12 0.14,-0.29 0.8,-0.99 0.91,-1.1l-0.92 -0.16c5.13,-2.77 13.21,-5.61 18.58,-11.05 3.64,-3.69 7.62,-7.34 10.54,-12.26 1.29,-2.17 1.03,-3.2 3.79,-3.34 5.79,7.12 1.56,20.51 -3.5,25.86 -4.93,5.22 -22.3,6.23 -29.9,3.12l0.51 0.05zm-5.95 -7.51c0.12,-0.14 0.3,-0.52 0.37,-0.41l3.56 -2.73c2.99,-1.87 7.48,-6.69 9.78,-10.07 4.3,-6.32 5.46,-11.6 5.96,-20.31 5.4,0.42 9.46,3.47 13.29,5.19 -0.9,6.52 -9.43,14.85 -12.65,17.65 -5.51,4.8 -12.99,9.06 -20.32,10.68zm13.01 -27.14c-2.75,13.27 -17.7,24.68 -22.86,25.11 -2.4,0.2 -7.16,-4.88 -7.53,-7.72 -0.41,-3.14 1.87,-9.42 3.27,-12 1.63,-2.99 5.31,-5.83 8.59,-7.76 3.32,-1.95 7.63,-3.61 11.73,-4.61 8.05,-1.96 8.39,-0.72 6.8,6.98zm-27.53 -2.25c-2.06,0.6 -0.87,0.37 -1.56,-0.08 2.2,-5.18 6.65,-9.62 9.95,-12.29 2.45,-1.98 10.3,-8.1 14.15,-8.13 1.15,-0.97 -0.08,-1.12 1.02,0.05 0,0 0.5,1.02 0.57,1.15 0.53,0.96 1.02,1.56 1.53,2.6 0.91,1.83 1.14,3.35 1.06,5.77 -3.71,0.48 -11.69,2.83 -15.36,4.49 -2.98,1.35 -3.9,1.62 -6.47,3.39 -3.56,2.46 -4.32,4.23 -4.89,3.04zm55.69 -25.03c5.12,1.62 9.84,5.92 11.95,8.89 2.7,3.8 5.69,9.27 6.15,15.23 0.5,6.32 -0.49,11.63 -3.48,16.66 -2.71,4.56 -6.51,9.39 -10.16,11.49 0.99,-5.73 2.26,-7.15 1.42,-13.88 -0.75,-6 -2.53,-7.46 -4.67,-11.18 -1.72,-3.01 0.83,-9.31 0.86,-13.33 0.04,-5.56 -1.68,-9.37 -2.07,-13.87zm-5.06 18.57l-0.97 0.79c-0.05,-0.11 -0.28,0.13 -0.4,0.22 -1.99,-2.36 -8.17,-4.49 -11.7,-5.1l-4.2 -1.21c-0.88,-2.07 -1.22,-4.28 -2.13,-6.39l-2.33 -4.11c-0.68,-1.19 0.02,0.54 -0.6,-1.21l2 -1.19c-0.92,-0.86 -2.02,-0.05 0.3,-1.07 0.19,-0.08 2.11,-0.47 2.49,-0.55 1.41,-0.27 2.96,-0.66 4.37,-0.81 3.31,-0.34 6.73,-0.97 10.06,-0.31 4.54,4.48 5.13,15.13 3.47,22.06l-0.35 -1.11zm-40.1 -18.63l2.52 0.25 0.76 0.08c-1.75,1.75 -2.53,2.54 -5.24,4.4 -4.06,2.78 -5.88,5.53 -8.76,8.11 -15.12,13.57 -6.02,32.62 -9.33,42.6 -3.53,0.17 -7.2,-1.66 -10.16,-3.46 -1.56,-0.95 -0.85,-0.54 -2.03,-1.45 -10.28,-7.94 -9.08,-14.47 -2.32,-27.08 6.03,-11.26 15.75,-19.78 27.84,-23.64 1.55,-0.49 3.2,-1.18 4.62,-0.9 2.37,0.47 0.89,-0.19 2.11,1.08zm-42.29 27.31c-3.39,-5 3.68,-21.79 6.36,-25.67 10.54,-15.25 26.34,-22.43 45.86,-21.21 7.76,0.49 20.69,6.26 22.25,11.08 -16.09,0.78 -15.33,5.31 -23.01,2.97 -14.42,-4.38 -33.03,5.06 -40.66,14.5 -7.83,9.69 -6.37,10.09 -10.79,18.31zm38.12 -51.96c-7.52,1.02 -15.19,4.26 -20.75,7.59l-8.62 7.13c-1.55,1.91 -1.18,0.78 -2.71,2.5 -8.46,9.45 -13.23,23.87 -11.71,37.03 0.43,3.7 2.24,8.56 2.36,11.69 0.26,6.9 -0.51,18.61 7.15,25.89 4.37,4.15 6.68,7.03 12.91,9.84 13.09,5.91 33.92,7.34 47.02,1.21 16.48,-7.72 18.67,-14.46 24.5,-17.48 9.67,-5.01 16.43,-11.26 20.58,-21.33 5.02,-12.16 1.3,-23.25 -4.86,-33.35 -0.93,-1.52 -0.14,-0.67 -1.46,-2.03 -0.56,-0.58 -1.14,-1.06 -1.77,-1.7 -4.05,-4.05 -7.12,-5.84 -13.12,-7.77 -10.75,-3.45 -2.77,-4.02 -15.31,-12.75 -10.26,-7.15 -21.76,-8.18 -34.2,-6.49z"/>
   </g>
   <path class="fil12" d="M396.76 302.56c-2.08,0.42 -0.99,0.09 -1.41,1.02 2.81,-1.81 0.36,-0.52 1.41,0.77 -6.13,1.89 -5.74,10.53 -2.33,12.32 5.15,0.74 8.23,-0.71 8.32,-5.9 0.12,-6.97 -4.33,-5.92 -5.99,-8.22z"/>
   <path class="fil12" d="M204.9 152.79c4.79,-0.66 5.1,-7.69 4.57,-8.8 -1.11,-1.07 -1.39,-1.63 -2.83,-2.46 -2.29,0.66 -3.7,2.45 -4.31,5.15 -1.03,4.6 1.38,4.21 2.56,6.12z"/>
   <path class="fil12" d="M249.22 146.07c-5.24,0.48 -6.49,8.54 -2.81,9.55 3.47,0.95 7.23,-5.08 2.81,-9.55z"/>
   <path class="fil6" d="M361.95 122.89c-10.05,17.06 1.31,21.61 -30.14,51.19l62.79 -25.85 -32.65 -25.34z"/>
  </g>
 </g>
</svg>
