<?xml version="1.0" encoding="UTF-8"?>
<!DOCTYPE svg PUBLIC "-//W3C//DTD SVG 1.1//EN" "http://www.w3.org/Graphics/SVG/1.1/DTD/svg11.dtd">
<!-- Creator: CorelDRAW -->
<svg xmlns="http://www.w3.org/2000/svg" xml:space="preserve" width="42.2509mm" height="42.1202mm" version="1.1" style="shape-rendering:geometricPrecision; text-rendering:geometricPrecision; image-rendering:optimizeQuality; fill-rule:evenodd; clip-rule:evenodd"
viewBox="0 0 630.06 628.11"
 xmlns:xlink="http://www.w3.org/1999/xlink"
 xmlns:xodm="http://www.corel.com/coreldraw/odm/2003">
 <defs>
  <style type="text/css">
   <![CDATA[
    .fil0 {fill:#FEFEFE}
    .fil2 {fill:#010727}
    .fil3 {fill:#0B2647}
    .fil10 {fill:#2A475E}
    .fil5 {fill:#44677D}
    .fil12 {fill:#457B9D}
    .fil6 {fill:#6D95A3}
    .fil1 {fill:#85380D}
    .fil11 {fill:#A8DADC}
    .fil7 {fill:#B47A4C}
    .fil4 {fill:#D99466}
    .fil15 {fill:#F4F4F4}
    .fil8 {fill:#FBC49A}
    .fil9 {fill:#FDE8C6}
    .fil14 {fill:#FFB6B9}
    .fil13 {fill:#FFD166}
   ]]>
  </style>
 </defs>
 <g id="Camada_x0020_1">
  <metadata id="CorelCorpID_0Corel-Layer"/>
  <g id="_2018333128624">
   <g>
    <path class="fil0" d="M367.87 539.1c0.01,4.53 -2.73,11.63 -2.45,17.41 0.28,5.78 3.57,10.24 4.56,13.46 1,3.22 -0.3,5.18 -6.91,5.8 -6.61,0.61 -18.53,-0.13 -32.34,-0.39 -13.81,-0.27 -29.51,-0.06 -42.2,-0.01 -12.69,0.05 -22.36,-0.05 -29.69,-2.08 -7.33,-2.03 -12.32,-5.98 -15.13,-9.46 -2.81,-3.48 -3.43,-6.5 -2.76,-9.98 0.68,-3.48 2.65,-7.43 5.2,-11.35 2.55,-3.91 5.67,-7.79 9.67,-9.72 4,-1.94 8.89,-1.94 16.12,-1.61 7.23,0.33 16.79,0.98 27.92,1.46 11.13,0.48 23.81,0.79 34.49,0.43 10.67,-0.36 19.33,-1.39 25.04,-0.92 5.71,0.47 8.46,2.43 8.47,6.96z"/>
    <g>
     <path class="fil1" d="M409.23 250.2c0.79,1.51 0.76,-0.14 6.68,-0.31 3.29,-0.1 4.27,0.43 6.3,-1.51 2.84,-2.71 3.51,-4.56 9.1,-6.71 9.87,-3.8 18.93,-0.28 24.64,4.81 5.51,4.91 2.51,4.43 10.21,2.28 9.75,-2.72 21.59,2.34 25.15,13.71 1.09,3.47 0.73,5.42 2.27,6.34 -0.92,-13.05 -9.83,-21.15 -20.89,-21.82 -6.51,-0.39 -7.41,1.65 -11.87,2.6 -7.1,-9.28 -19.91,-13.65 -32.05,-7.91 -3.51,1.66 -6.14,4.62 -8.44,7.05 -5.47,0.1 -6.09,-0.27 -11.09,1.46z"/>
     <path class="fil1" d="M502.76 332.27c1.38,-1.04 2.08,-1 3.35,-2.21 3.3,-3.14 5.4,-5.29 7.2,-10.41 2.44,-6.93 0.45,-13.56 -3.62,-17.25 2.49,-6.98 3.06,-14.68 -0.64,-21.85 -2.96,-5.74 -7.38,-10.97 -15.35,-11.82 1.84,2.46 4.12,0.12 9.76,5.96 1.8,1.86 1.95,1.46 3.9,4.84 3.51,6.09 3.71,12.26 2.16,19.68 -0.97,4.6 0.88,4.94 2.5,8.61 3.96,8.98 -2.48,19.58 -9.74,23.68 -0.22,1.62 -0.19,0.37 0.49,0.78z"/>
     <path class="fil1" d="M325.73 360.16c0.16,-0.62 -0.82,-2.17 -0.58,-4.68 0.86,-0.6 2.05,-0.97 2.61,-2.08 -1.71,0.59 -2.93,0.89 -3.42,2.6 -0.5,1.75 0.31,3.42 1.39,4.16z"/>
     <path class="fil2" d="M284.7 478.55c-0.87,-1.02 -0.94,0.46 -1.53,1.81 -2.82,6.35 -6.28,12.65 -11.23,17.35 -6.49,6.17 -9.16,9.15 -19.43,13.15 -28.66,11.17 -81.29,6.36 -92.16,-27.3 -0.84,-2.6 -0.91,-4.34 -1.43,-7.03 -0.56,-2.9 -1.11,-3.21 -3.41,-4.43 -4.37,-2.34 -8.24,-5.39 -11.56,-9.11 -4.36,-4.88 -7.07,-13.77 -7.96,-20.19 -1.52,-10.87 1.79,-10.67 -1.5,-14.36 -8.51,-9.55 -13.57,-22.86 -12.1,-36.71 0.53,-5.04 1.31,-9.19 2.99,-13.24 2.21,-5.31 0.07,-4.19 -2.77,-11.68 -3.12,-8.24 -4.38,-19.28 -3,-28.86 1.38,-9.59 4.48,-16.9 8.98,-23.66 4.43,-6.66 2.61,-4.09 2.83,-13.26 0.12,-5.05 0.58,-10.04 1.67,-14.75 2.71,-11.71 9.2,-23.99 18.81,-30.08 1.93,-1.22 6,-3.38 8.42,-3.91 1.57,-0.34 2.08,-0.2 2.95,-1.05 -8.57,-1.12 -19.19,9.47 -23.5,16.15 -7.16,11.1 -10.2,25.18 -9.05,39.83 0.16,2.1 0.19,2.51 -0.9,3.9 -3.79,4.84 -6.78,10.38 -8.86,16.66 -4.28,12.87 -3.69,29.53 1.85,41.93 0.85,1.9 3.34,4.52 2.6,6.49 -2.2,5.82 -3.49,8.86 -3.97,15.94 -1.04,15.37 3.81,26.59 12.18,36.74 2.5,3.03 1.04,1.46 1.01,8.15 -0.06,13.31 5.8,26.7 16.52,33.71 1.83,1.2 6.05,2.79 6.57,3.7 1.03,1.79 -0.31,19.74 19.9,31.92 22.56,13.6 62.08,14.73 83.97,1.22 5.62,-3.47 9.92,-7.64 13.69,-12.28 2.36,-2.9 8.89,-12.17 9.43,-16.76z"/>
     <path class="fil2" d="M163.26 251.24c3.56,0.53 -3.67,-7.37 3.47,-22.47 3.05,-6.45 6.45,-10.88 12.04,-15.24 4.79,-3.73 11.36,-6.92 18.1,-9.17 1.89,-0.63 3.35,-0.96 5.18,-1.46 4.57,-1.26 0.93,-4.18 8.01,-12.66 5.99,-7.17 22.29,-15.57 35.53,-18.56 10.82,-2.45 24.9,-2.4 33.6,4.68 2.75,2.24 3.92,4.73 6.47,7.03 4.58,-1.33 7.57,-17.77 39.24,-11.84 13.63,2.55 36.14,13.29 40.58,26.79 1.48,4.5 1.11,2.76 8.46,5.17 19.19,6.29 33.54,19.02 33.64,40.3l0.24 6.27c0.02,0.07 0.07,0.2 0.13,0.29l0.44 -0.87c0.15,-13.42 -1.39,-23.57 -11.13,-33.66 -11.92,-12.34 -28.68,-14.18 -29.79,-15.03 -0.92,-0.71 -0.61,-3.94 -5.44,-10.02 -6.18,-7.79 -19.23,-15.17 -29.34,-18.2 -13.92,-4.17 -32.23,-6.11 -43.01,5.71 -1.54,1.7 -2.18,2.99 -3.58,4.44 -1.98,-1.36 -10.57,-21.63 -47.77,-10.02 -7.99,2.49 -15.57,6.43 -21.55,10.57 -6.11,4.23 -11.3,9.11 -13.36,18.79 -10.74,0.39 -25.84,10.13 -30.18,15.13 -3.53,4.08 -6.39,7.92 -8.7,14.19 -3.61,9.82 -0.92,15.95 -1.27,19.83z"/>
     <path class="fil2" d="M431.76 595.4c2.36,3.52 3.25,11.76 2.35,16.6 -0.96,5.23 -8.81,5.06 -14.05,5.52 -9.76,0.85 -27.84,1.63 -36.5,-1.14 -3.27,-1.04 -4.38,-2.85 -2.67,-6.22 1.2,-2.37 2.52,-3.47 4.31,-5.31 2.78,-2.85 7.76,-5.58 11.98,-7.81 9.63,-5.08 9.12,-2.64 15.64,-2.16 6.35,0.47 12.54,0.47 18.94,0.52zm-52.45 15.49c-0.22,2.2 -0.06,2.97 0.58,4.84 1.64,0.17 0.75,2.93 18.13,3.37 7.31,0.18 14.28,0.04 21.52,-0.6 6.47,-0.57 14.47,-0.16 15.6,-6.4 0.65,-3.55 0.79,-16.8 -4.14,-18.04 -0.11,0.06 -0.25,0.12 -0.34,0.15l-25.74 -1.48c-2.69,1.11 -5.04,1.69 -7.7,2.98 -2.71,1.32 -4.72,2.45 -7.1,3.91 -3.78,2.32 -8.57,6.41 -10.81,11.28z"/>
     <path class="fil2" d="M444.29 619.06c-1.02,-7.2 9.4,-15.44 14.95,-19.41 5.91,-4.22 6.92,-2.25 14.31,-2.11 5.78,0.11 10.68,-0.9 16.36,-0.86 3.84,14.18 7.84,20.88 -9.84,23.31 -8.55,1.18 -29.55,3.03 -35.78,-0.94zm26.29 -22.68l-7.11 -0.44c-8.48,3.43 -27.32,21.08 -17.99,25.01 3.71,1.56 10.59,1.5 14.9,1.44 7.21,-0.11 22.84,-0.89 28.69,-3.48 9.62,-4.26 3.2,-15.03 1.75,-23.52 -3.17,0.01 -6.23,0.9 -9.75,0.99 -3.49,0.09 -6.99,-0.01 -10.48,0.01z"/>
     <path class="fil2" d="M398.28 503.21l-0.13 -0.64 -0.14 -0.78c-1.45,2.37 -9.62,6.24 -13.36,7.83 -25.44,10.85 -59.82,9.51 -82.01,-8.16 -5.05,-4.03 -10.44,-11.52 -13.58,-17.67 -1.23,-2.4 -2.45,-6.81 -3.35,-5.64 3.68,7.84 1.34,4.69 6.95,13.49 18.85,29.57 70.33,32.09 99.22,15.54 2.23,-1.28 4.74,-3.14 6.4,-3.96z"/>
     <path class="fil3" d="M149.66 267.59c0.96,-0.27 2.34,-3.07 6.19,-5.23 2.55,-1.44 6.93,-2.45 10.46,-1.65 1.94,0.44 3.76,3.88 5.54,6.25 0.86,1.14 2.18,1.96 3.17,2.98l6.1 5.79c1.19,1.1 1.66,2.35 2.86,3.3 3.08,2.44 7.52,1.4 8.07,-1.79 0.58,-3.39 -3.11,-6.02 -4.55,-7.47l-6.79 -5.53c-3.24,-2.31 -7.81,-10.34 -9.04,-15.13 -3.16,-12.31 4.62,-25.32 14.97,-31.67 2.33,-1.43 14.51,-7.24 17.2,-6.79 1.14,2.47 1.79,5.8 3.19,8.34 4.27,7.8 12.91,12.44 22.7,11.59 3.91,-0.34 5.91,-1.47 9.24,-2.17 2.38,-0.5 8.63,-0.52 9.93,-1.54 3.68,-2.9 1.52,-9.92 -11.63,-6.8 -7.21,1.71 -12.18,3.54 -18.49,-0.92 -6.53,-4.61 -10.12,-16.6 -3.05,-23.68 1.94,-1.94 3.5,-3.48 6.15,-5.29 4.18,-2.87 10.02,-5.91 15.39,-7.94 11.97,-4.51 27.24,-7.77 36.97,0.35 3.56,2.97 7.51,8.05 7.55,15.45 0.06,11.39 0.41,110.8 -0.13,115.68 -5.72,0.34 -8.81,1.51 -15.09,0.61 -4.81,-0.69 -9.02,-1.83 -12.89,-3.79 -1.84,-0.93 -3.51,-2.06 -5.08,-3.28 -2.08,-1.62 -2.76,-2.15 -4.12,-4.25 -2.82,-4.33 -3.68,-7.24 -3.25,-13.44 0.6,-8.82 7.74,-25.52 -13.65,-32.62 -3.72,-1.23 -10.65,-2.41 -11.05,3.22 -0.5,7.21 8.39,1.97 15.41,9.17 4.79,4.91 0.75,14.2 0.47,21.11 -0.21,5.07 0.75,9.9 2.79,13.91 3.49,6.83 9.73,12.27 18.01,15.47 10.76,4.16 17.04,3.94 28.53,2.25 -0.69,40.13 0.03,84.18 0.04,125.07 0,17.54 -3.92,34.87 -16.36,46.24 -0.55,0.5 -0.89,0.74 -1.41,1.24 -0.53,0.53 -0.67,0.86 -1.22,1.39 -1.57,1.51 -7.7,5.26 -9.63,6.24 -19.99,10.23 -55.39,8.07 -75.39,-6.22 -5.82,-4.16 -10.77,-13.21 -11.25,-20.65l-0.7 1.25c-0.22,0.84 -0.17,0.09 -0.1,1.21l1.9 6.27c0.84,2.44 3.32,6.94 4.74,8.48 17.52,19.08 59.87,21.25 80.75,10.96 6.37,-3.14 7.69,-4.5 12.49,-8.69 1.84,-1.61 3.53,-3.33 5.07,-5.52 0.79,-1.13 1.58,-1.96 2.3,-3.01 0.78,-1.13 1.45,-2.39 2.14,-3.62 5.71,-10.17 7.88,-21.08 7.86,-34.26 -0.03,-18.54 0.77,-123.51 -0.84,-126.89 -5.79,-0.55 -15.12,2.72 -28.07,-2.7 -9.37,-3.92 -13.28,-7.18 -17.99,-15.32 -6.91,-11.93 3.42,-26.21 -2.9,-34.55 -5.42,-7.15 -17.14,-3.63 -15.43,-9.1 1.36,-4.34 6.86,-2.72 10.88,-1.23 5.44,2.01 6.65,4.02 9.69,6.93 6.73,6.43 1.42,18.46 1.73,27.5 0.17,5.02 1.97,9.45 4.46,12.06l4.55 3.91c11.55,8.26 31.17,7.68 33.51,4.75 1.06,-1.33 0.31,-83.59 0.42,-92.47 0.11,-8.97 1.18,-25.16 -2.15,-32.1 -1.68,-3.5 -5.29,-7.69 -8.24,-9.46 -1.25,-0.75 -2.21,-1.34 -3.85,-1.95 -13.29,-4.99 -34.64,3.54 -45.81,10.22 -4.95,2.96 -9.21,6.34 -11.37,12 -2.4,6.28 0.94,14.15 3.89,17.96 3.87,4.99 12.19,5.34 17.93,4.07 2.84,-0.62 6.91,-2 9.58,-1.86 2.91,0.14 7.02,1.25 6.13,4.29 -0.88,3 -5.36,1.88 -8.69,2.48 -3.15,0.56 -6.31,1.84 -9.69,2.29 -6.54,0.85 -13.91,-1.49 -17.67,-4.89 -2.06,-1.86 -3.77,-3.8 -5.08,-6.28 -1.34,-2.54 -1.89,-5.63 -3.71,-8.39 -5.77,0.48 -13.63,4.01 -17.86,6.48 -13.28,7.78 -21.29,24.99 -12.71,40.9 1.04,1.93 3.73,5.96 5.2,7.21 3.19,2.72 12.06,9.08 11.98,12.03 -0.07,2.6 -3.06,4.09 -6.95,0.96 -2.49,-2.01 -4.05,-4.45 -5.96,-6.34 -1.8,-1.78 -4.42,-3.93 -5.87,-5.99 -1.84,-2.61 -2.86,-5 -6.97,-5.47 -6.93,-0.8 -11.19,2.24 -15.33,6.56 -1.65,1.72 -1.27,0.93 -0.1,1.49z"/>
     <path class="fil3" d="M155 576.46l0.67 0.01c-0.82,-3.24 -6.34,-3.71 -8.78,-15.13 -2.5,-11.71 0.53,-28.39 15.1,-30.33 3.76,-0.5 65.45,-0.2 72.17,-0.17l95.94 0c7.93,-0.05 15.82,0.09 23.77,-0.04 3.54,-0.06 14.96,-0.77 16.73,1.24 0.99,1.13 1.22,3.24 0.03,4.49 -1.78,1.86 -19,1.06 -22.92,1.08 -56.07,0.3 -112.53,-0.63 -168.57,-0.28 -7.03,0.04 -18.36,-1.11 -21.79,2.03 -9.25,8.47 -6.09,31.19 5.48,31.4 39.53,0.73 80.35,-0.5 120.17,0.06l84.06 0.13c4.08,-0.03 7.95,-0.46 7.78,4.29 -1.86,2.27 -2.59,1.96 -6.46,1.89l-25.97 0.32c-11.88,0 -23.77,-0.01 -35.65,0l-52.81 0.01c-2.71,-0.01 -15.63,-0.87 -18.01,1.08l1.14 -0.14 135.98 -0.13c2.4,-0.48 4.1,-2.74 2.91,-5.75 -0.33,-0.82 -1.6,-1.98 -2.55,-2.31 -1.37,-0.46 -3.03,-0.31 -4.48,-0.29l-107.09 0.07c-9.73,0.61 -20.9,0.11 -30.78,0.11l-61.62 0.01c-5.51,0.01 -10.08,0.69 -12.67,-2.88 -4.42,-6.12 -5.2,-17.72 -1.03,-24.58 3.16,-5.19 5.99,-4.56 11.05,-4.51 12.17,0.12 87.72,-0.58 92.37,0.34l2.7 0.12c33.38,-0.77 67.31,0.36 100.79,-0.04 3.88,-0.04 8.49,0.93 9.83,-2.39 1.57,-3.89 -1.54,-6.49 -5.41,-6.55 -24.65,-0.4 -51.78,-0.08 -76.6,-0.07 -33.74,0.01 -67.48,0.02 -101.23,-0 -8.29,-0 -16.85,-0.21 -25.11,0 -8.33,0.21 -13.12,4.26 -16.02,9.42 -6.44,11.45 -3.05,33.21 6.87,37.5z"/>
     <path class="fil3" d="M291.5 396.89c2.6,3.46 11.63,4.57 16.76,3.84 8.72,-1.25 26.18,-6.97 26.18,12.1 -0,3.29 -0.42,6.88 -0.26,10.12 0.18,3.58 4.01,4.98 6.82,3 2.6,-1.83 2.34,-15 1.69,-19.15 -0.85,-5.39 -3.68,-10.17 -8.1,-12.99 -17.07,-10.92 -27.32,7.07 -42.77,-8.29 -2.25,-2.23 -1.87,-2.11 -1.86,-7.46l0.05 -149.2c0.03,-7.03 -0.01,-14.09 -0.03,-21.12 -0.01,-6.98 -1.07,-13.16 2.09,-19.1 8.39,-15.74 31.77,-11.69 46.63,-4.46 5.14,2.5 8.85,5.4 12.81,8.3 3.4,2.49 7.65,7.03 7.74,13.49 0.1,6.67 -3.24,12.18 -6.73,14.96 -9.57,7.65 -24.17,-2.03 -35,7.24 -3.68,3.15 -6.49,7.21 -6.63,14.34 -0.26,12.75 8.97,9.86 9.23,5.27 0.13,-2.29 -3.07,-11.76 5.46,-14.61 7.23,-2.42 18.79,2.2 28.45,-2.8 6.36,-3.29 13.56,-12.86 12.86,-19.3l-0.27 -1.12c-2.3,6.34 -1.72,8.1 -5.6,12.91 -2.28,2.83 -6.01,6.49 -10.56,7.79 -10.51,3.02 -35.13,-5.25 -31.71,14.81 0.43,2.53 0.14,5.62 -3.51,4.84 -5.2,-1.11 -5.11,-18.11 6.81,-23.73 4.91,-2.31 11.43,-1.77 16.92,-1.43 8.27,0.5 12.5,-1.21 16.79,-5.86 2.42,-2.62 3.7,-6.34 4.4,-9.91 2.27,-11.38 -6.87,-17.77 -14.72,-22.76 -6.61,-4.2 -17.66,-9.49 -27.65,-9.81 -6.93,-0.22 -17.43,0.38 -22.3,5.53 -2.04,2.16 -2.94,2.8 -4.25,5.52 -2.82,5.85 -2.72,9.16 -2.46,16.34 0.22,6.13 0.05,12.34 0.11,18.48 0.37,36.89 -0.29,74.9 -0.08,111.79 0.07,12.31 0.17,24.66 -0.04,36.97 -0.12,7.26 -0.77,11.58 2.97,15.88 9.36,10.8 22.37,3 29.99,3.77 5.65,0.57 10.8,2.03 13.85,5.25 3.85,4.07 5.29,5.25 6.25,12.17 0.24,1.74 0.4,15.72 -1.72,16.75 -2.46,0.43 -3.67,0.26 -4.76,-1.18 -1.45,-3.79 5.22,-24.47 -11.08,-26.28 -6.39,-0.71 -25.73,5.55 -31.64,-1.62 -1.96,-0.15 -0.34,-0.19 -1.15,0.69z"/>
     <path class="fil3" d="M131.91 367.42c0.24,0.22 -0.69,1.93 3.08,-1.36 3.28,-2.86 5.29,-3.85 9.94,-4.85 5.51,-1.18 12.03,-0.3 16.36,2.18 4.52,2.59 6.87,6.47 7.68,7.18 1.21,1.07 1.33,1.33 2.34,2.54 5.16,6.24 14.86,6.2 22.52,2.52 2.51,-1.21 3.74,-2.8 5.32,-4.42 2.83,-2.9 1.98,-2.28 4.12,-6.05 1.04,-1.82 2.59,-4.63 5.53,-2.62 3.68,2.52 -3.61,11.56 -4.37,12.24 -1.87,1.67 -3.05,3.24 -5.27,4.76 -6.67,4.55 -15.09,6.66 -23.35,3.98 -5.58,-1.8 -8.69,-6.04 -12.31,-10.04 -0.55,-0.61 -0.76,-0.86 -1.28,-1.4 -6.87,-7.21 -18.35,-5.91 -24.96,0.2 -12.18,11.26 -10.86,34.56 -0.72,48.75 4.65,6.51 3.26,3.49 6.72,7.63 -1.91,8.9 -1.47,14.94 1.72,23.07 6.07,15.48 19.98,17.89 35.1,15.97 8.34,-1.06 19.13,-6.07 20.65,-5.45 6.22,5.6 -6.25,8.59 -11.38,10.03 -2.86,0.8 -6.94,1.61 -10.63,2.04 -4.07,0.47 -8.29,-0.19 -12.36,0.29 -0.49,0.69 -0.37,0.41 0.23,0.94 1.84,-0.31 6.86,0.19 9.47,0.05 7.46,-0.42 17.49,-2.82 23.85,-5.9 2.41,-1.17 4.83,-2.34 3.68,-6.09 -1.93,-6.3 -10.71,0.78 -21.26,2.63 -12.16,2.14 -24.77,0.33 -31.3,-6.85 -7.99,-8.79 -8.84,-19.94 -6.42,-31.18 -1,-1.1 -1.68,-2.05 -2.61,-2.91 -6.45,-6.01 -10.71,-13.62 -11.89,-22.93 -2.92,-22.95 9.99,-38.05 25.05,-33.37 2.41,0.75 5.13,2.58 6.27,3.85 4.97,5.55 7.78,10.69 16.94,12.59 5.45,1.13 11.94,-0.16 16.66,-2.07 5.88,-2.38 6.93,-4.72 8.93,-6.49 1.43,-1.27 1.32,-1.05 2.35,-2.49 2.04,-2.86 7.57,-10.14 3.07,-12.96 -4.94,-3.09 -7.24,3.45 -8.56,5.71 -2.76,4.72 -8.01,8.91 -14.75,9.79 -11.99,1.57 -14.86,-6.74 -18.11,-9.73 -2.09,-1.93 -3.97,-3.85 -6.64,-5.24 -9.63,-5.01 -24.94,-1.54 -29.4,5.43z"/>
     <path class="fil3" d="M165.81 307.64c-0.4,-2.32 -1.13,-3.32 0.99,-5.35 5.46,-5.22 4.7,10.34 10.78,17.85 5.72,7.07 15.43,10.49 27.64,8.01 12.57,-2.56 21.59,-0.27 29.47,6.23 7.49,6.17 10.75,13.92 10.71,27.41 -0.01,2.29 -0.09,6.07 -2.57,6.44 -9.45,1.42 3.78,-20.44 -15.76,-31.61 -16.84,-9.63 -27.55,7.34 -49.06,-7.63 -6.96,-4.84 -10.77,-13 -12.2,-21.35zm-1.19 -5.03c-2.14,15.98 13.2,35.12 33.9,34.03 10.72,-0.57 18.31,-4.85 28.32,1.2 17.35,10.49 7.02,28.35 13.32,31.15 10.32,4.57 5.87,-18.61 4.08,-23.45 -3.61,-9.73 -12.32,-17.48 -24.55,-19.24 -15.09,-2.17 -22.34,6.82 -36.58,-2.81 -13.42,-9.08 -6.58,-23.82 -14.97,-23.04 -1.95,0.18 -2.13,1.23 -3.51,2.16z"/>
     <path class="fil3" d="M348.12 340.13l2.19 1.04 4.02 0.66 2.11 0.35c3.8,0.52 8.23,-0.25 11.45,-1.6 1.66,-0.7 3.39,-1.57 4.26,-2.32 1.54,-1.32 2.58,-2.18 2.89,-4.64 -1.68,0.68 -0.51,0.01 -1.61,1.15 -2.15,2.22 -2.14,4.26 -9.74,5.91 -11.3,2.45 -19.38,-1.5 -24.57,-11.16 -8.37,-15.57 -1.69,-20.27 -4.06,-30.79 -1.09,-4.82 -4.52,-7.9 -9.04,-9.55 -4.29,-1.57 -11.95,-1.35 -15.61,0.93 -1.71,1.06 -3.9,3.66 -4.91,4.39 -1.27,0.92 -1.86,0.91 -3.01,0.26 -5.27,-2.98 1.81,-9.44 7.46,-11.6 4.37,-1.67 10.89,-2.25 15.55,-0.77 7.08,2.24 11.82,5.44 15.17,11.95 3.5,6.81 -0.39,17.16 1.14,24.41 2.26,10.75 9.46,18.17 20.87,15.36 3.67,-0.9 3.61,-1.56 6.4,-2.87 1.16,-0.54 1.96,-0.32 2.73,0.32 0.21,0.17 1.03,1.11 1.08,1.14 1.8,1.39 0.59,0.96 1.52,0.08 -1.83,-6.46 -9.44,-0.47 -10.14,-0.19 -4.32,1.71 -10.23,0.85 -13.81,-1.3 -2.47,-1.49 -5.17,-5.78 -6.63,-9.64 -4.56,-12.05 6.01,-26.69 -10.16,-36.95 -7.03,-4.46 -17.72,-5.86 -25.87,-1.95 -6.04,2.9 -11.92,10.4 -5.95,13.12 5.6,2.55 5.73,-6.58 17.23,-6.72 4.66,-0.06 9.3,1.99 11.92,4.41 8.74,8.07 -3.38,21.85 8.3,38.78 2.92,4.23 3.74,5.1 8.81,7.82z"/>
     <path class="fil3" d="M146.82 613.83l218.33 0.05c1.85,-0.48 3.29,-2.14 2.48,-4.3 -1.17,-0.58 1.5,0.61 -0.95,-0.35 0.35,1.57 0.42,2.37 -1.1,3.17 -2.04,1.08 -28.94,0.53 -31.96,0.58 -12.19,0.2 -24.78,0.19 -36.97,0.01 -37.36,-0.54 -74.46,0.28 -111.79,0.01 -12.02,-0.09 -25.11,0.53 -36.97,-0.1 -22.21,-1.18 -17.54,-27.2 -9.17,-33.17 4.41,-3.14 10.87,-1.57 16.47,-2.14 -1.61,0.24 -0.4,-0.05 -0.87,-0.59 -9.97,-0.05 -20.14,-1.83 -22.8,14.87 -1.81,11.37 2.58,20.85 15.29,21.96z"/>
     <path class="fil3" d="M219.6 407.34c-2.55,0.29 -3.41,2.34 -4.77,3.79 -1.53,1.62 -2.81,2.41 -4.28,4.05 -2.83,3.16 -6.83,4.47 -10.85,6.32 -6.61,3.06 -23.09,3.22 -26.32,-2.95 0.49,-1.69 1.3,-2.41 2.22,-3.6 3.18,0 13.23,6.04 26.61,-1.42 2.94,-1.64 4.13,-2.79 6.17,-4.9 3.54,-3.65 7.08,-7.45 11.12,-10.39 3.66,-2.66 12.06,-5.32 17.73,-4.3 6.86,1.24 11.41,2.72 15.73,5.85 0.81,0.58 5.24,4.28 5.57,5.31 0.71,2.22 -2.03,6.06 -4.87,3.6 -3.07,-2.67 -4.37,-6.42 -14.25,-7.98 -3.24,-0.51 -7.63,-0.28 -10.7,0.3 -1.36,0.26 -2.79,0.65 -4.18,1.23 -3.37,1.39 -2.95,1.65 -2.96,3.05 2.83,-1.13 3.43,-2.69 8.22,-3.37 17.93,-2.52 21.95,7.91 24.25,8.6 3.52,1.05 6.18,-2.22 5.58,-5.56 -0.4,-2.2 -3.64,-4.46 -5.33,-5.73 -12.22,-9.16 -31.2,-8.63 -40.72,2.26 -1.02,1.16 -1.56,2.09 -2.54,3.22 -0.98,1.14 -1.73,1.35 -2.7,2.56 -3.08,3.86 -9.06,6.73 -13.91,8.09 -10.29,2.86 -14.83,-1.87 -19.41,-1.61 -1.83,2.09 -3,2.33 -2.48,6.19 5.16,6.08 19.67,5.66 27.69,2.56 2.25,-0.87 3.89,-1.69 5.93,-2.86 4.29,-2.47 12.13,-9.31 13.41,-12.32z"/>
     <path class="fil3" d="M396.97 493.33c-1.34,0.74 -2.81,2.13 -4.25,3.24 -1.39,1.08 -2.69,1.87 -4.28,2.75 -2.88,1.59 -6.55,3.37 -9.92,4.63 -14.19,5.32 -36.78,6.08 -51.24,1.93 -10.8,-3.1 -20.21,-9.23 -26.26,-17.34 -2.01,-2.69 -3.99,-5.61 -5.57,-8.94 -3.3,-6.97 -5.25,-14.99 -5.52,-23.63 -0.59,-18.99 0.74,-38.68 -0.02,-57.67 -0.1,-0.14 -0.22,-0.3 -0.29,-0.42l-0.59 -1.53c-0.69,3.59 -0.18,11.09 -0.18,15.15l0.04 44.92c0.86,10.13 1.54,15.39 5.83,24.22 1.6,3.29 6.84,11.47 9.13,13.42l3.77 3.28c5.25,3.76 11.77,8.02 20.17,9.8 8.63,1.83 17.27,3.4 26.83,2.35 10.45,-1.14 15.05,-1.38 24.96,-4.83 2.04,-0.71 20.16,-8.98 17.38,-11.35z"/>
     <path class="fil3" d="M229.78 439.68c-0.94,1.68 -2.24,1.85 -3.74,2.82 -5.14,3.33 -6.67,8.98 -5.31,15.25 2.88,13.27 22.25,14.63 31.09,3.56 1.3,-1.63 2.92,-4.53 4.31,-5.78 3.36,-3 9.16,1.68 -1.13,12.05 -10.75,10.84 -31.23,10.1 -37.82,-2.08 -3.82,-7.04 -5.29,-14.39 -1.2,-21.57 0.86,-1.51 1.51,-2.88 2.57,-4.01 7.73,-8.26 12.83,-3.08 11.23,-0.24zm1.24 0.44c2.28,-4.73 -6.48,-10.96 -15.17,1.5 -4.62,6.62 -4.41,14.47 -0.71,22.35 8.25,17.55 31,13.87 39.27,5.66 2.36,-2.34 4.63,-4.7 6.38,-8.14 3.12,-6.14 -0.26,-8.26 -3.72,-7.73 -4.5,0.69 -4.47,10.26 -15.89,13.23 -17.43,4.52 -23.46,-12.58 -17.95,-20.16 3.17,-4.36 6.6,-4.22 7.79,-6.69z"/>
     <path class="fil3" d="M358.63 443.7c5.89,-0.82 15.17,0.15 18.89,3.6 2.51,2.34 0.53,6.33 -2.66,5.59 -1.73,-0.4 -7.22,-5.42 -19.4,-2.04 -5.1,1.42 -5.31,2.85 -7.26,4.73 -4.82,4.65 -4.1,7.86 -9.78,13.53 -1.86,1.86 -11.98,9.18 -17.28,5.03 -2.05,-1.6 -1.92,-6.28 2.33,-6.35 3.59,-0.06 4.98,0.31 7.92,-1.29 1.18,-0.64 0.63,-0.24 1.53,-1.1 6.41,-6.16 3.66,-4.97 7.62,-10.48 1.65,-2.29 3.44,-4.44 5.6,-6.22 3.82,-3.16 7.42,-4.31 12.5,-5.01zm20.93 7.42c2.86,-8.85 -22.42,-12.95 -34.3,-3.34 -9.17,7.42 -9.3,17.93 -17.89,19.03 -4.32,0.55 -7.61,-1.3 -8.51,3.42 -1.68,8.81 11.4,5.69 15.65,3.35 2.88,-1.59 4.69,-3.6 6.61,-5.73 5.11,-5.69 6.23,-16.35 20.23,-16.88 3.92,-0.15 7.36,0.1 10.58,1.89 3.26,1.82 6.51,1.75 7.64,-1.74z"/>
     <path class="fil3" d="M346.56 257.03c-0.56,-6.28 4.44,-7.96 5.83,-3.98 0.52,1.48 0.62,4.8 0.92,6.6 3.46,20.45 16.63,14.25 19.93,17.6 1.43,1.45 0.78,3.81 -0.58,4.73 -3.2,2.15 -13.39,-0.48 -16.8,-4.54 -3.17,-3.77 -3.19,-2.19 -6.27,-8.59 -1.61,-3.35 -2.66,-7.71 -3.03,-11.82zm1.72 -6.72c-2.56,0.89 -3.25,1.74 -3,5.4 0.72,10.41 4.61,20.95 14.09,25.76 2.96,1.5 9.91,3.33 13.34,1.89 3.35,-1.41 4.35,-7.97 -2.1,-8.26 -9.97,-0.46 -14.59,-6.11 -16.22,-15.51 -0.78,-4.49 0.04,-11.4 -6.11,-9.27z"/>
     <path class="fil3" d="M399.47 270.56c2.3,1.17 0.61,0.1 1.31,-0.33 -0.26,-4.51 -0.09,-7.03 -0.05,-11.06 -1.79,-4.5 5.9,-16.99 -5.75,-34.43 -3.71,-5.55 -12.21,-11.14 -18.27,-13.56l-6.15 -1.96c-2.26,-0.24 -2.11,0.37 -2.45,0.74 11.49,1.79 22.95,9.52 28.39,19.38 5.71,10.35 4.01,19.82 2.5,30.11 -0.65,4.44 0.04,7 0.46,11.11z"/>
     <path class="fil3" d="M446.31 305c2.69,1.43 3.13,-1.02 8.09,2.49 0.88,0.63 1.3,1.05 2.62,0.84 0.54,-1.84 0.35,-2.4 -0.88,-3.5 -4.11,-3.66 -10.36,-3.91 -9.83,0.17z"/>
     <path class="fil3" d="M446.65 318.08c6.16,-1.42 5.3,8.5 1.32,9.38 -4.74,1.05 -6.02,-4.79 -3.11,-8.06 1.35,-1.52 0.54,-1.03 1.79,-1.32zm-0.04 -1.01c-2.84,0.5 -4.51,2.99 -4.36,6.42 0.16,3.47 2.07,5.57 5.72,5.19 5.77,-0.61 6.15,-12.93 -1.37,-11.6z"/>
     <path class="fil3" d="M412.16 310.96c-2.13,-0.89 -0.23,-0.28 -1.05,0.54 5.38,1.72 3.41,8.73 -0.13,9.11 -2.03,0.22 -3.81,-1.79 -3.79,-4.13 0.02,-3.26 1.64,-3.94 1.9,-4.38 0.06,-0.1 0.22,-0.42 0.23,-0.52 0.08,-0.88 0.53,0.23 -0.38,-0.82 -1.38,0.49 -1.32,0.45 -2.13,2.27 -3.99,8.93 7.23,11.97 8.58,4.22 0.44,-2.51 0.03,-5.91 -3.22,-6.3z"/>
     <path class="fil3" d="M416.8 296.51c-4.34,-2.81 -10.52,1.06 -10.49,2.77 0.06,2.84 3.52,0.1 4.9,-0.34 3.49,-1.1 5.59,1.46 5.59,-2.44z"/>
     <path class="fil4" d="M261.85 569.98c-0.63,-0.6 -0.79,-0.72 -1.18,-1.58 -2.74,-0.19 -5.82,-3.35 -6.66,-5.79 -0.55,-0.53 -0.21,0.13 -0.9,-1.15 -0.11,-0.2 -0.29,-0.67 -0.37,-0.97 -0.25,-0.94 -0.26,-1.52 -0.29,-2.42l-0.25 -6.98 0.77 -4.86c1.24,-2.53 2.64,-5.17 4.94,-5.54 0.76,-0.89 1.13,-0.84 1.27,-2.22 -4.65,-0.92 -80.19,-0.22 -92.37,-0.34 -5.07,-0.05 -7.89,-0.69 -11.05,4.51 -4.17,6.86 -3.39,18.46 1.03,24.58 2.58,3.58 7.15,2.89 12.67,2.88l61.62 -0.01c9.89,-0 21.06,0.5 30.78,-0.11z"/>
     <path class="fil4" d="M493.53 502.53c0.35,2.53 0.26,2.15 1.53,3.63 1.74,-0.25 2.3,-1.08 3.24,-2.17 0.92,-1.05 1.55,-2.4 2.31,-2.98 0.04,6.27 1.15,13.53 4.51,17.02 3.53,0.42 3.23,-0.59 5.42,-1.96 1.47,0.66 2.45,1.87 3.68,0.38l-1.15 -0.1c4.62,-1.79 2.9,-4.34 5.36,-6.27 1.39,-1.09 1.16,-0.3 2.22,-2.1 -1.99,-0.42 -1.17,0.61 -1.35,-2.23 -0.18,-2.83 0.45,-5.85 -1.29,-6.92 -2.45,1.99 -0.33,7.18 -1.76,11.8l-1.84 2.63 -1.49 1.17 0.14 -1.96c0.11,-1.76 0.56,-10.41 -0.78,-11.66 -4.86,-4.51 -0.99,11.35 -5.27,14.14 -2.95,-1.61 -1.96,-11.05 -3.03,-14.08 -0.57,-1.63 -0.32,-0.68 -0.72,-1.12 -1.22,-1.36 -0.48,0.54 -1.52,-2.04 -1.3,-3.25 -3.1,-4.42 -3.7,-2.37 -0.02,0.08 -0.08,0.22 -0.1,0.32 -0.02,0.1 -0.04,0.23 -0.05,0.33 0,0 0.11,1.4 0.12,1.42 0.27,1.93 1.62,6.78 -2.44,6.76 -0.34,-1.76 -0.44,-2.95 -0.66,-4.64 -0.2,-1.56 -0.11,-4.01 -1.22,-5.25l-0.17 8.27z"/>
     <path class="fil4" d="M430.57 367.85l0.16 4.01c0.08,0.12 0.27,0.83 0.45,1.05 0.61,0.78 -0.77,0.13 1.05,0.77 1.02,0.36 2.86,0.27 3.94,0.11 6.97,-1 10.04,-4.9 15.83,-8.07 -0.46,-0.5 0.84,-2.49 -3.02,-0.5 -3.76,1.94 -9.02,3.08 -13.28,2.96 -2.07,-0.06 -3.97,-0.95 -5.13,-0.34z"/>
     <path class="fil4" d="M453.26 541.9l-0.09 2.51c2.72,0.77 13.17,-0.09 16.75,-0.44 4,-0.4 13.01,-3.18 15.11,-3.05l0.03 -3.24 -1.14 0.32c-8.06,3.29 -21.43,4.08 -30.66,3.9z"/>
     <path class="fil4" d="M403.93 541.02c5.1,-0.8 14.31,3.54 26.48,1.75 2.18,-0.32 2.59,-0.15 2.81,-1.85 -5.07,0.41 -25.32,-1.48 -29.22,-3.87l-0.07 3.97z"/>
     <path class="fil4" d="M422.95 335.79c0.36,-3.95 -3.18,-3.15 -3.15,-6.98 0.03,-3.75 4.08,-1.38 4.95,-4.88 -0.22,-1.66 -4.94,-2.77 -8.35,0.95 -2.49,2.73 -1.17,11.35 6.56,10.91z"/>
     <path class="fil4" d="M489.07 334.93c-0.55,-0.46 -0.27,-0.54 -1.5,-0.74 -0.62,-0.1 -1.25,-0.01 -1.86,0.1 -3.09,0.57 -6.59,4.25 -5.62,6.79 0.65,1.7 1.81,1.23 2.51,-0.21 0.47,-0.96 0.37,-2.12 0.93,-3.04 1.47,-2.41 4.18,-0.2 5.54,-2.91z"/>
     <path class="fil5" d="M154.33 577c0.47,0.54 -0.74,0.83 0.87,0.59 -5.6,0.57 -12.06,-1 -16.47,2.14 -8.37,5.96 -13.05,31.99 9.17,33.17 11.86,0.63 24.95,0.01 36.97,0.1 37.33,0.27 74.43,-0.55 111.79,-0.01 12.19,0.18 24.78,0.19 36.97,-0.01 3.02,-0.05 29.92,0.5 31.96,-0.58 1.52,-0.81 1.45,-1.6 1.1,-3.17 2.45,0.96 -0.21,-0.22 0.95,0.35 -1.55,-3.21 -5.85,-1.85 -9.41,-2.47l0.1 -27.22c-1.22,0.62 -0.59,11.61 -0.58,13.39 0.01,4.23 -0.55,10.93 0.52,14.24 -4.3,0.67 -35.36,0.31 -42.25,0.26l-62.94 0c-8.36,0.1 -20.66,1.28 -23.78,-7.9 -1.27,-3.73 -2.6,-20.28 7.79,-21.5l-1.14 0.14c-1.92,0.59 -35.54,0.02 -40.53,-0.09 -13.52,-0.3 -26.95,0.68 -39.99,-0.69l0.24 -1.27 -0.67 -0.01c0,0.73 0.16,0.49 -0.67,0.55z"/>
     <path class="fil5" d="M400.09 479.93l-0.09 0.33 8.86 3.99c9.38,3.49 22.57,6.08 32.61,6.05 17.24,-0.06 18.89,0.48 35.46,-2.21 2.17,-0.35 8.87,-2.72 9.41,-2.63 0.16,7.88 3.24,24.13 3.75,36.09 0.17,4 0.83,9.67 0.72,13.39 -1.85,0.77 -4.91,1.36 -6.01,2.19 -0.98,0.74 -0.15,-0.07 -0.87,0.88l1.14 -0.32c2.43,-0.53 4.67,-1.24 6.68,-1.98 0.36,-7.34 -0.79,-19.18 -1.71,-26.58 -0.5,-4.05 -3.15,-23.46 -2.37,-25.91 -5.73,-0.01 -15.57,2.38 -22.12,2.84 -7.32,0.52 -16.53,0.79 -23.8,0.39 -14.29,-0.79 -28.05,-3.57 -40.38,-8.84 -1.12,0.49 -0.69,0.84 -1.26,2.33z"/>
     <path class="fil5" d="M441.02 532.93l1.01 7.88c3.33,0.97 7.49,0.91 11.09,1.05 -0.75,-0.95 0.24,-0.18 -0.86,-0.75 -0.49,-0.26 -0.55,-0.28 -1.13,-0.41 -1.68,-0.39 -6.74,0.16 -7.86,-0.81 -1.26,-2.36 -0.46,-14.27 -0.49,-17.91 -0.03,-3.52 -0.54,-16.69 -3.28,-17.94 -1.91,-0.87 -7.66,-2.48 -9.17,-2.11 -0.69,5.68 4.37,4.11 7.66,6.4l3.04 24.6z"/>
     <path class="fil5" d="M433.22 540.92l0.87 -0.04c5.26,-0.3 5.88,0.62 6.01,-2.57 0.05,-1.11 0.01,-2.14 0.07,-3.28 -0.1,-0.11 -0.33,-0.35 -0.38,-0.4l-0.49 -0.48c-0.49,6.19 0.36,5.55 -3.6,5.87 -1.79,0.15 -1.78,-0.06 -2.49,0.92z"/>
     <path class="fil6" d="M398.43 491.49c0.77,0.52 0.99,-0.21 0.76,2.76 -0.17,2.19 -0.33,7.19 -1.04,8.33l0.13 0.64 -1.85 31.52 7.58 2.32c3.9,2.39 24.15,4.28 29.22,3.87 0.71,-0.98 0.7,-0.77 2.49,-0.92 3.96,-0.33 3.11,0.31 3.6,-5.87l0.49 0.48c0.05,0.05 0.28,0.29 0.38,0.4l0.11 -2.69 0.73 0.6 -3.04 -24.6c-3.29,-2.3 -8.34,-0.73 -7.66,-6.4 1.51,-0.37 7.27,1.24 9.17,2.11 2.73,1.25 3.25,14.42 3.28,17.94 0.03,3.64 -0.77,15.55 0.49,17.91 1.13,0.98 6.18,0.42 7.86,0.81 0.58,0.13 0.64,0.16 1.13,0.41 1.1,0.57 0.11,-0.2 0.86,0.75l0.13 0.03c9.23,0.17 22.6,-0.62 30.66,-3.9 0.72,-0.95 -0.1,-0.14 0.87,-0.88 1.1,-0.84 4.16,-1.42 6.01,-2.19 0.11,-3.72 -0.55,-9.4 -0.72,-13.39 -0.51,-11.96 -3.58,-28.21 -3.75,-36.09 -0.55,-0.09 -7.24,2.28 -9.41,2.63 -16.57,2.69 -18.22,2.15 -35.46,2.21 -10.04,0.03 -23.23,-2.56 -32.61,-6.05l-8.86 -3.99c0.43,2.33 -0.79,8.85 -1.57,11.23z"/>
     <path class="fil6" d="M358.32 579.89c-0.28,-1.01 -1.21,-1.12 2.99,-1.18 3.17,-0.04 10.37,0.5 11.76,-0.46l-135.98 0.13c-10.39,1.23 -9.05,17.78 -7.79,21.5 3.12,9.18 15.42,7.99 23.78,7.9l62.94 -0c6.89,0.05 37.95,0.41 42.25,-0.26 -1.08,-3.31 -0.51,-10.02 -0.52,-14.24 -0,-1.77 -0.63,-12.77 0.58,-13.39z"/>
     <path class="fil7" d="M409.23 250.2c-1.24,0.15 -0.71,0.49 -0.87,-0.69l-0.44 0.87c-1.02,2.13 -3.92,3.31 -5.5,6.33 -0.96,1.84 -0.47,1.51 -1.68,2.46 -0.04,4.04 -0.21,6.55 0.05,11.06 -0.7,0.43 0.99,1.51 -1.31,0.33 -3.07,2.27 -6.95,4.03 -8.56,9.52 -0.54,1.84 -0.83,3.47 -1.03,5.54 -1.05,11.11 6.31,16.22 10.02,14.02 0.84,-3.86 3.79,-11.28 5.97,-13.48 4.03,-4.08 8.5,-3.78 14.64,-5.3 0.85,4.43 4.16,6.81 8.34,8.72 6.21,2.83 9.06,-0.43 14.07,-1.39 1.12,3.7 4.31,5.1 7.98,6.12 5.69,1.58 10.04,0.56 12.54,0.99 0.47,0.82 0.82,3.36 1.19,4.49 0.93,2.83 2.11,4.05 3.78,5.53 1.5,1.32 2.2,2.95 5.83,3.49 -3.28,10.19 -2.3,12.9 2.85,19.91 4.35,-1.01 8.92,-6.82 15.11,-2.69 5.07,3.38 7.21,9.69 2.91,16.39 -0.64,1 -1.09,1.96 -1.95,2.87 -1.16,1.23 -1.5,1.16 -2.79,2.03 -0.81,0.54 -1.88,1.43 -3.2,2 -9.33,4.08 -11.74,1.44 -16.54,1.5l-2.63 5.41c-1.03,2.21 -1.82,3.45 -2.5,6 0.86,1.28 -0.51,0.39 1.01,0.43l4.78 -3.57c1.55,-0.74 5.77,0.07 8.02,-0.21 3.75,-0.45 10.07,-2.12 13.06,-3.77 7.12,-3.93 11.76,-11.46 10.38,-22.83 -0.67,-0.41 -0.71,0.84 -0.49,-0.78 7.26,-4.11 13.7,-14.7 9.74,-23.68 -1.62,-3.67 -3.46,-4.02 -2.5,-8.61 1.56,-7.41 1.36,-13.59 -2.16,-19.68 -1.95,-3.38 -2.1,-2.98 -3.9,-4.84 -5.65,-5.83 -7.92,-3.5 -9.76,-5.96l-0.12 0.09c-1.54,-0.92 -1.19,-2.88 -2.27,-6.34 -3.56,-11.37 -15.4,-16.43 -25.15,-13.71 -7.7,2.15 -4.7,2.63 -10.21,-2.28 -5.7,-5.09 -14.77,-8.61 -24.64,-4.81 -5.58,2.15 -6.25,3.99 -9.1,6.71 -2.03,1.94 -3.02,1.41 -6.3,1.51 -5.92,0.18 -5.89,1.83 -6.68,0.31z"/>
     <path class="fil7" d="M327.76 353.4c-0.55,1.11 -1.75,1.48 -2.61,2.08 -0.25,2.51 0.74,4.06 0.58,4.68 0.67,3.23 -1.48,5.96 0.38,11.28 2.76,7.89 -3.82,9.31 13.62,12.85 2.82,0.57 2.41,1.25 3.71,2.88l8.47 8.25c2.63,2.07 6.31,4.67 9.38,6.09l10.03 4.87c1.56,0.67 3.04,1.33 4.63,1.98 1.74,0.71 4.03,1.1 5.43,1.64 0.79,2.66 0.88,4.36 2.53,6.21 3.91,4.37 14.85,6.68 20.29,6.42 -0.81,9.27 -8.98,50.39 -7.43,55.41l3.3 1.89c0.56,-1.5 0.14,-1.84 1.26,-2.33 -0.91,-3.5 4.44,-35.22 5.32,-41.56 1.69,-12.22 4.89,-25.14 6.19,-35.59l-0.18 -6.05c-3.49,-0.32 -3.16,4.43 -4.55,10.83 -0.93,4.28 -1.91,8.58 -2.55,13.13 -5.02,0.31 -16.18,-2.86 -18.91,-5.25 -1.15,-10.25 1.94,-28.85 6.07,-36.13 -1.38,0.23 -2.51,0.38 -3.77,0.91 -2.13,0.88 -1.09,0.52 -2.48,1.77 -5.03,15.42 -3.16,10.23 -4.96,26.13 -8.37,-0.73 -23.81,-9.53 -28.12,-13.61l-7.58 -7.83c-5.07,-6.3 -13.78,-2.03 -15.74,-10.81 3.33,-0.01 7.67,2.82 6.21,-2.45 -0.28,-1 -0.47,-1.32 -1.09,-2.07 -0.49,-0.61 -0.97,-1.04 -1.68,-1.41 -1.84,-0.94 -0.84,0.2 -2.21,-1.48l-0.25 -0.37c-0.64,-0.65 -0.47,0.19 -0.66,-1.54 3.03,0.63 5.88,2.99 8.91,1.92 0.93,-2.66 -1.35,-5.48 -2.8,-6.81 -2.87,-2.64 -5.68,-1.08 -4.99,-5.43 3.68,-1.15 14.94,5.73 18.83,5.24 3.23,-1.48 -1.2,-12.93 -0.27,-17.48l0.24 -0.48 -2.19 -1.04c-1.24,5.79 -1.09,8.49 0.02,14.58 -2.95,-1.71 -5.48,-2.86 -8.79,-4.43 -5.11,-2.43 -5.52,-2.21 -10.35,-1.14 -0.47,1.73 -0.7,1.77 -0.26,3.97l-0.97 0.29z"/>
     <path class="fil7" d="M510.32 432.78c1.42,-2.1 7.31,-3.75 4.3,-8.22l-16.08 8.71c-4.6,1.9 -14.19,5.2 -19.64,5.52l-5.94 -19.96c-0.32,-1.13 -0.63,-2.18 -1.02,-3.34 -0.76,-2.23 -0.58,-2.12 -2.33,-2.58 -1.65,2.11 -0.14,6.73 0.39,9.05 1.3,5.67 4.89,19.65 9.96,21.08 3.07,0.86 12.5,-2.38 16.08,-3.67 5.86,-2.11 9.56,-4.5 14.28,-6.59z"/>
     <path class="fil7" d="M426.11 372.04c-1.51,5.32 2.59,11.03 4.95,13.34 3.08,3.03 9.06,4.21 14.58,3.61 7.95,-0.86 22.5,-9.06 21.6,-15.24l-0.94 -0.95c-1.29,0.43 -0.5,-0.26 -1.34,0.77l-1.1 1.4c-0.02,0.02 -0.74,0.6 -0.95,0.79 -4.67,4.27 -10.62,8.7 -17.12,9.6 -15.28,2.13 -16.11,-12.36 -16.95,-13.71l-2.73 0.38z"/>
     <path class="fil7" d="M385.4 379.85c-2.57,-2.12 -7.54,-3.44 -10.72,-5.46 -3.15,-2 -6.76,-5.16 -8.59,-8.13 -4.51,-7.31 -6.6,-15.89 -9.66,-24.09l-2.11 -0.35 -0.87 1.02c2.04,7.74 5.77,18.72 9.75,24.97 1.64,2.58 4.06,4.89 6.29,6.93 3.51,3.22 10.48,5.64 15.71,5.79l0.21 -0.69z"/>
     <path class="fil7" d="M415.48 341.09c-1.61,9.85 16.27,10.65 21.74,5.49 1.72,-1.63 4.72,-5.36 1.1,-5.65 -1.46,-0.12 -1.92,1.23 -2.81,2.17 -1.56,1.66 -3.75,2.89 -6.5,2.95 -3.38,0.07 -4.73,0.09 -7.69,-1.57 -1.19,-0.67 -1.94,-1.08 -2.85,-1.98 -1.08,-1.07 -1.02,-1.43 -2.99,-1.4z"/>
     <path class="fil7" d="M520.66 507.97c-1.07,1.8 -0.83,1.01 -2.22,2.1 -2.47,1.93 -0.74,4.48 -5.36,6.27l1.15 0.1c3.1,-0.32 2.87,-3.07 4.24,-5.47 1.83,-0.96 2.56,-0.92 3.8,-2.38 0.8,-0.95 1.6,-2.5 1.99,-4.1 -0.2,-0.13 -0.81,-0.62 -0.86,-0.65l-0.55 -0.19c-0.04,-0.11 -0.19,-0.04 -0.28,-0.04 -1.03,2.37 0.03,2.88 -1.9,4.36z"/>
     <path class="fil8" d="M392.73 376.97c-4.13,7.28 -7.22,25.88 -6.07,36.13 2.73,2.39 13.89,5.55 18.91,5.25 0.64,-4.55 1.62,-8.84 2.55,-13.13 1.39,-6.4 1.06,-11.15 4.55,-10.83l0.18 6.05c-1.3,10.45 -4.5,23.37 -6.19,35.59 -0.88,6.35 -6.22,38.06 -5.32,41.56 12.33,5.28 26.08,8.05 40.38,8.84 7.27,0.4 16.48,0.13 23.8,-0.39 6.56,-0.47 16.39,-2.85 22.12,-2.84l3.34 -1.43c0.92,-2.6 -2.61,-29.08 -3.64,-35.05 -0.41,-2.37 -1.5,-3.41 0.3,-4.57 0.08,0.07 0.17,0.1 0.2,0.26 0.02,0.15 0.16,0.2 0.18,0.27l8.6 28.82c2.05,7.54 2.56,7.3 -0.88,14.2 -2.4,4.79 -3.25,11.26 -2.23,16.84l0.17 -8.27c1.11,1.24 1.02,3.7 1.22,5.25 0.22,1.7 0.31,2.88 0.66,4.64 4.07,0.02 2.71,-4.83 2.44,-6.76 -0,-0.02 -0.12,-1.42 -0.12,-1.42 0.01,-0.1 0.03,-0.24 0.05,-0.33 0.02,-0.1 0.07,-0.23 0.1,-0.32 0.6,-2.05 2.39,-0.88 3.7,2.37 1.04,2.58 0.3,0.69 1.52,2.04 0.4,0.44 0.15,-0.51 0.72,1.12 1.07,3.03 0.08,12.47 3.03,14.08 4.28,-2.79 0.41,-18.65 5.27,-14.14 1.34,1.25 0.89,9.89 0.78,11.66l1.51 -0.24 -0.16 1.03 1.84 -2.63c1.43,-4.63 -0.69,-9.82 1.76,-11.8 1.74,1.07 1.11,4.09 1.29,6.92 0.18,2.84 -0.64,1.81 1.35,2.23 1.93,-1.48 0.87,-1.98 1.9,-4.36 0.1,0 0.25,-0.07 0.28,0.04l0.55 0.19c0.05,0.03 0.67,0.52 0.86,0.65 0.96,-0.89 1.32,-1.55 1.62,-4.05 0.38,-3.27 -1.12,-11.73 -2.13,-14.88 -2.06,-6.37 -3.03,-11.25 -4.22,-17.77 -1.49,-8.16 -3.46,-27.63 -9.2,-35.02 -4.72,2.09 -8.41,4.48 -14.28,6.59 -3.57,1.29 -13.01,4.53 -16.08,3.67 -5.07,-1.43 -8.66,-15.4 -9.96,-21.08 -0.53,-2.31 -2.04,-6.94 -0.39,-9.05 1.75,0.46 1.57,0.35 2.33,2.58 0.4,1.16 0.7,2.21 1.02,3.34l5.94 19.96c5.44,-0.33 15.03,-3.63 19.64,-5.52l16.08 -8.71c-3.91,-11.29 -6.17,-15.97 -11.72,-24.71l-3.97 -5.31c-4.38,-4.98 -8.81,-10.31 -14.7,-13.58l-1.7 -0.93c-0.69,-0.42 -1.23,-0.77 -1.91,-1.13l-8.51 -3.88c-2.36,-1.15 -2.17,-1.04 -4.87,-1.27 0.9,6.18 -13.64,14.38 -21.6,15.24 -5.52,0.6 -11.5,-0.58 -14.58,-3.61 -2.35,-2.31 -6.45,-8.02 -4.95,-13.34 -2.07,-0.19 -5.94,1.07 -8.1,1.4 -2.62,0.4 -6.01,1.12 -8.54,1.26 -2.61,0.15 -16.03,1.66 -16.74,2.27z"/>
     <path class="fil8" d="M415.48 341.09c1.97,-0.03 1.91,0.33 2.99,1.4 0.91,0.89 1.66,1.31 2.85,1.98 2.96,1.66 4.31,1.64 7.69,1.57 2.75,-0.05 4.94,-1.29 6.5,-2.95 0.88,-0.94 1.34,-2.29 2.81,-2.17 3.62,0.29 0.63,4.03 -1.1,5.65 -5.47,5.16 -23.35,4.36 -21.74,-5.49zm73.59 -6.16c-1.36,2.71 -4.08,0.5 -5.54,2.91 -0.56,0.92 -0.47,2.08 -0.93,3.04 -0.71,1.44 -1.87,1.91 -2.51,0.21 -0.96,-2.54 2.54,-6.22 5.62,-6.79 0.61,-0.11 1.24,-0.21 1.86,-0.1 1.23,0.2 0.95,0.28 1.5,0.74zm-42.46 -17.86c7.52,-1.32 7.14,10.99 1.37,11.6 -3.65,0.39 -5.57,-1.71 -5.72,-5.19 -0.16,-3.43 1.52,-5.92 4.36,-6.42zm-23.66 18.72c-7.73,0.45 -9.05,-8.17 -6.56,-10.91 3.41,-3.73 8.13,-2.62 8.35,-0.95 -0.87,3.5 -4.93,1.13 -4.95,4.88 -0.03,3.83 3.52,3.03 3.15,6.98zm-14.03 -25.02c0.5,-0.37 0.18,-0.64 1.71,-0.57 1.82,0.08 1.09,0.1 1.52,0.77 3.25,0.39 3.66,3.8 3.22,6.3 -1.35,7.74 -12.57,4.7 -8.58,-4.22 0.81,-1.82 0.75,-1.79 2.13,-2.27zm48.09 -2.43c-1.32,0.21 -1.74,-0.21 -2.62,-0.84 -4.96,-3.52 -5.4,-1.07 -8.09,-2.49 -0.54,-4.08 5.72,-3.83 9.83,-0.17 1.24,1.1 1.42,1.66 0.88,3.5zm-40.22 -11.82c0,3.89 -2.1,1.33 -5.59,2.44 -1.38,0.44 -4.85,3.18 -4.9,0.34 -0.03,-1.71 6.15,-5.58 10.49,-2.77zm-16.89 3.13c-0.26,0.89 -1.83,1.71 -4.17,9.5 -4.45,14.8 -7.56,20.64 -1.2,35.63 4.22,9.95 13.64,18.24 23.38,20.87 1.9,0.51 4.09,1.03 6.07,1.43 4.14,0.85 5.32,-0.58 6.59,0.78 1.16,-0.61 3.06,0.29 5.13,0.34 4.26,0.12 9.52,-1.03 13.28,-2.96 3.85,-1.98 2.55,0 3.02,0.5 -5.79,3.17 -8.87,7.06 -15.83,8.07 -1.08,0.16 -2.91,0.25 -3.94,-0.11 -1.82,-0.65 -0.44,0 -1.05,-0.77 -0.17,-0.22 -0.37,-0.93 -0.45,-1.05l-1.9 -0.21c0.84,1.35 1.68,15.84 16.95,13.71 6.5,-0.91 12.44,-5.33 17.12,-9.6 0.21,-0.19 0.93,-0.77 0.95,-0.79l1.1 -1.4c-0.66,-0.98 0.17,-2.54 0.75,-4.77 0.51,-1.96 0.22,-4.72 0.8,-6.16 -1.53,-0.04 -0.16,0.86 -1.01,-0.43 0.67,-2.55 1.47,-3.79 2.5,-6l2.63 -5.41c4.8,-0.06 7.21,2.58 16.54,-1.5 1.32,-0.58 2.39,-1.46 3.2,-2 1.3,-0.86 1.63,-0.8 2.79,-2.03 0.86,-0.91 1.31,-1.87 1.95,-2.87 4.3,-6.7 2.16,-13.01 -2.91,-16.39 -6.19,-4.13 -10.76,1.68 -15.11,2.69 -5.15,-7.01 -6.12,-9.72 -2.85,-19.91 -3.63,-0.54 -4.33,-2.17 -5.83,-3.49 -1.67,-1.48 -2.85,-2.69 -3.78,-5.53 -0.37,-1.12 -0.72,-3.67 -1.19,-4.49 -2.49,-0.43 -6.85,0.6 -12.54,-0.99 -3.67,-1.02 -6.86,-2.41 -7.98,-6.12 -5.02,0.95 -7.87,4.22 -14.07,1.39 -4.18,-1.91 -7.49,-4.29 -8.34,-8.72 -6.14,1.52 -10.61,1.21 -14.64,5.3 -2.17,2.21 -5.12,9.62 -5.97,13.48z"/>
     <path class="fil8" d="M331.06 365.76c-0.4,-2.01 -0.21,-0.47 0.35,-0.94 2.02,0.46 0.54,-0.01 1.15,0.91 -0.79,0.72 0.13,0.3 -1.25,0.4 1.37,1.68 0.37,0.54 2.21,1.48 0.71,0.36 1.19,0.8 1.68,1.41 0.62,0.75 0.81,1.07 1.09,2.07 1.46,5.27 -2.89,2.44 -6.21,2.45 1.96,8.78 10.67,4.5 15.74,10.81l7.58 7.83c4.31,4.07 19.75,12.88 28.12,13.61 1.8,-15.9 -0.07,-10.71 4.96,-26.13l-1.07 0.2 -0.21 0.69c-5.23,-0.15 -12.19,-2.58 -15.71,-5.79 -2.22,-2.04 -4.65,-4.35 -6.29,-6.93 -3.98,-6.25 -7.72,-17.23 -9.75,-24.97l0.87 -1.02 -4.02 -0.66 -0.24 0.48c-0.92,4.55 3.51,16 0.27,17.48 -3.88,0.49 -15.15,-6.39 -18.83,-5.24 -0.69,4.35 2.12,2.8 4.99,5.43 1.45,1.33 3.73,4.15 2.8,6.81 -3.02,1.07 -5.88,-1.29 -8.91,-1.92 0.2,1.73 0.03,0.89 0.66,1.54z"/>
     <path class="fil8" d="M453.17 544.41c0.26,0.51 8.26,40.87 8.19,42.26 4.94,-0.33 9.5,-1.11 14.26,-2.2l12.76 -3.37c0.1,-0.04 0.26,-0.08 0.38,-0.15l-0.15 -1.62c-0.74,-12.82 -2.8,-25.55 -3.59,-38.42 -2.1,-0.13 -11.11,2.65 -15.11,3.05 -3.58,0.35 -14.03,1.21 -16.75,0.44z"/>
     <path class="fil8" d="M404.99 581.67c2.58,1.05 10.74,1.33 14.01,1.45 4.13,0.16 12.1,-1.74 15.23,-0.61 -0.36,-6.08 0.5,-14.44 0.61,-20.92 0.06,-3.88 0.24,-18.12 -0.74,-20.71l-0.87 0.04c-0.22,1.7 -0.63,1.53 -2.81,1.85 -12.17,1.79 -21.37,-2.55 -26.48,-1.75l1.05 40.65z"/>
     <path class="fil8" d="M252.45 558.07c0.03,0.9 0.04,1.48 0.29,2.42 0.08,0.3 0.26,0.77 0.37,0.97 0.69,1.27 0.35,0.62 0.9,1.15 -0.15,-1.95 -0.15,-0.57 0.38,-0.98 2.72,1.42 96.31,0.01 108.95,0.66l-0.93 -4.46c-7.51,-0.84 -19.03,-0.14 -27.03,-0.15 -13.86,-0.02 -74,-0.55 -82.92,0.39z"/>
     <path class="fil8" d="M252.2 551.09c35.98,-0.47 73.42,0.76 109.88,0.19 0.75,-1.04 1.53,-2.64 1.83,-4.11 -8.22,0.24 -107.26,-0.58 -110.4,0.34 -0.86,-0.62 -0.13,0.38 -0.55,-1.27l-0.77 4.86z"/>
     <path class="fil9" d="M231.02 440.12c-1.19,2.47 -4.62,2.33 -7.79,6.69 -5.51,7.58 0.52,24.69 17.95,20.16 11.42,-2.96 11.4,-12.53 15.89,-13.23 3.45,-0.53 6.84,1.59 3.72,7.73 -1.75,3.44 -4.02,5.8 -6.38,8.14 -8.27,8.21 -31.02,11.89 -39.27,-5.66 -3.7,-7.88 -3.91,-15.73 0.71,-22.35 8.7,-12.45 17.45,-6.22 15.17,-1.5zm-9.42 -34.81c-0.04,0.09 -0.1,0.13 -0.11,0.26l-1.88 1.77c-1.28,3.01 -9.12,9.84 -13.41,12.32 -2.04,1.17 -3.68,2 -5.93,2.86 -8.02,3.1 -22.53,3.51 -27.69,-2.56 -0.52,-3.86 0.65,-4.11 2.48,-6.19 4.58,-0.26 9.12,4.48 19.41,1.61 4.86,-1.35 10.84,-4.23 13.91,-8.09 0.96,-1.21 1.71,-1.42 2.7,-2.56 0.98,-1.13 1.52,-2.05 2.54,-3.22 9.52,-10.89 28.5,-11.41 40.72,-2.26 1.69,1.26 4.93,3.53 5.33,5.73 0.6,3.35 -2.06,6.61 -5.58,5.56 -2.3,-0.68 -6.32,-11.12 -24.25,-8.6 -4.79,0.67 -5.38,2.24 -8.22,3.37zm-56.98 -102.7c1.39,-0.93 1.56,-1.98 3.51,-2.16 8.39,-0.78 1.55,13.96 14.97,23.04 14.24,9.63 21.5,0.65 36.58,2.81 12.23,1.76 20.94,9.51 24.55,19.24 1.79,4.84 6.24,28.02 -4.08,23.45 -6.3,-2.79 4.03,-20.66 -13.32,-31.15 -10.01,-6.05 -17.59,-1.77 -28.32,-1.2 -20.7,1.09 -36.04,-18.05 -33.9,-34.03zm-14.96 -35.02c-1.33,2.88 -3.24,4.58 -6.08,10.63 -3.9,8.3 -4.93,18.89 -4.41,28.12 0.49,8.78 1.96,5.07 -3.09,11.08 -10.77,12.81 -11.42,32.53 -5.57,47.7 0.44,1.14 0.39,2.45 1.41,2.3 4.46,-6.97 19.76,-10.44 29.4,-5.43 2.66,1.39 4.55,3.31 6.64,5.24 3.24,3 6.12,11.3 18.11,9.73 6.74,-0.88 12,-5.08 14.75,-9.79 1.32,-2.27 3.63,-8.81 8.56,-5.71 4.5,2.82 -1.03,10.09 -3.07,12.96 -1.03,1.45 -0.92,1.22 -2.35,2.49 -2,1.78 -3.05,4.12 -8.93,6.49 -4.72,1.91 -11.2,3.2 -16.66,2.07 -9.16,-1.9 -11.97,-7.03 -16.94,-12.59 -1.14,-1.27 -3.86,-3.1 -6.27,-3.85 -15.06,-4.69 -27.97,10.41 -25.05,33.37 1.19,9.31 5.45,16.92 11.89,22.93 0.93,0.86 1.61,1.81 2.61,2.91 -2.42,11.24 -1.56,22.39 6.42,31.18 6.52,7.18 19.13,8.99 31.3,6.85 10.55,-1.85 19.32,-8.93 21.26,-2.63 1.15,3.75 -1.27,4.92 -3.68,6.09 -6.35,3.08 -16.39,5.48 -23.85,5.9 -2.61,0.15 -7.64,-0.35 -9.47,-0.05l-0.09 -0.16c0.48,7.44 5.43,16.49 11.25,20.65 20,14.28 55.41,16.45 75.39,6.22 1.93,-0.99 8.06,-4.73 9.63,-6.24 0.55,-0.53 0.68,-0.86 1.22,-1.39 0.51,-0.51 0.85,-0.74 1.41,-1.24 12.45,-11.37 16.37,-28.7 16.36,-46.24 -0.01,-40.88 -0.73,-84.93 -0.04,-125.07 -11.49,1.7 -17.77,1.91 -28.53,-2.25 -8.28,-3.2 -14.52,-8.63 -18.01,-15.47 -2.05,-4.01 -3,-8.84 -2.79,-13.91 0.28,-6.91 4.32,-16.21 -0.47,-21.11 -7.02,-7.2 -15.91,-1.96 -15.41,-9.17 0.39,-5.63 7.33,-4.45 11.05,-3.22 21.39,7.1 14.25,23.8 13.65,32.62 -0.42,6.2 0.44,9.11 3.25,13.44 1.36,2.09 2.04,2.63 4.12,4.25 1.57,1.22 3.24,2.35 5.08,3.28 3.87,1.96 8.08,3.1 12.89,3.79 6.27,0.89 9.37,-0.27 15.09,-0.61 0.54,-4.88 0.19,-104.3 0.13,-115.68 -0.04,-7.4 -3.99,-12.48 -7.55,-15.45 -9.73,-8.13 -25.01,-4.86 -36.97,-0.35 -5.37,2.03 -11.21,5.07 -15.39,7.94 -2.65,1.82 -4.21,3.35 -6.15,5.29 -7.07,7.07 -3.48,19.07 3.05,23.68 6.3,4.45 11.27,2.62 18.49,0.92 13.16,-3.11 15.32,3.91 11.63,6.8 -1.29,1.02 -7.55,1.04 -9.93,1.54 -3.32,0.7 -5.33,1.83 -9.24,2.17 -9.79,0.85 -18.44,-3.79 -22.7,-11.59 -1.39,-2.54 -2.04,-5.87 -3.19,-8.34 -2.7,-0.45 -14.87,5.36 -17.2,6.79 -10.35,6.35 -18.13,19.37 -14.97,31.67 1.23,4.79 5.8,12.82 9.04,15.13l6.79 5.53c1.45,1.45 5.14,4.08 4.55,7.47 -0.55,3.19 -4.99,4.22 -8.07,1.79 -1.2,-0.95 -1.67,-2.2 -2.86,-3.3l-6.1 -5.79c-0.99,-1.02 -2.31,-1.84 -3.17,-2.98 -1.79,-2.38 -3.61,-5.82 -5.54,-6.25 -3.54,-0.8 -7.91,0.21 -10.46,1.65 -3.84,2.16 -5.22,4.96 -6.19,5.23z"/>
     <path class="fil9" d="M379.56 451.12c-1.13,3.49 -4.38,3.56 -7.64,1.74 -3.23,-1.8 -6.66,-2.04 -10.58,-1.89 -14,0.52 -15.12,11.19 -20.23,16.88 -1.91,2.13 -3.73,4.14 -6.61,5.73 -4.24,2.35 -17.33,5.46 -15.65,-3.35 0.9,-4.72 4.19,-2.87 8.51,-3.42 8.59,-1.1 8.72,-11.62 17.89,-19.03 11.88,-9.61 37.16,-5.51 34.3,3.34zm-31.28 -200.81c6.14,-2.14 5.32,4.77 6.11,9.27 1.64,9.41 6.26,15.06 16.22,15.51 6.46,0.3 5.46,6.85 2.1,8.26 -3.43,1.44 -10.38,-0.38 -13.34,-1.89 -9.48,-4.8 -13.37,-15.35 -14.09,-25.76 -0.25,-3.66 0.44,-4.51 3,-5.4zm-56.77 146.58l-1.66 -0.5 0.08 1.91c0.76,18.99 -0.57,38.68 0.02,57.67 0.27,8.63 2.22,16.65 5.52,23.63 1.58,3.33 3.56,6.26 5.57,8.94 6.05,8.11 15.46,14.24 26.26,17.34 14.46,4.15 37.04,3.39 51.24,-1.93 3.37,-1.26 7.04,-3.04 9.92,-4.63 1.59,-0.88 2.89,-1.68 4.28,-2.75 1.44,-1.11 2.91,-2.5 4.25,-3.24 0.81,-0.97 0.94,-0.62 1.46,-1.84 0.78,-2.38 2,-8.9 1.57,-11.23l0.09 -0.33 -3.3 -1.89c-1.55,-5.02 6.62,-46.14 7.43,-55.41 -5.45,0.26 -16.38,-2.05 -20.29,-6.42 -1.65,-1.84 -1.74,-3.54 -2.53,-6.21 -1.39,-0.54 -3.68,-0.93 -5.43,-1.64 -1.59,-0.65 -3.07,-1.31 -4.63,-1.98l-10.03 -4.87c-3.07,-1.43 -6.75,-4.02 -9.38,-6.09l-8.47 -8.25c-1.3,-1.63 -0.89,-2.3 -3.71,-2.88 -17.44,-3.54 -10.86,-4.96 -13.62,-12.85 -1.86,-5.32 0.28,-8.05 -0.38,-11.28 -1.08,-0.74 -1.89,-2.41 -1.39,-4.16 0.49,-1.71 1.71,-2.01 3.42,-2.6l0.97 -0.29c-0.43,-2.2 -0.2,-2.23 0.26,-3.97 4.83,-1.07 5.24,-1.3 10.35,1.14 3.3,1.57 5.84,2.72 8.79,4.43 -1.11,-6.09 -1.26,-8.79 -0.02,-14.58 -5.07,-2.73 -5.9,-3.59 -8.81,-7.82 -11.68,-16.93 0.44,-30.71 -8.3,-38.78 -2.62,-2.41 -7.26,-4.46 -11.92,-4.41 -11.5,0.14 -11.63,9.27 -17.23,6.72 -5.97,-2.72 -0.09,-10.22 5.95,-13.12 8.15,-3.91 18.85,-2.51 25.87,1.95 16.17,10.26 5.6,24.9 10.16,36.95 1.46,3.87 4.15,8.15 6.63,9.64 3.57,2.15 9.49,3.01 13.81,1.3 0.7,-0.28 8.31,-6.26 10.14,0.19l0.62 0.85c-0.3,2.46 -1.34,3.32 -2.89,4.64 -0.88,0.75 -2.6,1.62 -4.26,2.32 -3.21,1.35 -7.65,2.12 -11.45,1.6 3.06,8.2 5.15,16.77 9.66,24.09 1.83,2.96 5.44,6.13 8.59,8.13 3.18,2.02 8.15,3.34 10.72,5.46l1.07 -0.2c1.39,-1.25 0.36,-0.89 2.48,-1.77 1.27,-0.52 2.39,-0.68 3.77,-0.91 0.72,-0.61 14.14,-2.12 16.74,-2.27 2.53,-0.14 5.91,-0.86 8.54,-1.26 2.16,-0.33 6.02,-1.6 8.1,-1.4l2.73 -0.38 1.9 0.21 -0.16 -4.01c-1.27,-1.36 -2.45,0.07 -6.59,-0.78 -1.98,-0.41 -4.17,-0.92 -6.07,-1.43 -9.74,-2.63 -19.16,-10.92 -23.38,-20.87 -6.36,-15 -3.25,-20.83 1.2,-35.63 2.34,-7.79 3.91,-8.61 4.17,-9.5 -3.71,2.21 -11.07,-2.9 -10.02,-14.02 0.2,-2.07 0.49,-3.69 1.03,-5.54 1.61,-5.49 5.48,-7.24 8.56,-9.52 -0.42,-4.11 -1.11,-6.67 -0.46,-11.11 1.51,-10.29 3.21,-19.76 -2.5,-30.11 -5.44,-9.86 -16.9,-17.58 -28.39,-19.38 -1.35,0.57 -0.03,-0.34 -1.2,1.12 0.7,6.44 -6.5,16.01 -12.86,19.3 -9.66,5 -21.22,0.38 -28.45,2.8 -8.53,2.85 -5.33,12.32 -5.46,14.61 -0.26,4.59 -9.49,7.48 -9.23,-5.27 0.14,-7.13 2.95,-11.19 6.63,-14.34 10.83,-9.28 25.43,0.41 35,-7.24 3.48,-2.78 6.82,-8.29 6.73,-14.96 -0.09,-6.46 -4.34,-11 -7.74,-13.49 -3.96,-2.9 -7.67,-5.8 -12.81,-8.3 -14.86,-7.23 -38.25,-11.28 -46.63,4.46 -3.16,5.94 -2.1,12.12 -2.09,19.1 0.01,7.04 0.05,14.09 0.03,21.12l-0.05 149.2c-0.01,5.36 -0.38,5.23 1.86,7.46 15.45,15.35 25.69,-2.63 42.77,8.29 4.42,2.83 7.25,7.61 8.1,12.99 0.65,4.15 0.91,17.32 -1.69,19.15 -2.81,1.98 -6.64,0.58 -6.82,-3 -0.16,-3.24 0.26,-6.84 0.26,-10.12 0,-19.07 -17.46,-13.35 -26.18,-12.1 -5.13,0.74 -14.16,-0.37 -16.76,-3.84z"/>
     <path class="fil9" d="M365.15 613.88l-218.33 -0.05c-1.03,1.51 0.26,0.44 -1.58,0.76 -1.3,0.23 -3.57,-0.63 -4.51,-0.8 -4.9,-0.88 -15.64,3.94 -14.82,7.21 1.08,4.32 40.59,5.35 45.75,5.23 8.2,-0.19 16.85,0.3 25.09,0.49 42.8,1.01 84.72,1.07 127.64,1.32 33.81,0.2 67.93,-0.06 101.67,-0.75 17.16,-0.35 34.33,0.34 51.48,-0.27 7.96,-0.28 16.31,-0.54 24.19,-1.38 3.9,-0.41 7.48,-0.2 11.3,-1.31 7.3,-2.12 12.42,-8.73 -3.6,-10.93 -3.45,-0.48 -10.87,-2.4 -13.83,-1.48 -0.45,1.04 0.14,7.17 -9.47,9.3 -7.92,1.76 -36.32,5.13 -42.52,-0.14 -2.15,-1.82 -1.54,-4.96 -1.68,-8.03 -9.51,-0.18 -3.93,3.7 -12.57,5.51 -8.9,1.86 -26.07,1.85 -35.45,1.5 -6.62,-0.25 -10.12,-0.73 -14.76,-3.59 -0.09,-1.44 -0.22,-0.29 0.75,-0.75 -0.64,-1.86 -0.79,-2.64 -0.58,-4.84 -0.87,1.23 -0.8,1.76 -0.81,3.43 -1.02,-2.63 -3.16,-1.88 -6.63,-2 -5.21,-0.18 -3.2,2.36 -5.68,2.05 -1.37,-0.17 -0.13,0.49 -1.05,-0.48z"/>
     <path class="fil9" d="M461.36 586.67c0.45,0.96 0.71,3.49 0.99,4.93 0.16,0.84 0.32,1.6 0.66,2.48 0.56,1.45 0.95,0.57 0.46,1.85l7.11 0.44c1.77,-0.82 7.62,-0.6 10.03,-0.58 3.13,0.02 6.54,-0.86 10.14,-1.1 0.98,-3.93 -0.99,-11.55 -2.13,-15.36l0.15 1.62c-0.12,0.07 -0.28,0.11 -0.38,0.15l-12.76 3.37c-4.76,1.09 -9.32,1.87 -14.26,2.2z"/>
     <path class="fil9" d="M404.92 592.71l25.74 1.48c0.09,-0.03 0.23,-0.09 0.34,-0.15l-1.18 -0.31c3.07,-0.55 4.01,-0.2 4.34,-3.5 0.24,-2.39 0.44,-5.37 0.06,-7.73 -3.12,-1.13 -11.09,0.77 -15.23,0.61 -3.27,-0.13 -11.43,-0.4 -14.01,-1.45 0.05,2.06 -0.1,3.84 -0.23,5.89 -0.16,2.44 -0.55,3.7 1.52,4.44 -2.72,-0.17 -0.34,-0.08 -1.36,0.7z"/>
     <path class="fil9" d="M257.91 540.69c7.19,1.08 107.98,1 110.34,0.09 -1.09,-1.96 0.49,-0.17 -0.88,-1 -1.63,-0.98 -51.57,-0.64 -53.12,-0.62l-40.62 -0.17c-3.16,-0.41 -6.65,-0.47 -9.92,0.06 -1.3,0.21 -1.66,0.65 -1.84,-0.47l-2.7 -0.12c-0.13,1.38 -0.5,1.32 -1.27,2.22z"/>
     <path class="fil9" d="M261.85 569.98l107.09 -0.07c-1.43,-0.84 -11.22,-1.16 -12.88,-1.17 -4.6,-0.02 -8.38,-0.4 -13.2,-0.41 -9.81,-0.02 -78.85,-0.57 -82.19,0.07 0.39,0.86 0.55,0.98 1.18,1.58z"/>
     <polygon class="fil9" points="514.42,513.26 514.58,512.22 513.07,512.46 512.94,514.43 "/>
     <path class="fil9" d="M331.06 365.76l0.25 0.37c1.38,-0.09 0.47,0.33 1.25,-0.4 -0.61,-0.92 0.87,-0.45 -1.15,-0.91 -0.56,0.47 -0.75,-1.08 -0.35,0.94z"/>
     <path class="fil10" d="M166.51 475.41l0.09 0.16c-0.6,-0.54 -0.72,-0.26 -0.23,-0.94 4.08,-0.48 8.3,0.18 12.36,-0.29 3.69,-0.43 7.77,-1.24 10.63,-2.04 5.13,-1.44 17.6,-4.43 11.38,-10.03 -1.52,-0.62 -12.31,4.39 -20.65,5.45 -15.13,1.92 -29.03,-0.48 -35.1,-15.97 -3.19,-8.13 -3.64,-14.17 -1.72,-23.07 -3.46,-4.15 -2.07,-1.13 -6.72,-7.63 -10.15,-14.19 -11.46,-37.49 0.72,-48.75 6.61,-6.12 18.09,-7.41 24.96,-0.2 0.52,0.54 0.73,0.79 1.28,1.4 3.61,4 6.73,8.23 12.31,10.04 8.26,2.67 16.69,0.57 23.35,-3.98 2.22,-1.52 3.4,-3.08 5.27,-4.76 0.76,-0.68 8.05,-9.72 4.37,-12.24 -2.94,-2.01 -4.49,0.8 -5.53,2.62 -2.15,3.77 -1.29,3.16 -4.12,6.05 -1.58,1.62 -2.81,3.21 -5.32,4.42 -7.65,3.68 -17.35,3.72 -22.52,-2.52 -1,-1.21 -1.13,-1.47 -2.34,-2.54 -0.8,-0.71 -3.15,-4.59 -7.68,-7.18 -4.33,-2.48 -10.85,-3.36 -16.36,-2.18 -4.65,1 -6.66,1.99 -9.94,4.85 -3.77,3.28 -2.84,1.57 -3.08,1.36 -1.02,0.15 -0.97,-1.16 -1.41,-2.3 -5.84,-15.17 -5.2,-34.89 5.57,-47.7 5.05,-6 3.58,-2.29 3.09,-11.08 -0.52,-9.23 0.51,-19.82 4.41,-28.12 2.85,-6.05 4.75,-7.75 6.08,-10.63 -1.17,-0.56 -1.55,0.23 0.1,-1.49 4.13,-4.32 8.4,-7.35 15.33,-6.56 4.11,0.47 5.13,2.86 6.97,5.47 1.45,2.06 4.07,4.21 5.87,5.99 1.91,1.89 3.47,4.33 5.96,6.34 3.89,3.13 6.88,1.63 6.95,-0.96 0.08,-2.95 -8.78,-9.31 -11.98,-12.03 -1.47,-1.25 -4.17,-5.29 -5.2,-7.21 -8.58,-15.91 -0.57,-33.12 12.71,-40.9 4.23,-2.48 12.09,-6.01 17.86,-6.48 1.82,2.76 2.37,5.85 3.71,8.39 1.31,2.49 3.02,4.42 5.08,6.28 3.76,3.4 11.14,5.74 17.67,4.89 3.39,-0.44 6.54,-1.72 9.69,-2.29 3.34,-0.6 7.81,0.52 8.69,-2.48 0.89,-3.04 -3.22,-4.14 -6.13,-4.29 -2.67,-0.13 -6.74,1.24 -9.58,1.86 -5.74,1.26 -14.06,0.92 -17.93,-4.07 -2.95,-3.81 -6.29,-11.68 -3.89,-17.96 2.17,-5.67 6.42,-9.04 11.37,-12 11.17,-6.68 32.52,-15.21 45.81,-10.22 1.64,0.61 2.61,1.2 3.85,1.95 2.95,1.77 6.56,5.95 8.24,9.46 3.33,6.94 2.26,23.14 2.15,32.1 -0.11,8.88 0.64,91.13 -0.42,92.47 -2.33,2.93 -21.96,3.51 -33.51,-4.75l-4.55 -3.91c-2.5,-2.61 -4.29,-7.05 -4.46,-12.06 -0.31,-9.05 5.01,-21.07 -1.73,-27.5 -3.04,-2.91 -4.25,-4.92 -9.69,-6.93 -4.03,-1.49 -9.52,-3.11 -10.88,1.23 -1.71,5.47 10.01,1.95 15.43,9.1 6.32,8.34 -4.01,22.62 2.9,34.55 4.71,8.14 8.62,11.4 17.99,15.32 12.95,5.41 22.28,2.14 28.07,2.7 1.61,3.37 0.81,108.35 0.84,126.89 0.02,13.18 -2.15,24.1 -7.86,34.26 -0.69,1.23 -1.37,2.49 -2.14,3.62 -0.72,1.05 -1.51,1.87 -2.3,3.01 -1.54,2.2 -3.22,3.91 -5.07,5.52 -4.8,4.19 -6.12,5.55 -12.49,8.69 -20.88,10.29 -63.23,8.12 -80.75,-10.96 -1.42,-1.54 -3.9,-6.04 -4.74,-8.48l-1.9 -6.27c-0.07,-1.12 -0.12,-0.37 0.1,-1.21l0.7 -1.25zm-3.26 -224.17c-0.87,0.86 -1.38,0.71 -2.95,1.05 -2.41,0.53 -6.49,2.69 -8.42,3.91 -9.61,6.09 -16.1,18.38 -18.81,30.08 -1.09,4.71 -1.55,9.7 -1.67,14.75 -0.22,9.16 1.61,6.59 -2.83,13.26 -4.5,6.76 -7.6,14.07 -8.98,23.66 -1.38,9.57 -0.12,20.62 3,28.86 2.84,7.49 4.98,6.38 2.77,11.68 -1.68,4.05 -2.46,8.2 -2.99,13.24 -1.46,13.86 3.6,27.16 12.1,36.71 3.29,3.69 -0.02,3.49 1.5,14.36 0.89,6.42 3.61,15.31 7.96,20.19 3.32,3.72 7.2,6.77 11.56,9.11 2.3,1.23 2.85,1.54 3.41,4.43 0.52,2.68 0.59,4.42 1.43,7.03 10.86,33.67 63.49,38.47 92.16,27.3 10.27,-4 12.94,-6.99 19.43,-13.15 4.95,-4.7 8.41,-11 11.23,-17.35 0.6,-1.35 0.67,-2.83 1.53,-1.81l1.01 -0.4c0.9,-1.18 2.12,3.23 3.35,5.64 3.14,6.15 8.53,13.64 13.58,17.67 22.18,17.68 56.57,19.01 82.01,8.16 3.74,-1.59 11.91,-5.47 13.36,-7.83l0.14 0.78c0.71,-1.13 0.87,-6.14 1.04,-8.33 0.24,-2.97 0.01,-2.23 -0.76,-2.76 -0.52,1.22 -0.65,0.88 -1.46,1.84 2.78,2.37 -15.34,10.64 -17.38,11.35 -9.91,3.45 -14.51,3.69 -24.96,4.83 -9.56,1.05 -18.2,-0.52 -26.83,-2.35 -8.41,-1.78 -14.93,-6.04 -20.17,-9.8l-3.77 -3.28c-2.29,-1.95 -7.53,-10.13 -9.13,-13.42 -4.29,-8.83 -4.96,-14.09 -5.83,-24.22l-0.04 -44.92c0,-4.07 -0.51,-11.56 0.18,-15.15l0.59 1.53c0.07,0.12 0.19,0.28 0.29,0.42l-0.08 -1.91 1.66 0.5c0.8,-0.88 -0.81,-0.84 1.15,-0.69 5.92,7.17 25.25,0.91 31.64,1.62 16.3,1.81 9.63,22.49 11.08,26.28 1.09,1.44 2.3,1.61 4.76,1.18 2.12,-1.02 1.96,-15.01 1.72,-16.75 -0.96,-6.92 -2.39,-8.1 -6.25,-12.17 -3.05,-3.22 -8.2,-4.68 -13.85,-5.25 -7.62,-0.77 -20.63,7.03 -29.99,-3.77 -3.73,-4.31 -3.09,-8.62 -2.97,-15.88 0.2,-12.31 0.11,-24.66 0.04,-36.97 -0.21,-36.89 0.45,-74.9 0.08,-111.79 -0.06,-6.15 0.11,-12.35 -0.11,-18.48 -0.26,-7.18 -0.37,-10.49 2.46,-16.34 1.31,-2.72 2.21,-3.36 4.25,-5.52 4.87,-5.15 15.36,-5.75 22.3,-5.53 9.99,0.32 21.04,5.61 27.65,9.81 7.85,4.99 16.99,11.38 14.72,22.76 -0.71,3.56 -1.98,7.29 -4.4,9.91 -4.29,4.65 -8.52,6.36 -16.79,5.86 -5.49,-0.33 -12.01,-0.88 -16.92,1.43 -11.92,5.62 -12.01,22.62 -6.81,23.73 3.65,0.78 3.95,-2.32 3.51,-4.84 -3.42,-20.06 21.2,-11.79 31.71,-14.81 4.55,-1.31 8.27,-4.97 10.56,-7.79 3.88,-4.81 3.3,-6.57 5.6,-12.91l0.27 1.12c1.17,-1.46 -0.15,-0.55 1.2,-1.12 0.34,-0.38 0.19,-0.98 2.45,-0.74l6.15 1.96c6.06,2.42 14.57,8.02 18.27,13.56 11.65,17.43 3.95,29.93 5.75,34.43 1.21,-0.95 0.72,-0.62 1.68,-2.46 1.58,-3.02 4.49,-4.2 5.5,-6.33 -0.06,-0.09 -0.11,-0.23 -0.13,-0.29l-0.24 -6.27c-0.1,-21.28 -14.45,-34.01 -33.64,-40.3 -7.35,-2.41 -6.98,-0.67 -8.46,-5.17 -4.43,-13.49 -26.95,-24.24 -40.58,-26.79 -31.67,-5.93 -34.65,10.51 -39.24,11.84 -2.54,-2.31 -3.71,-4.79 -6.47,-7.03 -8.7,-7.07 -22.78,-7.12 -33.6,-4.68 -13.24,2.99 -29.54,11.39 -35.53,18.56 -7.07,8.48 -3.43,11.4 -8.01,12.66 -1.83,0.5 -3.29,0.83 -5.18,1.46 -6.73,2.25 -13.3,5.43 -18.1,9.17 -5.59,4.35 -8.98,8.79 -12.04,15.24 -7.14,15.1 0.09,23 -3.47,22.47z"/>
     <path class="fil10" d="M155.66 576.47l-0.24 1.27c13.04,1.37 26.47,0.39 39.99,0.69 4.99,0.11 38.61,0.68 40.53,0.09 2.38,-1.95 15.3,-1.09 18.01,-1.08l52.81 -0.01c11.88,-0.01 23.77,0 35.65,0l25.97 -0.32c3.87,0.07 4.6,0.38 6.46,-1.89 0.17,-4.75 -3.7,-4.32 -7.78,-4.29l-84.06 -0.13c-39.83,-0.56 -80.64,0.67 -120.17,-0.06 -11.57,-0.21 -14.73,-22.92 -5.48,-31.4 3.42,-3.13 14.75,-1.98 21.79,-2.03 56.04,-0.35 112.49,0.58 168.57,0.28 3.92,-0.02 21.14,0.78 22.92,-1.08 1.2,-1.25 0.96,-3.36 -0.03,-4.49 -1.77,-2.01 -13.19,-1.3 -16.73,-1.24 -7.95,0.13 -15.84,-0.02 -23.77,0.04l-95.94 -0c-6.71,-0.03 -68.41,-0.33 -72.17,0.17 -14.57,1.94 -17.6,18.62 -15.1,30.33 2.44,11.42 7.95,11.9 8.78,15.13z"/>
     <path class="fil10" d="M431.76 595.4c-6.4,-0.05 -12.6,-0.05 -18.94,-0.52 -6.53,-0.49 -6.01,-2.92 -15.64,2.16 -4.22,2.23 -9.21,4.96 -11.98,7.81 -1.79,1.83 -3.11,2.94 -4.31,5.31 -1.7,3.38 -0.59,5.18 2.67,6.22 8.67,2.77 26.74,2 36.5,1.14 5.24,-0.46 13.09,-0.29 14.05,-5.52 0.89,-4.85 0,-13.09 -2.35,-16.6z"/>
     <path class="fil10" d="M444.29 619.06c6.23,3.97 27.23,2.12 35.78,0.94 17.68,-2.44 13.68,-9.14 9.84,-23.31 -5.68,-0.05 -10.58,0.97 -16.36,0.86 -7.39,-0.14 -8.4,-2.11 -14.31,2.11 -5.55,3.96 -15.97,12.21 -14.95,19.41z"/>
     <path class="fil10" d="M242.83 368.23c2.48,-0.37 2.57,-4.15 2.57,-6.44 0.04,-13.49 -3.23,-21.23 -10.71,-27.41 -7.88,-6.5 -16.9,-8.79 -29.47,-6.23 -12.21,2.48 -21.91,-0.94 -27.64,-8.01 -6.08,-7.51 -5.32,-23.07 -10.78,-17.85 -2.12,2.03 -1.39,3.03 -0.99,5.35 1.43,8.36 5.25,16.52 12.2,21.35 21.51,14.96 32.22,-2.01 49.06,7.63 19.53,11.17 6.3,33.03 15.76,31.61z"/>
     <path class="fil10" d="M375.04 333.61l-0.62 -0.85c-0.93,0.88 0.28,1.31 -1.52,-0.08 -0.04,-0.03 -0.87,-0.97 -1.08,-1.14 -0.77,-0.64 -1.58,-0.86 -2.73,-0.32 -2.79,1.31 -2.73,1.97 -6.4,2.87 -11.42,2.81 -18.61,-4.61 -20.87,-15.36 -1.53,-7.25 2.36,-17.6 -1.14,-24.41 -3.35,-6.51 -8.09,-9.71 -15.17,-11.95 -4.66,-1.48 -11.18,-0.89 -15.55,0.77 -5.65,2.16 -12.72,8.62 -7.46,11.6 1.15,0.65 1.74,0.66 3.01,-0.26 1.01,-0.73 3.2,-3.33 4.91,-4.39 3.66,-2.28 11.32,-2.49 15.61,-0.93 4.52,1.65 7.95,4.74 9.04,9.55 2.37,10.52 -4.31,15.22 4.06,30.79 5.19,9.66 13.27,13.61 24.57,11.16 7.6,-1.65 7.59,-3.68 9.74,-5.91 1.1,-1.14 -0.07,-0.47 1.61,-1.15z"/>
     <path class="fil10" d="M219.6 407.34l1.88 -1.77c0.02,-0.13 0.08,-0.17 0.11,-0.26 0.01,-1.41 -0.41,-1.67 2.96,-3.05 1.39,-0.57 2.82,-0.97 4.18,-1.23 3.07,-0.58 7.46,-0.81 10.7,-0.3 9.88,1.56 11.18,5.31 14.25,7.98 2.83,2.47 5.58,-1.37 4.87,-3.6 -0.33,-1.03 -4.77,-4.72 -5.57,-5.31 -4.32,-3.13 -8.87,-4.61 -15.73,-5.85 -5.67,-1.03 -14.07,1.64 -17.73,4.3 -4.05,2.94 -7.58,6.74 -11.12,10.39 -2.04,2.1 -3.23,3.26 -6.17,4.9 -13.38,7.46 -23.43,1.42 -26.61,1.42 -0.93,1.19 -1.73,1.91 -2.22,3.6 3.23,6.17 19.71,6 26.32,2.95 4.02,-1.86 8.02,-3.17 10.85,-6.32 1.46,-1.64 2.75,-2.42 4.28,-4.05 1.36,-1.45 2.21,-3.5 4.77,-3.79z"/>
     <path class="fil10" d="M229.78 439.68c1.6,-2.84 -3.51,-8.02 -11.23,0.24 -1.06,1.13 -1.71,2.5 -2.57,4.01 -4.09,7.18 -2.62,14.52 1.2,21.57 6.6,12.17 27.07,12.91 37.82,2.08 10.29,-10.37 4.48,-15.05 1.13,-12.05 -1.4,1.25 -3.01,4.15 -4.31,5.78 -8.84,11.07 -28.21,9.71 -31.09,-3.56 -1.36,-6.27 0.17,-11.93 5.31,-15.25 1.5,-0.97 2.8,-1.14 3.74,-2.82z"/>
     <path class="fil10" d="M358.63 443.7c-5.08,0.7 -8.68,1.85 -12.5,5.01 -2.15,1.78 -3.95,3.92 -5.6,6.22 -3.96,5.51 -1.21,4.32 -7.62,10.48 -0.89,0.86 -0.34,0.46 -1.53,1.1 -2.94,1.6 -4.33,1.22 -7.92,1.29 -4.25,0.07 -4.39,4.74 -2.33,6.35 5.3,4.15 15.42,-3.17 17.28,-5.03 5.68,-5.67 4.96,-8.88 9.78,-13.53 1.96,-1.88 2.16,-3.32 7.26,-4.73 12.18,-3.37 17.67,1.64 19.4,2.04 3.19,0.73 5.18,-3.26 2.66,-5.59 -3.72,-3.46 -13,-4.42 -18.89,-3.6z"/>
     <path class="fil10" d="M349.58 268.85c3.08,6.4 3.1,4.82 6.27,8.59 3.41,4.06 13.6,6.69 16.8,4.54 1.36,-0.91 2.01,-3.28 0.58,-4.73 -3.3,-3.35 -16.48,2.86 -19.93,-17.6 -0.3,-1.8 -0.4,-5.12 -0.92,-6.6 -1.39,-3.98 -6.39,-2.31 -5.83,3.98 0.36,4.12 1.42,8.48 3.03,11.82z"/>
     <path class="fil10" d="M446.65 318.08c-1.25,0.29 -0.44,-0.19 -1.79,1.32 -2.91,3.26 -1.63,9.11 3.11,8.06 3.98,-0.88 4.84,-10.8 -1.32,-9.38z"/>
     <path class="fil10" d="M412.16 310.96c-0.43,-0.67 0.3,-0.69 -1.52,-0.77 -1.53,-0.07 -1.21,0.2 -1.71,0.57 0.91,1.05 0.46,-0.06 0.38,0.82 -0.01,0.1 -0.17,0.41 -0.23,0.52 -0.26,0.44 -1.88,1.12 -1.9,4.38 -0.02,2.34 1.76,4.35 3.79,4.13 3.54,-0.38 5.51,-7.39 0.13,-9.11 0.83,-0.82 -1.08,-1.42 1.05,-0.54z"/>
    </g>
   </g>
   <path class="fil11" d="M95.32 143.97c-0.64,0.96 -0.27,0.76 -1.26,0.81 -0.22,0.77 0.87,1.02 -1.19,0.04 -0.54,-0.26 -1.13,-0.73 -1.69,-1.08 -3.16,-2.03 -3.56,-1.87 -6.29,-2.73 -6.43,-2.01 -14.01,-0.18 -18.73,4.65 -6.79,6.95 -7.45,19.1 0.91,28.41 4.48,4.99 10.9,8.08 16.43,10.39l15.79 4.64c0.09,0.01 0.22,0.03 0.31,0.04 0.09,0.01 0.22,0.03 0.31,0.05 0.09,0.01 0.22,0.04 0.31,0.06l19.98 1.55c2.11,-0.62 3.6,-4.18 4.58,-6l5.59 -12.96c0.57,-1.86 -0.09,-1.23 0.99,-3.27l2.21 -6.8c0.17,-0.91 0.05,-0.94 0.22,-1.87l0.48 -3.41c1.2,-6.62 1.93,-11.57 0.01,-19.38 -2.71,-11.03 -14.14,-18.5 -23.43,-16.2 -6.12,1.52 -10.14,4.71 -12.8,9.68l-2.27 6.46c-0.48,2.06 0.38,4.99 -0.25,7.16l-0.19 -0.23z"/>
   <path class="fil12" d="M575.67 559.94c-0.7,0.92 -0.32,0.75 -1.31,0.73 -0.27,0.76 0.81,1.07 -1.19,-0.03 -0.53,-0.29 -1.08,-0.8 -1.61,-1.19 -3.02,-2.22 -3.44,-2.09 -6.11,-3.12 -6.29,-2.4 -13.97,-1.05 -18.99,3.47 -7.21,6.51 -8.63,18.6 -0.87,28.41 4.16,5.26 10.37,8.74 15.75,11.39l15.47 5.62c0.09,0.02 0.22,0.04 0.31,0.06 0.09,0.02 0.21,0.05 0.3,0.07 0.09,0.02 0.21,0.05 0.3,0.07l19.84 2.79c2.14,-0.48 3.85,-3.95 4.95,-5.71l6.38 -12.59c0.68,-1.82 -0.01,-1.23 1.19,-3.2l2.63 -6.64c0.23,-0.9 0.1,-0.94 0.33,-1.86l0.69 -3.37c1.61,-6.53 2.64,-11.43 1.22,-19.34 -2.01,-11.18 -12.96,-19.35 -22.38,-17.63 -6.21,1.13 -10.42,4.07 -13.37,8.86l-2.67 6.3c-0.6,2.03 0.07,5.01 -0.69,7.13l-0.17 -0.24z"/>
   <path class="fil13" d="M41.61 453.37c-1.16,0 -0.78,0.2 -1.38,-0.6 -0.77,0.24 -0.36,1.29 -0.7,-0.97 -0.09,-0.6 -0.02,-1.34 -0.03,-2 -0.06,-3.75 -0.41,-4 -1.22,-6.75 -1.9,-6.46 -7.62,-11.76 -14.26,-13.01 -9.55,-1.8 -20.03,4.39 -23.14,16.51 -1.67,6.49 -0.68,13.55 0.47,19.43l4.89 15.71c0.04,0.08 0.1,0.2 0.13,0.28 0.04,0.08 0.09,0.2 0.13,0.28 0.04,0.08 0.09,0.2 0.12,0.28l9.79 17.48c1.68,1.41 5.47,0.67 7.54,0.48l13.89 -2.54c1.86,-0.56 0.97,-0.75 3.27,-0.99l6.88 -1.93c0.86,-0.36 0.81,-0.48 1.68,-0.86l3.1 -1.49c6.17,-2.67 10.7,-4.82 16.14,-10.74 7.68,-8.37 7.55,-22.03 0.48,-28.48 -4.66,-4.25 -9.55,-5.82 -15.15,-5.28l-6.63 1.69c-1.98,0.75 -3.94,3.09 -6.1,3.77l0.09 -0.28z"/>
   <path class="fil14" d="M387.29 13.55c-1.03,0.53 -0.61,0.53 -1.5,0.09 -0.57,0.56 0.26,1.32 -1.06,-0.55 -0.35,-0.49 -0.63,-1.19 -0.94,-1.77 -1.75,-3.32 -2.18,-3.38 -4.14,-5.47 -4.61,-4.91 -12.11,-7.05 -18.6,-5.17 -9.33,2.71 -15.88,12.96 -13.19,25.18 1.44,6.54 5.51,12.4 9.19,17.13l11.46 11.81c0.07,0.06 0.18,0.13 0.25,0.19 0.07,0.06 0.17,0.14 0.24,0.19 0.07,0.06 0.17,0.14 0.24,0.2l16.63 11.18c2.14,0.5 5.19,-1.87 6.94,-2.97l11.24 -8.54c1.41,-1.34 0.52,-1.11 2.47,-2.36l5.27 -4.83c0.6,-0.71 0.5,-0.79 1.11,-1.52l2.1 -2.73c4.3,-5.17 7.37,-9.13 9.55,-16.87 3.07,-10.93 -3.21,-23.06 -12.43,-25.63 -6.08,-1.69 -11.15,-0.88 -15.9,2.13l-5.15 4.5c-1.43,1.56 -2.12,4.54 -3.74,6.11l-0.05 -0.3z"/>
   <path class="fil15" d="M593.74 313.8c-1.12,0.31 -0.7,0.41 -1.49,-0.21 -0.67,0.44 -0,1.34 -0.93,-0.74 -0.24,-0.55 -0.38,-1.29 -0.57,-1.92 -1.07,-3.6 -1.47,-3.74 -2.99,-6.17 -3.56,-5.71 -10.5,-9.28 -17.23,-8.7 -9.68,0.83 -18.11,9.62 -17.85,22.13 0.14,6.7 2.99,13.23 5.68,18.59l8.94 13.82c0.06,0.07 0.15,0.17 0.21,0.23 0.06,0.07 0.14,0.17 0.2,0.24 0.06,0.07 0.14,0.17 0.2,0.24l14.13 14.21c2,0.91 5.45,-0.82 7.39,-1.56l12.69 -6.18c1.64,-1.04 0.73,-0.99 2.89,-1.83l6.11 -3.71c0.73,-0.58 0.65,-0.68 1.39,-1.28l2.59 -2.27c5.23,-4.23 9.01,-7.51 12.65,-14.68 5.14,-10.12 1.35,-23.25 -7.2,-27.56 -5.63,-2.84 -10.76,-3.04 -16.01,-1.01l-5.93 3.41c-1.71,1.25 -2.97,4.04 -4.86,5.27l0.01 -0.3z"/>
  </g>
 </g>
</svg>
