<?xml version="1.0" encoding="UTF-8"?>
<!DOCTYPE svg PUBLIC "-//W3C//DTD SVG 1.1//EN" "http://www.w3.org/Graphics/SVG/1.1/DTD/svg11.dtd">
<!-- Creator: CorelDRAW -->
<svg xmlns="http://www.w3.org/2000/svg" xml:space="preserve" width="50.6209mm" height="11.1816mm" version="1.1" style="shape-rendering:geometricPrecision; text-rendering:geometricPrecision; image-rendering:optimizeQuality; fill-rule:evenodd; clip-rule:evenodd"
viewBox="0 0 854.73 188.8"
 xmlns:xlink="http://www.w3.org/1999/xlink"
 xmlns:xodm="http://www.corel.com/coreldraw/odm/2003">
 <defs>
  <style type="text/css">
   <![CDATA[
    .fil3 {fill:#9595CD}
    .fil0 {fill:#B3DFE4}
    .fil1 {fill:#FEDC5E}
    .fil2 {fill:#FFBBBE}
   ]]>
  </style>
 </defs>
 <g id="Camada_x0020_1">
  <metadata id="CorelCorpID_0Corel-Layer"/>
  <g id="_1794569157408">
   <g>
    <path class="fil0" d="M111.52 64.76c-6.65,2.23 -2.53,9.3 -7.43,22.72 -2.78,7.59 -7.54,14.46 -11.86,18.48 -11.87,11.05 -22.82,12.88 -40.52,19.63 -8.17,3.11 -23.15,9.9 -28.79,16.03 -4.23,4.59 -3.62,3.33 -7.37,8.16 -4.56,5.86 -7.25,11.67 -9.45,20.41 -0.79,3.15 -2.45,9.37 -2.18,12.43 0.38,4.35 4.55,7.51 9.34,5.64 8.5,-3.33 -1.18,-21.58 21.29,-38.99 16.75,-12.97 44.12,-15.93 61.37,-28.66 7.58,-5.59 9.16,-7.01 14.89,-15.58 5.5,-8.22 10.96,-24.21 9.84,-34.57 -0.44,-4.06 -4.38,-7.28 -9.13,-5.69z"/>
    <path class="fil1" d="M108.46 0.73c-14.39,3.2 -23.43,16.88 -20.26,30.97 4.07,18.05 24.7,26.56 40.3,16.51 24.01,-15.46 9.08,-53.95 -20.04,-47.48z"/>
    <path class="fil2" d="M17.18 83.26c-10.36,1.99 -19.66,12.66 -16.59,25.76 6.31,26.89 47.71,18.75 41.85,-9.65 -2.18,-10.57 -12.07,-18.64 -25.27,-16.11z"/>
   </g>
   <g>
    <path class="fil3" d="M574.4 75.14c-48.36,7.06 -38.6,83.96 12.83,74.72 9.5,-1.71 17.54,-6.81 23.1,-14.05 18.67,-24.3 0.44,-65.98 -35.93,-60.66zm-0.06 15.29c-11.26,3.35 -15.94,16.05 -12.81,29.74 2.43,10.63 11.43,19.59 25.21,14.94 21.27,-7.17 16.67,-53.33 -12.4,-44.68z"/>
    <path class="fil3" d="M725.85 95.11c13.91,3.79 11.21,-4.6 24.58,-5.71 11.93,-0.99 15.66,5.32 16.87,16.06 -17.03,-0.3 -51.53,-1.74 -46.85,26.87 1.56,9.52 9.64,16.26 19.58,17.71 10.44,1.52 20.9,-1.8 27.34,-9.73 -0.24,11.62 10.38,9.12 13.56,7.75 4.96,-2.13 3.05,-14.61 3.06,-19.63 0,-13.2 1.89,-28.93 -4.37,-40.06 -8.56,-15.23 -30,-17.56 -48.01,-7.77 -7.13,3.87 -8.49,5.16 -5.76,14.5zm41.44 22.25c-6.25,0.1 -17.31,-0.67 -22.85,1.16 -15.35,5.08 -4.06,26.25 14.82,15.7 5.84,-3.27 7.57,-7.9 8.03,-16.86z"/>
    <path class="fil3" d="M342.44 106.33c-21.5,0.86 -49.06,-0.91 -45.92,25.52 1.1,9.23 8.85,16.22 18.08,17.91 5.07,0.93 10.78,0.6 15.65,-0.83 5.77,-1.7 7.8,-3.64 11.55,-7.47l1.62 6.17c3.41,0.84 9.19,2.01 13.09,0.57 4.28,-1.58 3.02,-6.39 2.98,-11.78 -0.07,-9.95 0.19,-20 -0.04,-29.92 -1.12,-47.37 -55.92,-31.19 -58.88,-18.85 -1.19,4.95 2.26,8.94 6.41,9.26 5.09,0.39 32.54,-22.24 35.47,9.41zm-0.22 11.66c-7.41,-0.66 -25.64,-2.21 -28.13,6.76 -3.51,12.64 12.2,14.97 21.26,9.15 4.79,-3.08 6.72,-7.79 6.86,-15.91z"/>
    <path class="fil3" d="M427.09 117.72l47.85 0.04c7.78,-12.9 -4.34,-47.29 -36.71,-42.53 -35.78,5.27 -40.14,60.35 -5.38,72.91 26.54,9.59 48.94,-11.74 35.15,-16.58 -5.85,-2.05 -36.14,17.22 -40.91,-13.84zm-0.15 -12.33l33.26 0.3c-0.79,-9.99 -6.33,-17.43 -16.67,-16.82 -10.54,0.62 -14.52,7.24 -16.59,16.52z"/>
    <path class="fil3" d="M167.75 49.8c-1.95,18.35 -2.36,15.42 29.58,15.19 0.01,17.1 -0.95,75.38 0.89,82.46 3.08,0.79 4.7,1.02 8.05,1.06 11.09,0.11 8.88,-2.34 8.88,-25.05l0 -58.53 21.99 0.13c3.69,0 9.02,1.23 7.79,-9.42 -1.21,-10.45 -16.56,-6.44 -36.69,-6.43l-40.49 0.58z"/>
    <path class="fil3" d="M821.95 74.86c-8.52,0.96 -14.52,4.53 -18.36,9.13 -4.54,5.45 -6.32,14.24 -2.25,21.31 8.39,14.57 31.4,11.68 35.62,19.35 4.3,7.81 -4.85,12.54 -12.79,11.96 -10.14,-0.74 -15.91,-8.15 -20.87,-7.53 -11.07,1.39 -8.73,21.91 22.87,21.21 30.83,-0.69 37.94,-30.23 15.22,-41.2 -6.53,-3.15 -14.3,-3.87 -20.93,-6.87 -8.14,-3.67 -5.76,-11.67 3.19,-12.97 11.29,-1.64 16.14,5.53 21.47,5.42 6.04,-0.13 10.46,-9.06 -0.37,-15.81 -5.52,-3.44 -15.75,-4.79 -22.8,-3.99z"/>
    <path class="fil3" d="M494.94 66.64l0.04 9.82 -10.17 0.11c-1.83,2.75 -1.95,2.96 -2.18,6.16 -0.69,9.45 4.82,7.99 12.46,7.9 -0.17,16.67 -2.49,43.24 6.75,53.14 6.34,6.79 25.29,9.42 33.13,2.49 1.02,-6.06 0.51,-7.27 -2.83,-10.8 -8.78,-1.85 -17.66,6.93 -19.98,-11.01 -1.18,-9.08 -0.27,-24.12 -0.29,-33.84 18.87,0.39 25.15,1.89 20.6,-13.33 -5.67,-1.36 -14.05,-0.87 -20.61,-0.76 0.11,-4.5 1.73,-16.81 -2.89,-18.68 -1.77,-0.72 -8.67,-0.69 -10.51,-0.11 -4.26,1.34 -3.53,3.77 -3.53,8.9z"/>
    <path class="fil3" d="M377.97 89.57l0.01 54.82c0.02,6.2 1.79,16.7 -4.65,18.46 -3.73,1.02 -7.17,-0.02 -9.37,2.75 -2.86,3.61 -4.56,14.49 11.73,12.04 22.86,-3.44 19.28,-23.76 19.28,-45.2l0.01 -35.88c-0.02,-6.28 2.11,-18.5 -4.38,-20.18 -12.38,-3.22 -12.63,3.63 -12.63,13.21z"/>
    <path class="fil3" d="M648.63 87.27c-0.65,-3.4 -0.33,-6.31 -1.51,-10.01 -19.72,-4.86 -15.2,2.92 -15.19,36.22 0,10.2 -2.56,28.05 2.96,34.74 0.01,0 9.84,2.24 13.06,-1.91 3.13,-5.33 0.41,-30.21 1.16,-38.69 0.52,-5.89 2.91,-11.04 6.31,-13.35 8.75,-5.94 21.42,4.09 18.26,-14.63 -0.85,-5.03 -4.5,-4.9 -9.83,-4.11 -9.4,1.4 -11.53,6.3 -15.23,11.73z"/>
    <path class="fil3" d="M263.3 87.92c0.52,-12.24 -3.94,-13.71 -15.66,-10.86 -1.31,9.98 -1.54,63.12 1.06,70.62 23.82,5.93 12.63,-11.32 15.33,-39.22 0.58,-5.98 2.84,-11.38 6.14,-13.76 6.46,-4.66 11.99,-1.25 17.58,-3.42 2.75,-7.76 3.68,-17.68 -8.41,-15.5 -9.66,1.74 -11.72,7.53 -16.04,12.13z"/>
    <path class="fil3" d="M688.65 108.5c-0,3.33 -1.59,36.14 1.98,39.03 3.9,1.76 9.89,1.37 13.56,-0.56 1.88,-1.94 3.22,-62.85 -0.85,-70.1 -18.31,-4.58 -14.68,4.58 -14.69,31.63z"/>
    <path class="fil3" d="M693.76 45.32c-14.08,4.8 -5.35,24.23 7.48,19.24 11.3,-4.4 6.36,-23.96 -7.48,-19.24z"/>
    <path class="fil3" d="M383.98 45.35c-5.93,2.07 -8.52,6.34 -6.68,12.55 1.47,4.95 7.39,9.18 13.98,6.66 11.04,-4.23 6.61,-24.05 -7.3,-19.21z"/>
    <path class="fil3" d="M572.58 65.65c6.9,4.37 13.36,1.45 17.85,-4.57 3.15,-4.23 8.56,-9.13 7.73,-14.73 -12.99,-2.13 -12.09,-2.32 -18.46,7.1 -2.46,3.64 -6.69,8.13 -7.12,12.2z"/>
   </g>
  </g>
 </g>
</svg>
