<?xml version="1.0" encoding="UTF-8"?>
<!DOCTYPE svg PUBLIC "-//W3C//DTD SVG 1.1//EN" "http://www.w3.org/Graphics/SVG/1.1/DTD/svg11.dtd">
<!-- Creator: CorelDRAW -->
<svg xmlns="http://www.w3.org/2000/svg" xml:space="preserve" width="54.0861mm" height="19.4312mm" version="1.1" style="shape-rendering:geometricPrecision; text-rendering:geometricPrecision; image-rendering:optimizeQuality; fill-rule:evenodd; clip-rule:evenodd"
viewBox="0 0 962.15 345.67"
 xmlns:xlink="http://www.w3.org/1999/xlink"
 xmlns:xodm="http://www.corel.com/coreldraw/odm/2003">
 <defs>
  <style type="text/css">
   <![CDATA[
    .fil3 {fill:#9595CD}
    .fil0 {fill:#B3DFE4}
    .fil1 {fill:#FEDC5E}
    .fil2 {fill:#FFBBBE}
   ]]>
  </style>
 </defs>
 <g id="Camada_x0020_1">
  <metadata id="CorelCorpID_0Corel-Layer"/>
  <g id="_2132672664464">
   <g>
    <path class="fil0" d="M204.19 118.57c-12.18,4.08 -4.63,17.02 -13.61,41.59 -5.08,13.9 -13.8,26.47 -21.71,33.83 -21.73,20.24 -41.78,23.59 -74.18,35.94 -14.95,5.7 -42.38,18.13 -52.7,29.34 -7.74,8.41 -6.62,6.1 -13.49,14.93 -8.35,10.73 -13.28,21.36 -17.31,37.37 -1.45,5.76 -4.49,17.16 -4,22.76 0.7,7.96 8.34,13.75 17.11,10.32 15.56,-6.09 -2.17,-39.52 38.97,-71.39 30.67,-23.75 80.78,-29.17 112.37,-52.48 13.88,-10.24 16.76,-12.83 27.27,-28.52 10.08,-15.06 20.07,-44.33 18.01,-63.28 -0.81,-7.44 -8.01,-13.33 -16.72,-10.41z"/>
    <path class="fil1" d="M198.57 1.33c-26.34,5.85 -42.91,30.9 -37.09,56.69 7.45,33.04 45.22,48.63 73.78,30.23 43.96,-28.31 16.62,-98.77 -36.69,-86.93z"/>
    <path class="fil2" d="M31.46 152.43c-18.97,3.64 -35.99,23.18 -30.37,47.16 11.55,49.23 87.34,34.33 76.63,-17.66 -3.98,-19.35 -22.1,-34.13 -46.26,-29.5z"/>
   </g>
   <g>
    <path class="fil3" d="M666.81 219.56c-50.94,7.44 -40.67,88.46 13.52,78.72 10,-1.8 18.48,-7.18 24.34,-14.81 19.67,-25.6 0.46,-69.51 -37.86,-63.91zm-0.06 16.1c-11.86,3.53 -16.8,16.91 -13.5,31.33 2.56,11.2 12.05,20.64 26.56,15.75 22.41,-7.55 17.56,-56.18 -13.06,-47.08z"/>
    <path class="fil3" d="M826.36 240.61c14.65,3.99 11.81,-4.85 25.9,-6.02 12.57,-1.05 16.5,5.61 17.77,16.92 -17.94,-0.32 -54.29,-1.84 -49.36,28.31 1.64,10.03 10.16,17.13 20.63,18.66 11,1.6 22.02,-1.9 28.81,-10.25 -0.25,12.24 10.94,9.61 14.29,8.17 5.22,-2.24 3.22,-15.39 3.22,-20.68 0,-13.91 1.99,-30.47 -4.6,-42.21 -9.02,-16.05 -31.6,-18.5 -50.58,-8.18 -7.51,4.08 -8.94,5.44 -6.07,15.28zm43.66 23.44c-6.58,0.11 -18.24,-0.7 -24.07,1.23 -16.18,5.35 -4.28,27.66 15.61,16.54 6.15,-3.44 7.98,-8.32 8.46,-17.76z"/>
    <path class="fil3" d="M422.43 252.43c-22.65,0.91 -51.69,-0.96 -48.38,26.88 1.16,9.73 9.32,17.09 19.05,18.87 5.34,0.98 11.35,0.64 16.49,-0.87 6.08,-1.79 8.21,-3.83 12.16,-7.87l1.71 6.51c3.59,0.89 9.68,2.12 13.79,0.6 4.51,-1.66 3.19,-6.73 3.14,-12.41 -0.08,-10.48 0.2,-21.07 -0.04,-31.52 -1.18,-49.9 -58.91,-32.86 -62.03,-19.86 -1.25,5.21 2.38,9.42 6.75,9.76 5.36,0.41 34.28,-23.43 37.36,9.91zm-0.24 12.29c-7.81,-0.69 -27.01,-2.32 -29.63,7.12 -3.69,13.32 12.85,15.78 22.4,9.65 5.05,-3.24 7.08,-8.21 7.23,-16.76z"/>
    <path class="fil3" d="M511.61 264.42l50.41 0.04c8.2,-13.59 -4.58,-49.82 -38.67,-44.8 -37.7,5.55 -42.29,63.58 -5.67,76.81 27.96,10.1 51.57,-12.37 37.04,-17.47 -6.16,-2.16 -38.07,18.14 -43.11,-14.58zm-0.15 -12.99l35.04 0.31c-0.83,-10.53 -6.67,-18.36 -17.56,-17.72 -11.1,0.65 -15.3,7.63 -17.48,17.41z"/>
    <path class="fil3" d="M238.38 192.86c-2.05,19.34 -2.49,16.25 31.16,16 0.01,18.02 -1,79.41 0.93,86.87 3.24,0.83 4.95,1.08 8.49,1.12 11.69,0.12 9.36,-2.46 9.36,-26.39l0 -61.67 23.17 0.14c3.89,0 9.5,1.3 8.21,-9.92 -1.27,-11.01 -17.44,-6.79 -38.66,-6.77l-42.66 0.62z"/>
    <path class="fil3" d="M927.61 219.27c-8.97,1.01 -15.3,4.77 -19.34,9.62 -4.79,5.74 -6.66,15 -2.37,22.45 8.84,15.35 33.08,12.3 37.52,20.38 4.53,8.23 -5.11,13.21 -13.48,12.6 -10.69,-0.78 -16.76,-8.59 -21.98,-7.93 -11.66,1.46 -9.19,23.09 24.1,22.34 32.48,-0.72 39.97,-31.85 16.04,-43.4 -6.88,-3.32 -15.06,-4.08 -22.06,-7.24 -8.57,-3.87 -6.07,-12.3 3.36,-13.67 11.89,-1.73 17,5.83 22.62,5.71 6.36,-0.14 11.02,-9.54 -0.39,-16.66 -5.81,-3.63 -16.59,-5.04 -24.02,-4.2z"/>
    <path class="fil3" d="M583.1 210.61l0.04 10.35 -10.71 0.12c-1.93,2.9 -2.05,3.12 -2.29,6.49 -0.73,9.96 5.08,8.42 13.13,8.32 -0.18,17.57 -2.63,45.56 7.11,55.99 6.68,7.15 26.65,9.92 34.91,2.63 1.07,-6.39 0.54,-7.66 -2.98,-11.38 -9.25,-1.94 -18.61,7.3 -21.05,-11.6 -1.24,-9.56 -0.29,-25.41 -0.31,-35.65 19.88,0.41 26.49,1.99 21.7,-14.05 -5.97,-1.43 -14.8,-0.92 -21.72,-0.81 0.12,-4.74 1.82,-17.71 -3.04,-19.68 -1.87,-0.76 -9.13,-0.73 -11.07,-0.12 -4.49,1.41 -3.72,3.97 -3.71,9.38z"/>
    <path class="fil3" d="M459.86 234.76l0.01 57.75c0.02,6.53 1.88,17.59 -4.9,19.45 -3.93,1.08 -7.56,-0.02 -9.87,2.9 -3.02,3.8 -4.81,15.26 12.35,12.68 24.08,-3.62 20.32,-25.03 20.31,-47.63l0.01 -37.8c-0.02,-6.62 2.23,-19.49 -4.61,-21.27 -13.04,-3.39 -13.3,3.82 -13.3,13.91z"/>
    <path class="fil3" d="M745.02 232.35c-0.69,-3.59 -0.35,-6.65 -1.59,-10.54 -20.77,-5.12 -16.02,3.08 -16,38.16 0,10.75 -2.7,29.55 3.12,36.6 0.01,0 10.36,2.36 13.76,-2.01 3.3,-5.61 0.43,-31.83 1.22,-40.76 0.55,-6.21 3.07,-11.63 6.65,-14.06 9.22,-6.26 22.57,4.31 19.24,-15.41 -0.89,-5.3 -4.74,-5.16 -10.35,-4.33 -9.9,1.47 -12.15,6.64 -16.04,12.35z"/>
    <path class="fil3" d="M339.04 233.03c0.54,-12.9 -4.15,-14.45 -16.5,-11.44 -1.38,10.51 -1.62,66.5 1.12,74.41 25.1,6.25 13.3,-11.92 16.15,-41.32 0.61,-6.3 3,-11.98 6.47,-14.49 6.81,-4.91 12.63,-1.31 18.52,-3.6 2.89,-8.18 3.88,-18.63 -8.86,-16.33 -10.18,1.84 -12.35,7.94 -16.89,12.78z"/>
    <path class="fil3" d="M787.18 254.72c-0,3.51 -1.68,38.08 2.08,41.13 4.11,1.85 10.42,1.44 14.28,-0.59 1.98,-2.05 3.39,-66.21 -0.89,-73.86 -19.29,-4.83 -15.46,4.82 -15.47,33.32z"/>
    <path class="fil3" d="M792.56 188.14c-14.83,5.06 -5.64,25.53 7.88,20.27 11.91,-4.64 6.7,-25.24 -7.88,-20.27z"/>
    <path class="fil3" d="M466.19 188.18c-6.25,2.18 -8.98,6.68 -7.04,13.23 1.54,5.21 7.78,9.67 14.73,7.01 11.64,-4.46 6.97,-25.34 -7.69,-20.24z"/>
    <path class="fil3" d="M664.89 209.56c7.27,4.61 14.07,1.53 18.8,-4.82 3.32,-4.46 9.02,-9.62 8.15,-15.52 -13.69,-2.25 -12.74,-2.45 -19.45,7.48 -2.59,3.83 -7.05,8.57 -7.5,12.85z"/>
   </g>
  </g>
 </g>
</svg>
