<?xml version="1.0" encoding="UTF-8"?>
<!DOCTYPE svg PUBLIC "-//W3C//DTD SVG 1.1//EN" "http://www.w3.org/Graphics/SVG/1.1/DTD/svg11.dtd">
<!-- Creator: CorelDRAW -->
<svg xmlns="http://www.w3.org/2000/svg" xml:space="preserve" width="25.3042mm" height="34.6606mm" version="1.1" style="shape-rendering:geometricPrecision; text-rendering:geometricPrecision; image-rendering:optimizeQuality; fill-rule:evenodd; clip-rule:evenodd"
viewBox="0 0 247.28 338.71"
 xmlns:xlink="http://www.w3.org/1999/xlink"
 xmlns:xodm="http://www.corel.com/coreldraw/odm/2003">
 <defs>
  <style type="text/css">
   <![CDATA[
    .fil3 {fill:#010727}
    .fil4 {fill:#0B2647}
    .fil15 {fill:#2A475E}
    .fil9 {fill:#44677D}
    .fil10 {fill:#6D95A3}
    .fil2 {fill:#85380D}
    .fil5 {fill:#A86F71}
    .fil7 {fill:#A8DADC}
    .fil11 {fill:#B47A4C}
    .fil1 {fill:#C7DDE2}
    .fil6 {fill:#D99466}
    .fil13 {fill:#FBC49A}
    .fil14 {fill:#FDE8C6}
    .fil0 {fill:#FEF7EC}
    .fil8 {fill:#FFB6B9}
    .fil12 {fill:#FFD166}
   ]]>
  </style>
 </defs>
 <g id="Camada_x0020_1">
  <metadata id="CorelCorpID_0Corel-Layer"/>
  <g id="_2135022020368">
   <rect class="fil0" x="76.68" y="164.82" width="89.21" height="168.74"/>
   <path class="fil1" d="M184.08 64.78c0.75,5.07 1.43,10.08 1.87,15.22 1.37,15.97 0.87,13.11 6.22,27.26 5.2,13.76 10.43,25.89 3.71,40.24 -3.21,6.84 -11.91,14.02 -19.02,14.44 0.49,0.56 0.09,0.36 0.89,0.61 0.67,0.21 0.56,0.07 1.03,0.04 1.84,-1.01 3.8,-1.54 5.74,-2.53 2.26,-1.15 3.11,-1.71 5.02,-3.33 3.79,-3.22 1.15,-0.59 4.07,-4.3 11.41,-14.55 4.86,-30.27 -0.69,-45.61 -1.34,-3.69 -3.58,-8.19 -4.42,-12.25 -2.02,-9.73 -1.88,-20.41 -3.77,-30.32 -0.05,0.07 -0.14,0.06 -0.19,0.18 -0.36,1.01 0.36,-0.34 -0.46,0.35z"/>
   <path class="fil2" d="M123.22 119.19c-0.28,0.18 -0.14,0.14 -0.68,0.27l-2.29 0.03c2.09,0.89 5.6,-0.12 7.65,-0.75 1.9,-0.58 4.87,-2.65 6.13,-2.66 0.46,2.44 -2.61,3.83 -4.5,4.58 -2.23,0.88 -5.05,1.46 -7.83,1.43 -2.71,-0.02 -5.51,-0.57 -7.81,-1.41 -2.94,-1.08 -4.98,-1.93 -5,-4.2 1.83,0.1 4.3,1.73 7.99,2.61 0.29,0.07 1.33,0.33 1.44,0.34 0.48,0.04 0.29,0.05 0.74,-0.03 0.82,-0.15 0.17,0.1 0.68,-0.31 -4.08,0.1 -9.48,-3.21 -10.98,-3 -1.67,4.09 9.1,6.45 13.22,6.45 4.3,-0 11.8,-2.48 12.57,-5.21 1.07,-3.78 -4.79,0.31 -5.3,0.52 -1.66,0.7 -4.07,1.38 -6.06,1.35z"/>
   <path class="fil3" d="M60.96 63.58c-0.64,5.44 -3.03,26.92 -3.87,30.48 -3.47,14.7 -19.09,33.16 -10.21,52.97 2.67,5.95 6.92,10.12 12.63,12.99 2.56,1.29 3.29,1.79 6.4,2.14l2.51 -1.1c0.98,-0.35 1.9,-0.67 2.88,-0.88 -0.3,-0.19 0.43,-0.77 -1.92,0.11 -2.46,0.92 -3.6,1.67 -5.76,0.87 -6.96,-2.56 -12.6,-6.76 -15.92,-13.79 -5.23,-11.09 -2.6,-21.96 1.55,-31.99 5.07,-12.27 8.25,-17.08 9.7,-30.04 1.33,-11.84 2.66,-23.01 4.89,-34.74 2.14,-11.3 5.88,-20.28 11.46,-28.3 1.7,-2.44 7.29,-8.71 9.54,-10.35 12.89,-9.38 29.8,-13.7 46.28,-9.67 8.05,1.97 9.34,5.03 14.28,5.63 15.13,1.84 25.32,13.85 31.04,28.26 3.65,9.19 6.33,21.91 7.54,31.98 1.3,10.85 1.61,24.29 5.6,33.94 3.47,8.4 8.55,21.54 8.87,30.67 0.43,12.58 -6.24,21.51 -13.95,25.85 -8.01,4.51 -8.76,2.45 -14.77,0.3l-14.52 -5.1c-6.88,-2.55 -9.48,-2.93 -10.04,-9.81 -0.13,-1.61 -0.22,-3.27 -0.23,-4.89 -0.04,-4.72 0.09,-2.92 5.95,-8.91 4.67,-4.77 8.49,-12.37 10.79,-18.89 0.76,-2.17 1.23,-5.77 2.45,-7.43 3.31,0.23 3.99,0.8 7.36,-0.4 8.46,-3.01 15.82,-16.97 6.61,-26.21 -5.27,-5.29 -10.52,-1.68 -10.81,0.02 1.55,-1.12 2.63,-2.49 5.77,-2.19 2.19,0.21 4.38,1.81 5.26,2.82 7.72,8.97 1.54,22.57 -7.88,25.41 -3.09,0.93 -4.08,0.16 -6.73,-0.1 -0.74,0.9 -2.57,7.8 -3.25,9.69 -1.24,3.4 -2.48,5.93 -4.12,8.87 -1.98,3.54 -5.74,8.29 -8.67,10.95l-3.36 2.85 -0.05 1.8c-0.01,4.7 0.15,11.33 3.25,13.7 2.35,0.77 4.75,2.02 7.15,2.95 2.46,0.95 4.95,1.7 7.46,2.63l14.76 5.3c7.11,-0.42 15.82,-7.6 19.02,-14.44 6.72,-14.35 1.49,-26.48 -3.71,-40.24 -5.35,-14.16 -4.84,-11.29 -6.22,-27.26 -0.44,-5.14 -1.12,-10.15 -1.87,-15.22 -2.63,-19.75 -7.07,-33.51 -17.03,-45.73 -4.27,-5.23 -10.67,-9.78 -19.88,-11.57 -8.37,-1.63 -3.43,-1.27 -11.21,-4.37 -18.76,-7.46 -44.96,-1.11 -57.99,14.66 -12.03,14.56 -13.91,26.47 -17.01,45.8z"/>
   <path class="fil4" d="M71.86 159.9c4.05,-1.19 8.58,-2.87 12.41,-4.34 1.95,-0.74 3.89,-1.46 5.79,-2.27 1.51,-0.65 4.8,-2.21 6.18,-2.43 1.56,-1.95 1.59,-3.26 1.97,-6.47 1.14,-9.45 0.96,-8.01 -2.78,-11.61 -2.59,-2.5 -3.77,-3.97 -5.99,-6.99 -6.95,-9.46 -9.03,-21.09 -10.18,-22.63 -4.62,0.8 -7.3,0.72 -11.61,-3.17 -2.23,-2.01 -5.11,-6.36 -5.34,-11.08 -0.94,0.97 -0.6,2.1 -0.13,3.73 0.89,3.06 2.61,5.51 4.57,7.66 4.59,5.04 9.5,3.74 11.97,3.85 1.2,2.69 2.18,6.39 3.3,9.35 2.78,7.34 9,18.02 15.68,22.46 0.55,3.2 -0.29,8.57 -0.78,11.73 -0.33,2.16 -1.02,2.37 -2.91,3.2 -5.66,2.48 -11.88,4.94 -17.85,6.9l-3.47 1.14c-0.99,0.61 -0.86,-0.46 -0.84,0.98z"/>
   <path class="fil4" d="M161.49 65.42c0.98,1.73 1.64,9.33 1.81,11.85l-0.07 1.19c-0.98,0.5 -1.73,1.09 -3.39,0.83 -0.69,-1 -1.14,-2.57 -1.79,-3.93 -0.5,-1.04 -1.61,-2.89 -2.25,-3.43 -0.76,0.26 -0.69,-0.56 -0.56,0.81 2.13,1.25 2.8,6.91 5.15,7.26 4.84,0.72 3.5,-4.97 3.04,-8.4 -0.42,-3.15 -0.93,-7.9 -1.79,-10.68 -0.61,-1.98 -5.19,-4.39 -6.74,-6.08 -4.12,-4.49 -7.71,-7.37 -11.69,-13.06 -3.43,-4.91 -5.64,-8.46 -8.05,-13.83 -0.27,-0.59 -0.17,-0.56 -0.49,-0.99 -1,-1.36 -0.25,-0.7 -0.83,-0.29 0.59,4.87 9.57,16.86 12.58,20.52 0.65,0.8 1.23,1.47 1.82,2.22l4.18 4.19c0.87,0.8 1.24,1.42 2.18,2.14 1.57,1.2 3.08,2.59 4.73,3.65 1.28,0.82 1.36,0.59 1.68,2.34 0.21,1.17 0.62,2.53 0.49,3.7z"/>
   <path class="fil4" d="M130.26 77.37l0.99 -1.45c1.22,-3.09 5.71,-6.46 10.42,-7.07 5.54,-0.71 9.81,2.19 12.19,4.92 6.55,7.52 2.11,20.33 -6.47,22.22 0.75,0.72 0.07,0.48 1.33,0.41l2.38 -1.17c1.61,-1.04 3.54,-3.08 4.55,-4.76 0.56,-0.93 1.01,-1.98 1.37,-3.25 1.06,-3.74 0.9,-8.51 -1.18,-11.9 -1.33,-2.16 -2.5,-3.41 -4.64,-4.96 -8.5,-6.14 -20.41,0.89 -21.27,7.02l0.35 0z"/>
   <path class="fil4" d="M86.21 88.77c-0.93,0.45 -0.35,-0.24 -0.35,0.72 -0,1.51 4.17,6.22 8.44,7.59 4.71,1.51 10.11,0.23 13.28,-2.09 6.11,-4.46 7.91,-13.78 3.02,-21.2 -0.31,-0.48 -0.49,-0.69 -0.96,-1.1 -0.78,-0.67 -0.75,-1.26 -1.07,-0.32 2.12,2.8 4.66,6.39 4.14,11.77 -0.23,2.33 -0.93,4.41 -1.99,6.16 -0.89,1.48 -2.24,3.24 -3.66,4.15 -7.6,4.89 -16.5,2.93 -20.84,-5.67z"/>
   <path class="fil5" d="M167.7 234.22c-0.09,0.2 0.05,0.63 0.01,-0.44 2.73,-2.69 -8.58,-10.92 -1.55,-20.85 0.6,-0.84 0.39,-0.82 1.14,-1.44 2.04,-1.67 4.36,-4.62 9.19,-4.88 3.75,-0.2 6.44,-0.09 9.3,1.63 2.5,1.5 3.93,3.3 5.15,5.79 1.66,3.41 1.89,5.3 1.06,9.15 -0.61,2.85 -3.65,6.26 -3.58,7.51 1.55,-2.24 3.11,-4.16 4,-7.34 2.34,-8.43 -4.22,-18.41 -16.04,-17.12 -6.18,0.67 -11.02,5.36 -12.5,10.49 -0.93,3.21 -0.44,6.61 0.83,9.45 1.68,3.77 2.98,2.99 2.99,8.05z"/>
   <path class="fil4" d="M146.99 96.4c-2.92,0.03 -4.05,0.92 -7.4,-0.08 -3.22,-0.6 -5.09,-2.29 -6.94,-4.24 -4.85,-5.09 -2.92,-11.09 -2.97,-13.58 -0.66,-0.48 -0.11,-0.63 -0.56,0.29l-0.53 3.21c-0.12,2.15 -0.09,2.41 0.39,4.43 0.94,3.93 3.06,6.95 6.45,8.99 2.31,1.39 5.26,2.31 8.2,2.12 0.73,-0.05 1.75,-0.19 2.43,-0.34 0.2,-0.04 0.77,-0.19 0.88,-0.28 0.71,-0.52 1.15,0.07 0.03,-0.52z"/>
   <path class="fil4" d="M99.78 79.59c1.93,-1.11 3.33,1.22 3.66,3.06 0.37,2.09 -0.64,4.59 -1.84,5.18 -3.84,1.89 -5.56,-6.09 -1.82,-8.24zm-2.79 4.7c0.14,6.26 7.45,6.36 7.16,-1.16 -0.24,-6.41 -7.33,-6.34 -7.16,1.16z"/>
   <path class="fil4" d="M140.39 79.83c1.83,-0.98 3.36,1.08 3.64,2.8 0.26,1.54 -0.4,4.49 -1.64,5.3 -1.96,1.26 -5.11,-0.87 -3.62,-6.24 0.46,-1.64 0.59,-1.31 1.63,-1.87zm-2.68 5.04c0.43,6.26 7.79,5.4 6.99,-1.99 -0.67,-6.16 -7.5,-5.49 -6.99,1.99z"/>
   <path class="fil6" d="M144.23 137.37l0.05 -1.8c-0.07,0.04 -0.15,0.1 -0.19,0.13 -0.04,0.03 -0.14,0.1 -0.19,0.13 -0.06,0.05 -0.29,0.21 -0.36,0.26 -1.81,1.29 -7.51,3.73 -9.37,4.44 -8.49,3.24 -16.69,3.69 -25,0.66 -2.88,-1.05 -9.25,-4.89 -10.12,-5.07 0.67,3.14 3.1,4.54 3.81,5.36 0.7,0.81 0.3,0.51 1.14,1.18l3.65 2.7c3.56,2.32 8.79,4.31 13.48,3.99 8.75,-0.6 12.52,-3.46 18.59,-7.81 3.3,-2.37 3.14,-3.83 4.5,-4.18z"/>
   <path class="fil6" d="M124 106.8c-5.64,-1.02 -9.59,2.16 -6.58,-8.96 0.7,-2.58 2.24,-8.1 2.42,-10.73 0.12,-1.78 0.12,-2.68 -1.59,-2.85 -0.99,1.41 -0.08,3.77 -1.66,8.73 -0.75,2.37 -1.85,5.64 -2.35,8.05 -0.69,3.3 -0.08,6.07 2.49,7.27 1.49,0.69 2.78,0.71 4.41,0.7 2.1,-0.01 3.28,0.1 2.87,-2.22z"/>
   <path class="fil6" d="M168.25 93.88c3.52,-0.53 -0.14,-6.02 4.04,-8.91 1.69,-1.17 1.89,-0.81 2.38,-2.12 -0.82,-1.73 -2.22,-1.82 -3.72,-0.65 -1.86,1.44 -5.12,7.34 -2.7,11.68z"/>
   <path class="fil6" d="M69.24 83.23c6.69,4.55 2.94,6.98 4.23,9.49 1.64,3.18 4.79,-1.52 0.71,-8.16 -1.11,-1.8 -4.85,-5.02 -4.94,-1.32z"/>
   <path class="fil7" d="M184.73 64.25c1.89,9.91 1.75,20.59 3.77,30.32 0.84,4.06 3.08,8.56 4.42,12.25 5.55,15.34 12.1,31.06 0.69,45.61 -2.92,3.72 -0.27,1.09 -4.07,4.3 -1.91,1.62 -2.76,2.18 -5.02,3.33 -1.94,0.99 -3.9,1.52 -5.74,2.53 0.24,0.24 0.16,0.21 0.55,0.44 0.52,0.32 -0.03,0.02 0.6,0.3l8.9 4.06c2.22,1.23 8.3,4.12 9.79,5.26l4.64 -3.91c0.52,-0.54 0.54,-0.42 1.16,-0.89 0.73,-0.56 1.09,-1.21 1.86,-1.88 2.76,-2.43 5.22,-4.6 7.75,-7.25 1.18,-1.24 2.19,-2.72 3.37,-3.85 0.44,-0.42 0.57,-0.42 0.94,-0.78l9.43 -11.34c4.8,-6.09 7.94,-11.5 11.55,-18.2 7.98,-14.79 11.81,-38.41 2.58,-53.42l-3.16 -4.34c-1.39,-1.43 -2.2,-2.4 -3.75,-3.79 -0.49,-0.44 -0.43,-0.46 -0.85,-0.88l-3.41 -2.38c-7.76,-4.91 -15.01,-5.13 -24.69,-4.23 -3.3,0.31 -9.08,1.9 -11.82,3.21 -6.28,3 -5.57,3.25 -9.5,5.55z"/>
   <path class="fil7" d="M46.74 171.58c1.1,-0.82 3.12,-1.77 4.57,-2.54 1.54,-0.83 3.29,-1.41 4.93,-2.31 3.13,-1.72 7.17,-3.12 10.4,-4.36l-0.72 -0.21c-3.11,-0.36 -3.83,-0.86 -6.4,-2.14 -5.72,-2.87 -9.96,-7.04 -12.63,-12.99 -8.89,-19.81 6.74,-38.27 10.21,-52.97 0.84,-3.56 3.22,-25.04 3.87,-30.48 -1.4,-0.43 -0.18,-0.25 -2.13,-1.52 -2.5,-1.63 -4.41,-2.44 -7.35,-3.66 -11.67,-4.82 -27.13,-4.87 -37.49,2.94 -3.28,2.48 -6.55,5.91 -8.63,9.58 -0.93,1.64 -1.68,3.02 -2.5,5.04 -2.88,7.17 -3.4,17.8 -2.38,25.62 1.14,8.72 3.4,14.41 6.84,22.05 1.22,2.71 3.68,7.22 5.08,9.36 0.99,1.52 1.9,2.84 2.89,4.32l12.53 16.63c0.67,0.89 1.07,0.79 1.89,1.86 2.03,2.68 6.52,6.81 8.99,9.18l5.9 5.08c0.73,0.6 1.33,0.75 2.14,1.52z"/>
   <path class="fil8" d="M147.69 324.42c4.7,0.06 9.12,0.06 13.82,-0.27 9.29,-0.66 31.69,0.31 41.82,0.33 9.53,0.01 17.62,1.21 18.71,-9.17 0.46,-4.36 0,-9.42 -0.03,-13.85 -0.02,-2.08 0.35,-4.62 -0.52,-6.35 -0.65,-1.3 -2.46,-2.84 -4.53,-2.5 -2.25,0.37 -4.59,3.99 -10.83,2.57 -11.93,-2.72 -14.43,-17.69 -3.89,-25.4 7.07,-5.17 11.65,1.83 15.78,1.39 1.73,-0.19 3.39,-1.81 3.79,-3.41 0.27,-1.09 1.05,-21.09 -0.14,-24.7 -0.04,-0.12 -0.2,-0.53 -0.26,-0.62 -0.51,-0.85 -0.14,-0.33 -0.63,-0.72 0.06,-0.16 -1.42,-3.65 -5.9,-4.09 -4.15,-0.41 -15.39,0.64 -20.5,0.78 -4.75,0.13 -5.55,0.71 -8.52,-1.97 -2.57,-2.32 -1.05,-6.2 0.04,-8.07 1.49,-2.56 2.74,-3.94 3.3,-7.38 0.39,-2.39 -0.6,-5.89 -2.11,-7.41l-1.73 -1.74c-3.23,-2.26 -6.9,-2.82 -10.56,-1.77 -1.03,0.3 -3.04,1.39 -3.84,2.21l-0.98 1.04c-2.92,2.84 -3.67,5.93 -2.71,9.95 0.22,0.91 1.22,2.9 1.67,3.52 2.07,2.84 3.26,7.11 0.37,9.81 -1.62,1.51 -3.39,2 -5.79,1.93 -4.58,-0.13 -24.04,-2.08 -27.13,0.36 -0.23,0.18 -0.54,0.46 -0.76,0.66 -5.3,4.68 -2.59,17.66 -2.2,18.16 2.86,3.74 6.85,-5.88 16.09,-2.23 1.01,0.4 3.34,1.62 3.92,2.42 1.53,2.12 1.16,0.35 2.17,2.16l2.09 3.39c2.65,5.03 2.63,11.82 -0.69,16.77 -3.17,4.73 -0.87,1.88 -4.29,4.71 -1.15,0.95 -3.69,1.88 -4.82,2.12 -1.03,0.22 -3.6,0.47 -5.01,0.19 -1.26,-0.26 -2.7,-0.97 -3.67,-1.54 -8.3,-4.91 -6.56,5.21 -6.56,12.02 0,5.11 -0.57,16.66 0.46,20.62 0.58,2.25 1.36,2.03 2.27,3.18 0.77,0.97 -0.3,0.34 1.41,1.21 3.08,1.57 11.51,0.42 10.87,1.7z"/>
   <path class="fil9" d="M165.61 206.6c2,-1.03 2.82,-10.14 2.83,-12.71 0,-8.67 -1.42,-18.66 -4.14,-26.65 -0.73,-2.14 -2.28,-6.34 -3.37,-8.2 -0.78,-1.32 -0.87,-1.55 -2.65,-1.67 0.12,1.71 2.79,8.52 3.58,10.74 2.16,6.06 4.34,18.19 4.31,24.62 -0.03,4.93 -0.77,9.01 -0.54,13.87z"/>
   <path class="fil9" d="M77.29 205.99c1.22,-1.29 0.42,-4.54 0.44,-6.33 0.16,-11.41 0.78,-19.98 3.45,-31.1 0.39,-1.61 0.93,-3.51 1.57,-5.35l1.43 -3.78c0.1,-0.53 0.21,0.47 0.03,-0.71 -0.1,-0.66 0.02,-0.28 -0.28,-0.78 -1.96,-0.22 -1.85,0.13 -3.35,4.11 -3.44,9.1 -6.01,28.19 -4.78,37.88 0.13,1 0.28,1.99 0.4,3.07 0.06,0.5 0.05,0.92 0.18,1.48 0.05,0.23 0.09,0.48 0.22,0.71l0.49 0.6c0.05,0.05 0.13,0.13 0.21,0.18z"/>
   <path class="fil9" d="M63.35 333.03c0.86,-0.23 0.38,0.12 0.73,-0.39l-0.94 -2.16c-0.29,0.49 0.12,0.91 0.27,1.96 -9.77,0.05 -19.28,-1.19 -28.77,-2.51 -19.66,-2.74 -32.01,-8.29 -31.69,-29.92 0.06,-4.33 0.48,-10.17 1.02,-14.49 0.58,-4.61 1.66,-8.88 2.22,-13.36 1.94,0.39 1.57,1.3 4.93,2.9 1.75,0.83 7.02,1.63 5.93,0.85 -3.36,-0.7 -5.29,-0.04 -9.13,-3.11 -1.77,-1.42 -0.67,-1.32 -2.11,-1.67 -0.38,4.44 -1.75,8.88 -2.22,13.42 -1.42,13.69 -3.56,28.34 7.35,38.02 5.46,4.84 14.65,6.53 23.49,7.9 14.56,2.25 16.41,1.41 28.92,2.58z"/>
   <path class="fil9" d="M95.18 309.19c0.32,4.87 -0.06,10.12 0.09,15.06 0.28,9.53 0.96,7.47 -7.24,8.43 0.01,-2.06 1.32,-3.68 1.23,-8.44 -0.06,-3.34 -1.31,-5.37 -2.91,-7.32 -1.35,-1.66 -2.64,-2.87 -2.03,-5.4 0.29,-1.2 0.13,-1.04 1.29,-1.53 1.53,-0.66 7.54,-1 9.57,-0.8zm-7.25 24.06c1.9,-0.19 6.55,-0.12 7.29,-1.17 0.78,-1.1 0.61,-6.26 0.63,-8.13l-0.09 -14.99c-0.74,-0.25 -9.15,0.13 -10.23,0.5 -1.33,0.44 -2.03,1.82 -1.89,3.53 0.24,2.95 5.14,5.01 5.29,11.25 0.13,5.33 -1.14,6.19 -2.2,9.07l1.19 -0.06z"/>
   <path class="fil10" d="M165.61 206.6c-0.23,-4.86 0.51,-8.93 0.54,-13.87 0.04,-6.43 -2.15,-18.57 -4.31,-24.62 -0.79,-2.22 -3.46,-9.03 -3.58,-10.74 1.78,0.12 1.87,0.35 2.65,1.67 1.09,1.86 2.65,6.06 3.37,8.2 2.72,7.99 4.15,17.98 4.14,26.65 -0,2.57 -0.83,11.68 -2.83,12.71zm-15.96 -36.05c0.32,5.39 -0.35,11.14 -0.2,16.56 0.18,6.39 -0.32,26.74 -0.78,33.31l-0.6 16.4c3.08,0.28 7.61,-0.05 10.83,-0.13 1.67,-0.04 3.7,0.01 5.32,-0.32 1.81,-0.37 2.38,-1.33 3.47,-2.15 -0.01,-5.06 -1.31,-4.28 -2.99,-8.05 -1.27,-2.84 -1.76,-6.24 -0.83,-9.45 1.48,-5.13 6.32,-9.81 12.5,-10.49 11.82,-1.29 18.38,8.69 16.04,17.12 -0.88,3.18 -2.44,5.1 -4,7.34 -1.42,4.19 0.06,5.43 4.23,5.9 3.63,0.41 7.3,0.34 10.96,0.35 4.42,0.01 15.95,-1.09 17.17,4.79 0.49,0.39 0.12,-0.13 0.63,0.72 0.05,0.09 0.22,0.5 0.26,0.62 1.19,3.61 0.42,23.61 0.14,24.7 -0.4,1.6 -2.06,3.22 -3.79,3.41 -4.12,0.45 -8.71,-6.56 -15.78,-1.39 -10.54,7.71 -8.04,22.68 3.89,25.4 6.24,1.42 8.58,-2.2 10.83,-2.57 2.07,-0.34 3.88,1.2 4.53,2.5 0.86,1.73 0.5,4.27 0.52,6.35 0.04,4.43 0.49,9.49 0.03,13.85 -1.1,10.38 -9.18,9.18 -18.71,9.17 -10.13,-0.02 -32.53,-0.99 -41.82,-0.33 -4.7,0.33 -9.13,0.33 -13.82,0.27l-0.54 0.01 0.04 6.69c0.07,0.8 0.22,1.26 0.68,1.64 2.51,1.5 31.1,0.53 36.11,0.38 5.68,-0.17 11.75,-0.66 17.35,-1.18 8.87,-0.83 22.92,-3.15 30.05,-7.61 14.56,-9.1 11.06,-28.54 8.8,-43.23 -1.66,-10.75 -3.75,-20.77 -6.15,-31.38 -3.86,-17.04 -6.94,-27.74 -12.24,-43.98 -2.35,-7.19 -6.54,-15.54 -11.15,-21.49 -0.37,-0.48 -0.62,-0.77 -1.02,-1.28l-0.25 -0.32c-1.88,-2.12 -3.48,-4.26 -5.49,-5.76l-5.24 -4.27c-1.49,-1.14 -7.57,-4.02 -9.79,-5.26l-8.9 -4.06c-0.64,-0.29 -0.09,0.01 -0.6,-0.3 -0.39,-0.24 -0.31,-0.2 -0.55,-0.44 -0.47,0.03 -0.36,0.17 -1.03,-0.04 -0.8,-0.25 -0.4,-0.05 -0.89,-0.61l-14.76 -5.3c-2.51,-0.94 -5,-1.68 -7.46,-2.63 -2.4,-0.93 -4.8,-2.18 -7.15,-2.95 1.39,4.68 2.16,14.15 2.18,19.48z"/>
   <path class="fil10" d="M77.29 205.99c-0.08,-0.05 -0.16,-0.13 -0.21,-0.18l-0.49 -0.6c-0.13,-0.24 -0.17,-0.48 -0.22,-0.71 -0.13,-0.56 -0.13,-0.98 -0.18,-1.48 -0.12,-1.09 -0.27,-2.07 -0.4,-3.07 -1.24,-9.69 1.34,-28.78 4.78,-37.88 1.5,-3.98 1.4,-4.33 3.35,-4.11 0.3,0.51 0.18,0.12 0.28,0.78 0.18,1.18 0.08,0.18 -0.03,0.71l-1.43 3.78c-0.64,1.84 -1.18,3.74 -1.57,5.35 -2.67,11.12 -3.29,19.69 -3.45,31.1 -0.03,1.8 0.78,5.04 -0.44,6.33zm-5.43 -46.08l-0.56 0.26c-0.98,0.21 -1.9,0.54 -2.88,0.88l-2.51 1.1 0.72 0.21c-3.23,1.24 -7.27,2.63 -10.4,4.36 -1.64,0.9 -3.39,1.48 -4.93,2.31 -1.45,0.78 -3.47,1.72 -4.57,2.54 -0.79,0.49 -1.47,0.92 -2.14,1.42 -0.32,0.23 -0.65,0.53 -0.97,0.75 -0.39,0.27 -0.59,0.36 -1.05,0.69 -2.29,1.64 -6.71,6.15 -8.17,8.01 -11.35,14.4 -13.88,26.8 -19.17,44.03 -0.97,3.17 -5.6,21.13 -5.44,23.34 1.32,-0.4 6.18,-4.07 12.87,0.14 2.04,1.29 3.65,4.42 6.66,3.31 2.85,-1.05 2.39,-7.51 2.4,-10.94 0.02,-4.52 0.03,-9.04 0.03,-13.56 -0,-3.86 -0.65,-8.88 1.51,-11.73 4.44,-5.85 13.18,-3.67 22.11,-3.48 2.24,0.05 4.41,0.06 6.64,0.08 6.91,0.05 6.09,4.77 3.03,8.69 -0.68,0.87 -0.79,1.09 -1.38,2.06 -3.25,5.36 -1.84,14.57 5.74,18.35 6.82,3.4 15.18,0.54 18.4,-5.8 1.61,-3.18 1.77,-7.84 0.29,-11.16 -1.26,-2.82 -4.42,-5.17 -3.23,-9.35 1.27,-4.45 7.04,-2.25 10.06,-3.48 -0.02,-3.03 -0.38,-6.92 -0.59,-10.15 -0.22,-3.24 -0.16,-6.77 -0.39,-10.08 -0.44,-6.34 -0.92,-15.07 -0.45,-21.36 -0.28,-5.82 0.81,-15.22 2.75,-20.51 -1.38,0.22 -4.67,1.78 -6.18,2.43 -1.9,0.82 -3.84,1.53 -5.79,2.27 -3.83,1.47 -8.36,3.15 -12.41,4.34z"/>
   <path class="fil10" d="M17.04 275.91c1.1,0.77 -4.18,-0.02 -5.93,-0.85 -3.36,-1.6 -2.99,-2.51 -4.93,-2.9 -0.56,4.48 -1.64,8.75 -2.22,13.36 -0.55,4.33 -0.96,10.16 -1.02,14.49 -0.31,21.63 12.03,27.18 31.69,29.92 9.49,1.32 19,2.56 28.77,2.51 -0.15,-1.05 -0.56,-1.47 -0.27,-1.96 -0.57,-4.67 -1.6,-8.87 1.83,-12.51 0.68,-0.72 2.96,-3.15 3.33,-4.51 0.73,-2.63 -0.68,-4.35 -2.91,-4.67 -8.14,-1.17 -25.32,1.83 -29.58,-0.75 -4.1,-2.49 -4.05,-6.22 -4.06,-11.77l-0.09 -23.29c-0.36,-2.35 -2.05,-3.72 -4.75,-2.93 -2.2,0.64 -2.74,2.27 -4.33,3.5 -1.56,1.21 -4.31,1.45 -5.53,2.36z"/>
   <path class="fil10" d="M95.18 309.19c-2.03,-0.2 -8.04,0.15 -9.57,0.8 -1.15,0.49 -1,0.33 -1.29,1.53 -0.61,2.53 0.68,3.74 2.03,5.4 1.59,1.95 2.84,3.98 2.91,7.32 0.09,4.76 -1.22,6.38 -1.23,8.44 8.19,-0.96 7.52,1.1 7.24,-8.43 -0.15,-4.94 0.23,-10.19 -0.09,-15.06z"/>
   <path class="fil11" d="M123.22 119.19l-3.46 -0.11c-0.52,0.41 0.13,0.16 -0.68,0.31 -0.45,0.08 -0.26,0.07 -0.74,0.03 -0.12,-0.01 -1.15,-0.27 -1.44,-0.34 -3.69,-0.88 -6.16,-2.51 -7.99,-2.61 0.01,2.26 2.05,3.12 5,4.2 2.31,0.84 5.1,1.39 7.81,1.41 2.78,0.02 5.6,-0.55 7.83,-1.43 1.89,-0.75 4.96,-2.14 4.5,-4.58 -1.26,0.01 -4.24,2.08 -6.13,2.66 -2.05,0.63 -5.55,1.64 -7.65,0.75l2.29 -0.03c0.54,-0.12 0.4,-0.09 0.68,-0.27z"/>
   <path class="fil12" d="M9.8 249.82c-2.9,2.95 -5.19,3.17 -6.52,9.07 -0.52,2.3 -0.46,4.68 0.16,6.83 0.58,2.01 2.22,4.18 2.35,5.4 1.44,0.35 0.34,0.26 2.11,1.67 3.84,3.07 5.77,2.41 9.13,3.11 1.21,-0.91 3.96,-1.15 5.53,-2.36 1.6,-1.24 2.14,-2.86 4.33,-3.5 2.69,-0.79 4.39,0.59 4.75,2.93l0.09 23.29c0.01,5.55 -0.04,9.28 4.06,11.77 4.26,2.58 21.44,-0.42 29.58,0.75 2.24,0.32 3.65,2.05 2.91,4.67 -0.38,1.36 -2.66,3.79 -3.33,4.51 -3.43,3.64 -2.4,7.84 -1.83,12.51l0.94 2.16c-0.35,0.5 0.13,0.16 -0.73,0.39 2.18,0.57 1.1,0.09 2.59,1.72 4.75,5.19 14.35,5.39 18.96,-0.02 1.78,-2.09 0.76,-0.76 3.04,-1.48l-1.19 0.06c1.06,-2.88 2.33,-3.73 2.2,-9.07 -0.16,-6.25 -5.06,-8.3 -5.29,-11.25 -0.14,-1.71 0.56,-3.09 1.89,-3.53 1.08,-0.36 9.48,-0.74 10.23,-0.5l0.09 14.99 0.14 -15.26c4.33,-0.02 8.8,0.09 13.02,-0.33 10.91,-1.08 11.33,-5.09 11.35,-14.97 0.01,-4.51 0.03,-9.05 0.02,-13.56 -0.01,-4.3 -0.59,-8.32 -5.58,-7.51 -3.34,0.55 -4.97,3.91 -9.79,3.73 -6.76,-0.24 -11.76,-7.74 -11.12,-15.85 0.7,-8.85 8.57,-13.91 13.7,-12.41 3.34,0.98 5.85,4.42 9.6,3.28 3.94,-1.19 3.11,-5.33 3.19,-10.19 0.08,-4.42 0.05,-8.84 0.06,-13.27 0.01,-5 0.35,-7.64 -2.39,-11.05 -4.71,-5.87 -15.26,-1.97 -23.13,-3.62 -3.02,1.23 -8.8,-0.97 -10.06,3.48 -1.19,4.18 1.97,6.53 3.23,9.35 1.48,3.32 1.33,7.98 -0.29,11.16 -3.22,6.34 -11.59,9.19 -18.4,5.8 -7.58,-3.78 -8.99,-12.99 -5.74,-18.35 0.59,-0.98 0.71,-1.2 1.38,-2.06 3.06,-3.92 3.88,-8.63 -3.03,-8.69 -2.23,-0.02 -4.41,-0.03 -6.64,-0.08 -8.93,-0.19 -17.67,-2.37 -22.11,3.48 -2.16,2.85 -1.51,7.87 -1.51,11.73 0,4.52 -0,9.04 -0.03,13.56 -0.02,3.42 0.45,9.88 -2.4,10.94 -3,1.11 -4.62,-2.03 -6.66,-3.31 -6.68,-4.22 -11.54,-0.54 -12.87,-0.14z"/>
   <path class="fil13" d="M119.75 119.08l3.46 0.11c1.99,0.02 4.39,-0.66 6.06,-1.35 0.5,-0.21 6.37,-4.29 5.3,-0.52 -0.77,2.73 -8.28,5.21 -12.57,5.21 -4.12,0 -14.89,-2.36 -13.22,-6.45 1.5,-0.22 6.9,3.1 10.98,3zm4.25 -12.27c0.42,2.33 -0.77,2.21 -2.87,2.22 -1.63,0.01 -2.92,-0.01 -4.41,-0.7 -2.57,-1.19 -3.19,-3.97 -2.49,-7.27 0.51,-2.41 1.6,-5.68 2.35,-8.05 1.58,-4.97 0.68,-7.33 1.66,-8.73 1.72,0.17 1.72,1.07 1.59,2.85 -0.18,2.62 -1.72,8.14 -2.42,10.73 -3.02,11.11 0.93,7.94 6.58,8.96zm44.25 -12.93c-2.41,-4.35 0.84,-10.24 2.7,-11.68 1.5,-1.16 2.9,-1.08 3.72,0.65 -0.5,1.32 -0.69,0.96 -2.38,2.12 -4.18,2.89 -0.52,8.38 -4.04,8.91zm-94.07 -9.33c4.08,6.64 0.93,11.34 -0.71,8.16 -1.29,-2.51 2.46,-4.94 -4.23,-9.49 0.09,-3.69 3.83,-0.48 4.94,1.32zm-11.86 4.36c0.23,4.72 3.11,9.07 5.34,11.08 4.31,3.89 6.99,3.97 11.61,3.17 1.15,1.54 3.22,13.17 10.18,22.63 2.22,3.02 3.4,4.49 5.99,6.99 3.74,3.6 3.92,2.16 2.78,11.61 -0.39,3.21 -0.41,4.53 -1.97,6.47 -1.94,5.29 -3.03,14.69 -2.75,20.51 1.1,1.53 1.15,1.22 2.55,2.33 7.42,5.85 15.94,9.36 25.95,9.22 7.95,-0.12 16.44,-2.43 22.52,-7.46l2.65 -2.25c0.94,-0.98 1.52,-1.66 2.49,-2.66 -0.01,-5.34 -0.79,-14.81 -2.18,-19.48 -3.1,-2.37 -3.26,-8.99 -3.25,-13.7 -1.36,0.34 -1.2,1.8 -4.5,4.18 -6.06,4.35 -9.84,7.21 -18.59,7.81 -4.69,0.32 -9.92,-1.66 -13.48,-3.99l-3.65 -2.7c-0.84,-0.67 -0.44,-0.37 -1.14,-1.18 -0.71,-0.82 -3.14,-2.23 -3.81,-5.36 0.87,0.17 7.24,4.01 10.12,5.07 8.3,3.03 16.51,2.58 25,-0.66 1.86,-0.71 7.56,-3.15 9.37,-4.44 0.07,-0.05 0.29,-0.21 0.36,-0.26 0.05,-0.04 0.15,-0.1 0.19,-0.13 0.04,-0.03 0.13,-0.09 0.19,-0.13l3.36 -2.85c2.92,-2.67 6.69,-7.42 8.67,-10.95 1.64,-2.94 2.88,-5.46 4.12,-8.87 0.69,-1.89 2.52,-8.8 3.25,-9.69 2.65,0.26 3.63,1.04 6.73,0.1 9.42,-2.85 15.6,-16.44 7.88,-25.41 -0.88,-1.02 -3.07,-2.62 -5.26,-2.82 -3.14,-0.3 -4.21,1.07 -5.77,2.19 -0.38,0.63 -2.12,2.99 -2.68,3.48 -1.18,1.03 -2.86,1.45 -4.74,1.36 -0.62,2.74 -0.2,3.99 -1.45,7.13 -2.46,6.19 -8.08,10.25 -15.34,10.31 -5.54,0.05 -11.25,-2.88 -13.82,-7.48 -2.72,-4.88 -2.39,-9.18 -2.91,-9.78 -0.22,-0.26 -3.54,-1.93 -5.17,-2.02 -1.44,-0.07 -3.3,0.34 -4.54,0.95 -3.02,1.49 0.78,7.48 -6.82,14.51 -6.07,5.62 -16.59,5.6 -23.01,-1.3 -4.3,-4.62 -3.85,-8 -4.45,-12.72 -1.74,-0.19 -2.62,-0.36 -3.62,-1.41l-2.46 -2.74c-2.78,-3.14 -7.6,-3.05 -10.57,-0.24 -0.6,0.57 -0.65,0.9 -1.07,1.51 -2.34,3.41 -2.3,6.07 -2.3,10.1z"/>
   <path class="fil13" d="M110.47 67.48c0.09,1.1 0.21,0.58 -0.2,1.6 -0.53,1.33 -0.19,-0.4 -0.57,1.07 0.78,0.86 0.86,1 1.66,1.71 1.99,1.76 2.96,5.55 3.72,7.17 2.18,-0.69 6.69,-3.52 11.69,0.5 1.37,-3.26 0.7,-2.79 2.78,-6.14 0.78,-1.26 1.46,-2.35 2.6,-2.79 -0.28,-1.29 -2,-3.14 2.12,-5.78 7.26,-4.65 14.32,-2.51 19.6,2.65 1.69,0.39 1.05,1.81 3.27,4.99 2.4,3.44 1.78,3.8 2.72,5.37 1.32,2.24 3.11,-0.3 3.44,-0.57 -0.17,-2.52 -0.83,-10.12 -1.81,-11.85l-0.2 0.66c-0.4,-2.44 -0.46,-4.64 -2.11,-6.01 -1.61,-1.34 -2.94,-2.19 -4.52,-3.54 -8.2,-7.01 -14.16,-15.42 -19.36,-24.74 -1.44,-2.58 -0.48,-1.06 -1.14,-2.66 -1.48,-0.08 -0.97,-0.26 -1.75,0.69l-2.44 3.92c-0.59,0.93 -1.3,1.62 -1.91,2.39 -6.13,7.74 -12.55,12.5 -20.53,18.38 -1.8,1.32 -3.43,2.25 -5.11,3.56l-3.55 2.75c-0.86,0.6 -0.62,-0.11 -0.92,1.27 0.07,0.05 0.17,0.09 0.23,0.12l0.75 0.23c0.4,0.06 5.61,-0.09 7.33,0.98l2.77 1.57c0.75,0.42 2.33,1.99 1.44,2.5z"/>
   <path class="fil13" d="M96.99 84.29c-0.17,-7.5 6.92,-7.57 7.16,-1.16 0.29,7.52 -7.02,7.42 -7.16,1.16zm-10.78 4.48c4.34,8.6 13.24,10.56 20.84,5.67 1.41,-0.91 2.77,-2.67 3.66,-4.15 1.06,-1.75 1.76,-3.82 1.99,-6.16 0.53,-5.37 -2.02,-8.97 -4.14,-11.77 -2.74,-1.28 -3.71,-3.16 -8.49,-3.54 -3.59,-0.29 -7.07,0.95 -9.36,2.66 -2.22,1.66 -3.85,3.42 -4.97,7.11 -1.34,4.44 -0.5,6.14 0.46,10.18z"/>
   <path class="fil13" d="M137.71 84.87c-0.51,-7.48 6.32,-8.16 6.99,-1.99 0.8,7.39 -6.56,8.26 -6.99,1.99zm-6.46 -8.95l-0.99 1.45c-0.25,0.98 0,0.52 -0.58,1.14 0.05,2.48 -1.88,8.49 2.97,13.58 1.85,1.94 3.72,3.64 6.94,4.24 0.42,-0.69 3.34,-0.03 4.29,-0.16 18.06,-2.44 15.47,-26.63 -0.54,-26.49 -2.87,0.02 -5.84,0.8 -7.57,2.14 -4.54,3.52 -3.82,5.08 -4.52,4.11z"/>
   <path class="fil13" d="M80.01 73.47c-0.57,0.94 -0.56,3.25 -0.23,4.25 0.55,0.83 1.37,1.23 2.76,1.39l1.1 -2.9c-0.36,-0.4 -0.5,0.64 -0.21,-1.03l1.65 -2.72c1.93,-2.38 2.12,-2.24 2.21,-3.93 -2.11,0.04 -1.83,0.38 -3.35,1.01 -2.27,0.93 -3.37,-0.09 -3.68,4.52l-0.24 -0.59z"/>
   <path class="fil14" d="M80.01 73.47l0.24 0.59c0.31,-4.61 1.42,-3.59 3.68,-4.52 1.52,-0.63 1.24,-0.97 3.35,-1.01 -0.09,1.7 -0.28,1.55 -2.21,3.93l-1.65 2.72c-0.29,1.68 -0.16,0.64 0.21,1.03 1.38,-3.61 6.39,-9.94 10.41,-11.56 3.14,-1.27 5.68,-2.09 9.36,-1.31 3.04,0.65 6.07,1.89 7.05,4.14 0.89,-0.51 -0.69,-2.08 -1.44,-2.5l-2.77 -1.57c-1.72,-1.07 -6.93,-0.92 -7.33,-0.98l-0.75 -0.23c-0.06,-0.02 -0.16,-0.07 -0.23,-0.12 0.29,-1.38 0.06,-0.66 0.92,-1.27l3.55 -2.75c1.68,-1.32 3.31,-2.24 5.11,-3.56 7.98,-5.88 14.4,-10.64 20.53,-18.38 0.61,-0.77 1.32,-1.46 1.91,-2.39l2.44 -3.92c0.79,-0.94 0.28,-0.77 1.75,-0.69 0.66,1.6 -0.29,0.08 1.14,2.66 5.2,9.32 11.16,17.72 19.36,24.74 1.59,1.36 2.91,2.21 4.52,3.54 1.65,1.36 1.71,3.57 2.11,6.01l0.2 -0.66c0.13,-1.16 -0.28,-2.53 -0.49,-3.7 -0.32,-1.75 -0.4,-1.53 -1.68,-2.34 -1.64,-1.05 -3.16,-2.45 -4.73,-3.65 -0.94,-0.72 -1.31,-1.35 -2.18,-2.14l-4.18 -4.19c-0.59,-0.75 -1.17,-1.43 -1.82,-2.22 -3.01,-3.66 -11.99,-15.65 -12.58,-20.52 -0.91,-0.4 -0.66,0.73 -2.11,3.29 -1.34,2.38 -3.31,5.06 -5.03,7.12 -0.52,0.63 -0.86,0.74 -1.44,1.43 -2.66,3.19 -4.61,4.61 -7.61,7.68 -2,2.06 -14.15,10.27 -17.64,12.94 -4.74,3.63 -13.36,9.14 -19.66,10.89l-0.33 3.44z"/>
   <path class="fil14" d="M131.25 75.92c0.7,0.97 -0.02,-0.59 4.52,-4.11 1.73,-1.34 4.7,-2.12 7.57,-2.14 16.02,-0.13 18.6,24.05 0.54,26.49 -0.96,0.13 -3.87,-0.53 -4.29,0.16 3.35,1 4.48,0.11 7.4,0.08l0.39 -0.42c8.58,-1.89 13.02,-14.7 6.47,-22.22 -2.38,-2.73 -6.65,-5.63 -12.19,-4.92 -4.71,0.61 -9.2,3.98 -10.42,7.07z"/>
   <path class="fil14" d="M155.8 71.92c0.64,0.55 1.75,2.39 2.25,3.43 0.65,1.36 1.1,2.93 1.79,3.93 1.66,0.26 2.4,-0.33 3.39,-0.83l0.07 -1.19c-0.33,0.27 -2.12,2.81 -3.44,0.57 -0.93,-1.58 -0.31,-1.94 -2.72,-5.37 -2.22,-3.18 -1.57,-4.6 -3.27,-4.99 0.45,0.99 1.37,3.44 1.93,4.45z"/>
   <path class="fil15" d="M86.21 88.77c-0.96,-4.04 -1.81,-5.74 -0.46,-10.18 1.12,-3.69 2.74,-5.45 4.97,-7.11 2.29,-1.71 5.77,-2.95 9.36,-2.66 4.78,0.39 5.75,2.27 8.49,3.54 0.33,-0.94 0.29,-0.35 1.07,0.32 0.47,0.41 0.65,0.63 0.96,1.1 4.89,7.42 3.09,16.74 -3.02,21.2 -3.17,2.32 -8.57,3.6 -13.28,2.09 -4.27,-1.37 -8.44,-6.08 -8.44,-7.59 0,-0.96 -0.59,-0.27 0.35,-0.72zm61.17 7.21l-0.39 0.42c1.11,0.59 0.68,0.01 -0.03,0.52 -0.12,0.09 -0.69,0.23 -0.88,0.28 -0.69,0.15 -1.7,0.3 -2.43,0.34 -2.94,0.19 -5.89,-0.73 -8.2,-2.12 -3.4,-2.04 -5.51,-5.06 -6.45,-8.99 -0.49,-2.02 -0.51,-2.28 -0.39,-4.43l0.53 -3.21c0.44,-0.92 -0.11,-0.77 0.56,-0.29 0.59,-0.61 0.34,-0.16 0.58,-1.14l-0.35 -0c0.86,-6.13 12.77,-13.16 21.27,-7.02 2.14,1.55 3.31,2.8 4.64,4.96 2.09,3.39 2.25,8.15 1.18,11.9 -0.36,1.27 -0.81,2.32 -1.37,3.25 -1.01,1.68 -2.94,3.72 -4.55,4.76l-2.38 1.17c-1.26,0.08 -0.58,0.31 -1.33,-0.41zm-36.91 -28.5c-0.98,-2.24 -4.01,-3.49 -7.05,-4.14 -3.69,-0.78 -6.22,0.04 -9.36,1.31 -4.03,1.63 -9.03,7.95 -10.41,11.56l-1.1 2.9c-1.39,-0.16 -2.21,-0.56 -2.76,-1.39 -0.33,-1 -0.34,-3.31 0.23,-4.25l0.33 -3.44c6.3,-1.75 14.92,-7.26 19.66,-10.89 3.49,-2.68 15.64,-10.89 17.64,-12.94 2.99,-3.07 4.94,-4.49 7.61,-7.68 0.58,-0.7 0.91,-0.81 1.44,-1.43 1.72,-2.06 3.69,-4.74 5.03,-7.12 1.44,-2.56 1.2,-3.69 2.11,-3.29 0.59,-0.41 -0.17,-1.08 0.83,0.29 0.31,0.43 0.22,0.39 0.49,0.99 2.42,5.37 4.62,8.92 8.05,13.83 3.97,5.69 7.56,8.57 11.69,13.06 1.56,1.7 6.13,4.11 6.74,6.08 0.86,2.78 1.37,7.53 1.79,10.68 0.46,3.44 1.81,9.12 -3.04,8.4 -2.35,-0.35 -3.02,-6.01 -5.15,-7.26 -0.12,-1.37 -0.19,-0.55 0.56,-0.81 -0.56,-1 -1.48,-3.45 -1.93,-4.45 -5.28,-5.15 -12.34,-7.3 -19.6,-2.65 -4.12,2.64 -2.4,4.49 -2.12,5.78 -1.15,0.43 -1.82,1.52 -2.6,2.79 -2.08,3.35 -1.41,2.89 -2.78,6.14 -5,-4.02 -9.51,-1.19 -11.69,-0.5 -0.76,-1.62 -1.72,-5.41 -3.72,-7.17 -0.8,-0.71 -0.88,-0.86 -1.66,-1.71 0.38,-1.47 0.04,0.25 0.57,-1.07 0.41,-1.02 0.3,-0.5 0.2,-1.6zm-39.16 92.69l0.56 -0.26c-0.01,-1.44 -0.15,-0.37 0.84,-0.98l3.47 -1.14c5.98,-1.95 12.19,-4.42 17.85,-6.9 1.89,-0.83 2.58,-1.04 2.91,-3.2 0.49,-3.17 1.32,-8.54 0.78,-11.73 -6.68,-4.44 -12.9,-15.12 -15.68,-22.46 -1.12,-2.96 -2.1,-6.66 -3.3,-9.35 -2.47,-0.11 -7.38,1.19 -11.97,-3.85 -1.96,-2.15 -3.68,-4.6 -4.57,-7.66 -0.47,-1.63 -0.81,-2.76 0.13,-3.73 0,-4.03 -0.04,-6.69 2.3,-10.1 0.42,-0.61 0.46,-0.94 1.07,-1.51 2.96,-2.81 7.79,-2.9 10.57,0.24l2.46 2.74c0.99,1.05 1.88,1.22 3.62,1.41 0.59,4.72 0.15,8.1 4.45,12.72 6.42,6.9 16.93,6.92 23.01,1.3 7.6,-7.03 3.81,-13.02 6.82,-14.51 1.24,-0.61 3.1,-1.03 4.54,-0.95 1.63,0.08 4.96,1.76 5.17,2.02 0.52,0.61 0.19,4.9 2.91,9.78 2.57,4.6 8.28,7.53 13.82,7.48 7.26,-0.06 12.88,-4.12 15.34,-10.31 1.25,-3.14 0.82,-4.39 1.45,-7.13 1.88,0.09 3.56,-0.32 4.74,-1.36 0.56,-0.49 2.3,-2.84 2.68,-3.48 0.3,-1.69 5.54,-5.31 10.81,-0.02 9.2,9.24 1.84,23.2 -6.61,26.21 -3.37,1.2 -4.04,0.63 -7.36,0.4 -1.22,1.66 -1.68,5.27 -2.45,7.43 -2.3,6.53 -6.12,14.12 -10.79,18.89 -5.86,5.99 -5.99,4.2 -5.95,8.91 0.01,1.62 0.1,3.28 0.23,4.89 0.56,6.87 3.16,7.25 10.04,9.81l14.52 5.1c6.01,2.15 6.76,4.21 14.77,-0.3 7.71,-4.34 14.38,-13.27 13.95,-25.85 -0.31,-9.13 -5.39,-22.27 -8.87,-30.67 -3.99,-9.65 -4.3,-23.09 -5.6,-33.94 -1.2,-10.07 -3.89,-22.79 -7.54,-31.98 -5.72,-14.41 -15.91,-26.43 -31.04,-28.26 -4.94,-0.6 -6.22,-3.66 -14.28,-5.63 -16.48,-4.03 -33.39,0.29 -46.28,9.67 -2.25,1.64 -7.84,7.91 -9.54,10.35 -5.58,8.02 -9.32,17 -11.46,28.3 -2.22,11.73 -3.56,22.9 -4.89,34.74 -1.46,12.96 -4.63,17.77 -9.7,30.04 -4.14,10.03 -6.78,20.9 -1.55,31.99 3.32,7.03 8.96,11.23 15.92,13.79 2.17,0.8 3.3,0.05 5.76,-0.87 2.36,-0.88 1.63,-0.3 1.92,-0.11z"/>
   <path class="fil5" d="M167.7 234.22c-1.09,0.82 -1.65,1.78 -3.47,2.15 -1.62,0.33 -3.65,0.28 -5.32,0.32 -3.22,0.08 -7.75,0.4 -10.83,0.13 -1.74,-0.16 -9.1,0.21 -10.61,0.79 -2.69,1.03 -4.58,3.11 -5.16,6.4 -0.42,2.35 -0.52,8.89 -0.26,11.32 0.18,1.76 0.75,3.22 2.16,3.65 2.24,0.69 3.26,-0.49 4.48,-1.38 11.43,-8.4 24.68,7.32 19.01,20.16 -2.03,4.59 -6.96,9.81 -14.08,9.03 -3.4,-0.37 -5.22,-3.37 -8.61,-2.9 -3.47,0.49 -3.03,5.57 -3.06,8.92 -0.06,7.51 -0.23,15.9 0.2,23.34 0.2,3.52 2.18,6.08 4.39,7.12 2.48,1.16 7.56,0.98 10.61,1.16l0.54 -0.01c0.64,-1.28 -7.79,-0.13 -10.87,-1.7 -1.71,-0.87 -0.64,-0.24 -1.41,-1.21 -0.92,-1.15 -1.69,-0.93 -2.27,-3.18 -1.03,-3.96 -0.46,-15.51 -0.46,-20.62 0,-6.81 -1.73,-16.93 6.56,-12.02 0.97,0.57 2.41,1.28 3.67,1.54 1.4,0.29 3.97,0.03 5.01,-0.19 1.13,-0.24 3.67,-1.16 4.82,-2.12 3.42,-2.83 1.12,0.02 4.29,-4.71 3.32,-4.94 3.33,-11.73 0.69,-16.77l-2.09 -3.39c-1.01,-1.8 -0.64,-0.04 -2.17,-2.16 -0.58,-0.8 -2.91,-2.02 -3.92,-2.42 -9.24,-3.65 -13.23,5.98 -16.09,2.23 -0.39,-0.5 -3.1,-13.48 2.2,-18.16 0.22,-0.2 0.53,-0.48 0.76,-0.66 3.09,-2.43 22.56,-0.48 27.13,-0.36 2.4,0.07 4.17,-0.42 5.79,-1.93 2.89,-2.7 1.7,-6.97 -0.37,-9.81 -0.45,-0.62 -1.46,-2.62 -1.67,-3.52 -0.96,-4.02 -0.21,-7.11 2.71,-9.95l0.98 -1.04c0.8,-0.82 2.81,-1.92 3.84,-2.21 3.65,-1.05 7.32,-0.5 10.56,1.77l1.73 1.74c1.52,1.53 2.51,5.02 2.11,7.41 -0.56,3.44 -1.81,4.82 -3.3,7.38 -1.09,1.87 -2.6,5.76 -0.04,8.07 2.97,2.68 3.77,2.1 8.52,1.97 5.11,-0.14 16.35,-1.19 20.5,-0.78 4.48,0.44 5.95,3.94 5.9,4.09 -1.21,-5.88 -12.74,-4.78 -17.17,-4.79 -3.66,-0.01 -7.34,0.05 -10.96,-0.35 -4.18,-0.47 -5.65,-1.71 -4.23,-5.9 -0.08,-1.25 2.96,-4.65 3.58,-7.51 0.83,-3.85 0.6,-5.74 -1.06,-9.15 -1.21,-2.48 -2.65,-4.29 -5.15,-5.79 -2.86,-1.72 -5.55,-1.83 -9.3,-1.63 -4.83,0.26 -7.15,3.21 -9.19,4.88 -0.75,0.62 -0.55,0.6 -1.14,1.44 -7.03,9.93 4.28,18.16 1.55,20.85 0.04,1.07 -0.1,0.64 -0.01,0.44z"/>
   <path class="fil15" d="M99.78 79.59c-3.74,2.15 -2.02,10.13 1.82,8.24 1.2,-0.59 2.21,-3.09 1.84,-5.18 -0.33,-1.84 -1.74,-4.17 -3.66,-3.06z"/>
   <path class="fil15" d="M140.39 79.83c-1.04,0.56 -1.17,0.23 -1.63,1.87 -1.49,5.37 1.67,7.5 3.62,6.24 1.25,-0.81 1.9,-3.77 1.64,-5.3 -0.29,-1.72 -1.81,-3.79 -3.64,-2.8z"/>
  </g>
 </g>
</svg>
